<?xml version="1.0" encoding="utf-8"?>
<!-- Generator: Adobe Illustrator 21.0.0, SVG Export Plug-In . SVG Version: 6.00 Build 0)  -->
<svg version="1.1" id="Layer_1" xmlns="http://www.w3.org/2000/svg" xmlns:xlink="http://www.w3.org/1999/xlink" x="0px" y="0px"
	 viewBox="0 0 700 700" style="enable-background:new 0 0 700 700;" xml:space="preserve">
<style type="text/css">
	.st0{fill:#AC7651;}
	.st1{fill:#FFFFFF;}
	.st2{fill:none;stroke:#AC7651;stroke-width:1.3048;stroke-miterlimit:10;}
	.st3{fill:none;stroke:#AC7651;stroke-width:2.6096;stroke-miterlimit:10;}
</style>
<g>
	<path d="M45,48.7c2.5,0,4.4,0.5,5.6,1.4s1.8,2.3,1.8,4.1c0,1-0.2,1.9-0.5,2.6c-0.4,0.7-0.9,1.3-1.5,1.7s-1.5,0.8-2.4,0.9
		c-1,0.2-2.1,0.3-3.3,0.3h-2.4v6.9h-1.7V49.2c0.6-0.2,1.3-0.3,2.2-0.4C43.5,48.7,44.3,48.7,45,48.7z M45.1,50.2
		c-0.6,0-1.2,0-1.7,0.1c-0.5,0-0.8,0.1-1.2,0.1v7.8h2.2c0.9,0,1.8-0.1,2.5-0.2c0.8-0.1,1.4-0.3,1.9-0.6c0.5-0.3,1-0.7,1.2-1.2
		c0.3-0.5,0.4-1.2,0.4-2c0-0.8-0.2-1.4-0.5-1.9c-0.3-0.5-0.7-0.9-1.3-1.2c-0.5-0.3-1.1-0.5-1.8-0.6C46.5,50.2,45.8,50.2,45.1,50.2z"
		/>
	<path d="M60.1,53.1c0.5,0,1.1,0,1.5,0.1c0.5,0.1,0.8,0.2,1,0.3l-0.3,1.4c-0.1-0.1-0.4-0.1-0.8-0.2c-0.4-0.1-1-0.1-1.7-0.1
		c-0.7,0-1.3,0.1-1.7,0.2c-0.4,0.1-0.7,0.2-0.9,0.3v11.6h-1.7V54c0.4-0.2,1-0.4,1.8-0.6C58.1,53.2,59,53.1,60.1,53.1z"/>
	<path d="M67.2,49.3c0,0.4-0.1,0.7-0.4,0.9c-0.2,0.2-0.5,0.3-0.9,0.3s-0.6-0.1-0.9-0.3c-0.2-0.2-0.4-0.5-0.4-0.9s0.1-0.7,0.4-0.9
		c0.2-0.2,0.5-0.3,0.9-0.3s0.6,0.1,0.9,0.3C67.1,48.6,67.2,49,67.2,49.3z M66.8,66.6h-1.7V53.3h1.7V66.6z"/>
	<path d="M71.3,53.8c0.5-0.1,1.2-0.3,2-0.5s1.9-0.3,3.1-0.3c1,0,1.8,0.1,2.5,0.4c0.7,0.3,1.2,0.7,1.6,1.2c0.4,0.5,0.7,1.2,0.9,1.9
		c0.2,0.8,0.3,1.6,0.3,2.5v7.4h-1.7v-6.9c0-0.9-0.1-1.7-0.2-2.4c-0.1-0.6-0.3-1.2-0.6-1.6c-0.3-0.4-0.7-0.7-1.2-0.9
		c-0.5-0.2-1.1-0.3-1.8-0.3c-0.8,0-1.5,0-2,0.1c-0.6,0.1-0.9,0.2-1.1,0.2v11.6h-1.7V53.8z"/>
	<path d="M91.3,66.9c-1,0-1.9-0.2-2.7-0.5c-0.8-0.3-1.4-0.8-2-1.4c-0.5-0.6-0.9-1.3-1.2-2.2C85.2,62,85,61,85,60c0-1,0.1-2,0.4-2.8
		s0.7-1.6,1.2-2.2c0.5-0.6,1.2-1.1,1.9-1.4c0.8-0.3,1.6-0.5,2.5-0.5c0.7,0,1.4,0.1,2,0.2c0.6,0.1,1.1,0.3,1.4,0.5l-0.4,1.4
		c-0.3-0.2-0.7-0.3-1.2-0.4c-0.4-0.1-1-0.2-1.7-0.2c-1.5,0-2.6,0.5-3.3,1.4s-1.1,2.3-1.1,4c0,0.8,0.1,1.5,0.3,2.2
		c0.2,0.7,0.4,1.2,0.8,1.7c0.4,0.5,0.9,0.8,1.5,1.1c0.6,0.3,1.3,0.4,2.2,0.4c0.7,0,1.3-0.1,1.8-0.2c0.5-0.2,0.8-0.3,1.1-0.4l0.4,1.4
		c-0.3,0.2-0.8,0.3-1.4,0.5C92.7,66.8,92,66.9,91.3,66.9z"/>
	<path d="M102,48.1l-4.4,3.6l-0.8-1l4-3.9L102,48.1z M99.3,66.6h-1.7V53.3h1.7V66.6z"/>
	<path d="M105.3,71.3h-1.7V53.8c0.5-0.2,1.1-0.3,1.9-0.5c0.8-0.2,1.7-0.2,2.9-0.2c1,0,1.9,0.2,2.7,0.5c0.8,0.3,1.5,0.8,2,1.4
		s1,1.3,1.3,2.2s0.5,1.8,0.5,2.9c0,1-0.1,1.9-0.4,2.8c-0.3,0.8-0.7,1.6-1.2,2.2c-0.5,0.6-1.1,1.1-1.9,1.4c-0.7,0.3-1.6,0.5-2.5,0.5
		c-0.9,0-1.6-0.1-2.3-0.4c-0.6-0.2-1.1-0.5-1.4-0.7V71.3z M105.3,64.2c0.2,0.1,0.3,0.2,0.6,0.4c0.2,0.1,0.5,0.3,0.8,0.4
		c0.3,0.1,0.6,0.2,1,0.3c0.4,0.1,0.7,0.1,1.1,0.1c0.8,0,1.5-0.1,2.1-0.4c0.6-0.3,1-0.7,1.3-1.2c0.3-0.5,0.6-1.1,0.7-1.7
		c0.2-0.7,0.2-1.4,0.2-2.1c0-1.7-0.4-3.1-1.3-4s-2-1.4-3.5-1.4c-0.8,0-1.5,0-2,0.1s-0.9,0.2-1.1,0.2V64.2z"/>
	<path d="M120.9,54.7c0,0.4-0.1,0.7-0.4,1s-0.6,0.4-1,0.4c-0.4,0-0.8-0.1-1-0.4c-0.2-0.3-0.4-0.6-0.4-1s0.1-0.7,0.4-1
		c0.2-0.3,0.6-0.4,1-0.4c0.4,0,0.8,0.1,1,0.4S120.9,54.4,120.9,54.7z M120.9,65.5c0,0.4-0.1,0.7-0.4,1s-0.6,0.4-1,0.4
		c-0.4,0-0.8-0.1-1-0.4c-0.2-0.3-0.4-0.6-0.4-1c0-0.4,0.1-0.7,0.4-1c0.2-0.3,0.6-0.4,1-0.4c0.4,0,0.8,0.1,1,0.4
		C120.8,64.7,120.9,65.1,120.9,65.5z"/>
</g>
<g>
	<path class="st0" d="M442.7,227.7c0,37.2-34.2,53.5-71.3,53.5s-63.2-16.4-63.2-53.5s30.1-58.9,67.3-58.9S442.7,190.5,442.7,227.7z"
		/>
	<circle class="st0" cx="498.7" cy="114.5" r="67.3"/>
	<path class="st0" d="M660.9,254.2c-10.3,31.3-42.9,61.5-69.1,69.7c-36.4,11.5-69.1-31.2-69.1-69.7s30.9-69.7,69.1-69.7
		C630,184.4,673,217.6,660.9,254.2z"/>
	<path class="st0" d="M280.1,145.4c0,37.2-30.1,67.3-67.3,67.3s-86-35.2-67.3-67.3c14.8-25.3,39.6-59.7,67.3-67.3
		C248.7,68.4,280.1,108.2,280.1,145.4z"/>
	<g>
		<path class="st1" d="M191.4,139.4c0.3-0.6,0.6-1.3,0.9-2.1c0.3-0.8,0.6-1.6,0.9-2.5c0.3-0.9,0.6-1.7,0.8-2.6s0.5-1.7,0.6-2.5h1.4
			c-0.3,1-0.6,2-0.9,3s-0.7,2-1,2.9s-0.7,1.9-1.1,2.8c-0.4,0.9-0.8,1.7-1.1,2.5h-1.3c-0.4-0.8-0.8-1.6-1.1-2.5
			c-0.4-0.9-0.7-1.8-1.1-2.8s-0.7-1.9-1-2.9s-0.6-2-0.9-3h1.5c0.2,0.8,0.4,1.6,0.6,2.5s0.5,1.7,0.8,2.6s0.6,1.7,0.9,2.5
			S191.1,138.8,191.4,139.4z"/>
		<path class="st1" d="M205.4,130.9c-0.3,0.4-0.8,0.9-1.3,1.6c-0.5,0.7-1.1,1.4-1.7,2.2c-0.6,0.8-1.2,1.7-1.8,2.6s-1.1,1.7-1.6,2.5
			h6.6v1.2h-8.2v-1c0.4-0.7,0.8-1.5,1.4-2.3c0.6-0.9,1.1-1.7,1.7-2.5c0.6-0.8,1.2-1.6,1.8-2.3c0.6-0.7,1-1.3,1.4-1.8h-6v-1.2h7.7
			V130.9z"/>
		<path class="st1" d="M217.6,135.3c0,0.9-0.1,1.7-0.4,2.4c-0.3,0.7-0.6,1.3-1.1,1.8c-0.5,0.5-1,0.9-1.6,1.2
			c-0.6,0.3-1.3,0.4-2.1,0.4s-1.4-0.1-2.1-0.4c-0.6-0.3-1.2-0.7-1.6-1.2c-0.5-0.5-0.8-1.1-1.1-1.8c-0.3-0.7-0.4-1.5-0.4-2.4
			s0.1-1.7,0.4-2.4c0.3-0.7,0.6-1.3,1.1-1.9c0.5-0.5,1-0.9,1.6-1.2c0.6-0.3,1.3-0.4,2.1-0.4s1.4,0.1,2.1,0.4
			c0.6,0.3,1.2,0.7,1.6,1.2c0.5,0.5,0.8,1.1,1.1,1.9S217.6,134.5,217.6,135.3z M216.1,135.3c0-1.4-0.3-2.5-1-3.4
			c-0.7-0.8-1.5-1.2-2.6-1.2c-1.1,0-2,0.4-2.6,1.2c-0.7,0.8-1,1.9-1,3.4s0.3,2.5,1,3.3c0.7,0.8,1.5,1.2,2.6,1.2c1.1,0,2-0.4,2.6-1.2
			C215.8,137.9,216.1,136.7,216.1,135.3z"/>
		<path class="st1" d="M224.5,129.5c0.5,0,0.9,0,1.3,0.1c0.4,0.1,0.7,0.1,0.9,0.2l-0.3,1.2c-0.1-0.1-0.4-0.1-0.7-0.2
			c-0.4-0.1-0.8-0.1-1.4-0.1c-0.6,0-1.1,0-1.5,0.1s-0.6,0.2-0.7,0.2v9.8h-1.4v-10.7c0.4-0.2,0.9-0.3,1.5-0.5
			C222.8,129.6,223.6,129.5,224.5,129.5z"/>
		<path class="st1" d="M231.6,134.8c0.5,0.4,1,0.8,1.5,1.2s1,1,1.5,1.5s1,1.1,1.4,1.7c0.4,0.6,0.8,1.1,1.1,1.6h-1.7
			c-0.3-0.6-0.7-1.1-1.2-1.7c-0.4-0.5-0.9-1.1-1.4-1.5c-0.5-0.5-1-0.9-1.5-1.3c-0.5-0.4-0.9-0.7-1.3-0.9v5.4h-1.4v-16.6l1.4-0.3
			v10.5c0.3-0.3,0.7-0.6,1.1-1.1c0.4-0.4,0.9-0.9,1.4-1.3c0.5-0.5,0.9-0.9,1.3-1.3s0.8-0.8,1-1.1h1.7c-0.3,0.3-0.7,0.7-1.1,1.2
			c-0.4,0.4-0.9,0.9-1.3,1.3c-0.5,0.5-0.9,0.9-1.4,1.4C232.5,134,232.1,134.4,231.6,134.8z"/>
		<path class="st1" d="M243,129.5c0.7,0,1.4,0.1,1.9,0.3s0.9,0.5,1.2,0.9c0.3,0.4,0.5,0.8,0.7,1.3c0.1,0.5,0.2,1.1,0.2,1.6v7.1
			c-0.1,0-0.4,0.1-0.6,0.1c-0.3,0.1-0.6,0.1-1,0.2s-0.8,0.1-1.2,0.1c-0.4,0-0.9,0.1-1.4,0.1c-0.6,0-1.1-0.1-1.6-0.2
			c-0.5-0.1-0.9-0.3-1.3-0.6c-0.4-0.3-0.7-0.6-0.9-1.1c-0.2-0.4-0.3-1-0.3-1.6c0-0.6,0.1-1.1,0.3-1.6c0.2-0.4,0.6-0.8,1-1.1
			c0.4-0.3,0.9-0.5,1.5-0.6c0.6-0.1,1.2-0.2,1.9-0.2c0.2,0,0.4,0,0.6,0c0.2,0,0.4,0.1,0.7,0.1c0.2,0,0.4,0.1,0.5,0.1
			c0.2,0,0.3,0.1,0.3,0.1v-0.7c0-0.4,0-0.8-0.1-1.1c-0.1-0.4-0.2-0.7-0.4-1c-0.2-0.3-0.5-0.5-0.8-0.7c-0.4-0.2-0.8-0.3-1.4-0.3
			c-0.8,0-1.4,0.1-1.8,0.2c-0.4,0.1-0.7,0.2-0.9,0.3l-0.2-1.2c0.2-0.1,0.6-0.2,1.1-0.3C241.6,129.5,242.2,129.5,243,129.5z
			 M243.1,139.9c0.5,0,1,0,1.4-0.1s0.8-0.1,1.1-0.1v-3.9c-0.2-0.1-0.4-0.1-0.8-0.2c-0.3-0.1-0.8-0.1-1.4-0.1c-0.3,0-0.7,0-1.1,0.1
			s-0.7,0.2-1,0.3c-0.3,0.2-0.6,0.4-0.8,0.7c-0.2,0.3-0.3,0.7-0.3,1.1c0,0.4,0.1,0.8,0.2,1.1c0.1,0.3,0.3,0.5,0.6,0.7
			c0.3,0.2,0.6,0.3,0.9,0.4C242.2,139.9,242.6,139.9,243.1,139.9z"/>
		<path class="st1" d="M191.4,165.4c0.3-0.6,0.6-1.3,0.9-2.1c0.3-0.8,0.6-1.6,0.9-2.5c0.3-0.9,0.6-1.7,0.8-2.6s0.5-1.7,0.6-2.5h1.4
			c-0.3,1-0.6,2-0.9,3s-0.7,2-1,2.9s-0.7,1.9-1.1,2.8c-0.4,0.9-0.8,1.7-1.1,2.5h-1.3c-0.4-0.8-0.8-1.6-1.1-2.5
			c-0.4-0.9-0.7-1.8-1.1-2.8s-0.7-1.9-1-2.9s-0.6-2-0.9-3h1.5c0.2,0.8,0.4,1.6,0.6,2.5s0.5,1.7,0.8,2.6s0.6,1.7,0.9,2.5
			S191.1,164.8,191.4,165.4z"/>
		<path class="st1" d="M202.1,151.3l-3.7,3l-0.7-0.8l3.4-3.3L202.1,151.3z M199.8,167h-1.4v-11.2h1.4V167z"/>
		<path class="st1" d="M203.5,156.1c0.4-0.1,1-0.2,1.7-0.4c0.7-0.1,1.6-0.2,2.6-0.2c0.9,0,1.6,0.1,2.1,0.4c0.6,0.2,1,0.6,1.4,1.1
			s0.6,1,0.7,1.6c0.1,0.6,0.2,1.3,0.2,2.1v6.3h-1.4v-5.8c0-0.8-0.1-1.5-0.2-2c-0.1-0.5-0.3-1-0.5-1.3c-0.3-0.3-0.6-0.6-1-0.7
			s-0.9-0.2-1.6-0.2c-0.7,0-1.2,0-1.7,0.1c-0.5,0.1-0.8,0.1-0.9,0.2v9.8h-1.4V156.1z"/>
		<path class="st1" d="M219.3,155.5c0.7,0,1.4,0.1,1.9,0.3s0.9,0.5,1.2,0.9c0.3,0.4,0.5,0.8,0.7,1.3c0.1,0.5,0.2,1.1,0.2,1.6v7.1
			c-0.1,0-0.4,0.1-0.6,0.1c-0.3,0.1-0.6,0.1-1,0.2s-0.8,0.1-1.2,0.1c-0.4,0-0.9,0.1-1.4,0.1c-0.6,0-1.1-0.1-1.6-0.2
			c-0.5-0.1-0.9-0.3-1.3-0.6c-0.4-0.3-0.7-0.6-0.9-1.1c-0.2-0.4-0.3-1-0.3-1.6c0-0.6,0.1-1.1,0.3-1.6c0.2-0.4,0.6-0.8,1-1.1
			c0.4-0.3,0.9-0.5,1.5-0.6c0.6-0.1,1.2-0.2,1.9-0.2c0.2,0,0.4,0,0.6,0c0.2,0,0.4,0.1,0.7,0.1c0.2,0,0.4,0.1,0.5,0.1
			c0.2,0,0.3,0.1,0.3,0.1v-0.7c0-0.4,0-0.8-0.1-1.1c-0.1-0.4-0.2-0.7-0.4-1c-0.2-0.3-0.5-0.5-0.8-0.7c-0.4-0.2-0.8-0.3-1.4-0.3
			c-0.8,0-1.4,0.1-1.8,0.2c-0.4,0.1-0.7,0.2-0.9,0.3l-0.2-1.2c0.2-0.1,0.6-0.2,1.1-0.3C218,155.5,218.6,155.5,219.3,155.5z
			 M219.4,165.9c0.5,0,1,0,1.4-0.1s0.8-0.1,1.1-0.1v-3.9c-0.2-0.1-0.4-0.1-0.8-0.2c-0.3-0.1-0.8-0.1-1.4-0.1c-0.3,0-0.7,0-1.1,0.1
			s-0.7,0.2-1,0.3c-0.3,0.2-0.6,0.4-0.8,0.7c-0.2,0.3-0.3,0.7-0.3,1.1c0,0.4,0.1,0.8,0.2,1.1c0.1,0.3,0.3,0.5,0.6,0.7
			c0.3,0.2,0.6,0.3,0.9,0.4C218.6,165.9,219,165.9,219.4,165.9z"/>
	</g>
	<circle class="st0" cx="264.5" cy="188" r="8.1"/>
	<ellipse transform="matrix(0.6017 -0.7987 0.7987 0.6017 -8.8118 445.9619)" class="st0" cx="442.7" cy="231.8" rx="7" ry="7"/>
	<g>
		<path class="st1" d="M332.9,222.1c0.4-0.1,1-0.2,1.6-0.4s1.5-0.2,2.6-0.2c1.4,0,2.4,0.4,3.1,1.2c0.1-0.1,0.2-0.2,0.4-0.3
			c0.2-0.1,0.5-0.3,0.8-0.4c0.3-0.1,0.7-0.3,1.1-0.4c0.4-0.1,0.9-0.2,1.4-0.2c0.9,0,1.5,0.1,2.1,0.4c0.5,0.3,0.9,0.6,1.2,1.1
			c0.3,0.5,0.5,1,0.6,1.6c0.1,0.6,0.2,1.3,0.2,2.1v6.3h-1.4v-5.8c0-0.7,0-1.4-0.1-1.9s-0.2-1-0.4-1.3c-0.2-0.4-0.5-0.6-0.8-0.8
			c-0.4-0.2-0.8-0.3-1.4-0.3c-0.4,0-0.8,0-1.2,0.1c-0.4,0.1-0.7,0.2-0.9,0.3s-0.5,0.2-0.6,0.3c-0.2,0.1-0.3,0.2-0.4,0.3
			c0.1,0.4,0.2,0.8,0.3,1.3c0.1,0.5,0.1,1,0.1,1.5v6.4h-1.4v-5.8c0-0.7,0-1.4-0.1-1.9s-0.2-1-0.4-1.3c-0.2-0.4-0.5-0.6-0.9-0.8
			c-0.4-0.2-0.9-0.3-1.5-0.3c-0.7,0-1.3,0-1.7,0.1c-0.5,0.1-0.8,0.1-0.9,0.2v9.8h-1.4V222.1z"/>
		<path class="st1" d="M351,227.3c0-1,0.1-1.8,0.4-2.6s0.7-1.3,1.1-1.8c0.5-0.5,1-0.9,1.6-1.1c0.6-0.2,1.2-0.4,1.8-0.4
			c1.4,0,2.5,0.4,3.3,1.3c0.8,0.9,1.2,2.3,1.2,4.1c0,0.1,0,0.2,0,0.3c0,0.1,0,0.2,0,0.3h-7.9c0,1.4,0.4,2.4,1,3.2
			c0.6,0.7,1.6,1.1,3,1.1c0.8,0,1.4-0.1,1.8-0.2s0.8-0.3,1-0.4l0.3,1.2c-0.2,0.1-0.6,0.3-1.1,0.4s-1.2,0.2-2,0.2
			c-1,0-1.8-0.1-2.5-0.4s-1.3-0.7-1.7-1.2c-0.4-0.5-0.8-1.1-1-1.9C351.1,229,351,228.2,351,227.3z M359,226.4c0-1.2-0.3-2.1-0.8-2.7
			s-1.3-1-2.2-1c-0.5,0-1,0.1-1.4,0.3c-0.4,0.2-0.7,0.5-1,0.8c-0.3,0.3-0.5,0.7-0.7,1.2c-0.2,0.4-0.3,0.9-0.3,1.4H359z"/>
		<path class="st1" d="M367.4,221.5c0.5,0,0.9,0,1.3,0.1c0.4,0.1,0.7,0.1,0.9,0.2l-0.3,1.2c-0.1-0.1-0.4-0.1-0.7-0.2
			c-0.4-0.1-0.8-0.1-1.4-0.1c-0.6,0-1.1,0-1.5,0.1s-0.6,0.2-0.7,0.2v9.8h-1.4v-10.7c0.4-0.2,0.9-0.3,1.5-0.5
			C365.7,221.6,366.5,221.5,367.4,221.5z"/>
		<path class="st1" d="M375.1,221.5c0.7,0,1.4,0.1,1.9,0.3s0.9,0.5,1.2,0.9c0.3,0.4,0.5,0.8,0.7,1.3c0.1,0.5,0.2,1.1,0.2,1.6v7.1
			c-0.1,0-0.4,0.1-0.6,0.1c-0.3,0.1-0.6,0.1-1,0.2s-0.8,0.1-1.2,0.1c-0.4,0-0.9,0.1-1.4,0.1c-0.6,0-1.1-0.1-1.6-0.2
			c-0.5-0.1-0.9-0.3-1.3-0.6c-0.4-0.3-0.7-0.6-0.9-1.1c-0.2-0.4-0.3-1-0.3-1.6c0-0.6,0.1-1.1,0.3-1.6c0.2-0.4,0.6-0.8,1-1.1
			c0.4-0.3,0.9-0.5,1.5-0.6c0.6-0.1,1.2-0.2,1.9-0.2c0.2,0,0.4,0,0.6,0c0.2,0,0.4,0.1,0.7,0.1c0.2,0,0.4,0.1,0.5,0.1
			c0.2,0,0.3,0.1,0.3,0.1v-0.7c0-0.4,0-0.8-0.1-1.1c-0.1-0.4-0.2-0.7-0.4-1c-0.2-0.3-0.5-0.5-0.8-0.7c-0.4-0.2-0.8-0.3-1.4-0.3
			c-0.8,0-1.4,0.1-1.8,0.2c-0.4,0.1-0.7,0.2-0.9,0.3l-0.2-1.2c0.2-0.1,0.6-0.2,1.1-0.3C373.7,221.5,374.4,221.5,375.1,221.5z
			 M375.2,231.9c0.5,0,1,0,1.4-0.1s0.8-0.1,1.1-0.1v-3.9c-0.2-0.1-0.4-0.1-0.8-0.2c-0.3-0.1-0.8-0.1-1.4-0.1c-0.3,0-0.7,0-1.1,0.1
			s-0.7,0.2-1,0.3c-0.3,0.2-0.6,0.4-0.8,0.7c-0.2,0.3-0.3,0.7-0.3,1.1c0,0.4,0.1,0.8,0.2,1.1c0.1,0.3,0.3,0.5,0.6,0.7
			c0.3,0.2,0.6,0.3,0.9,0.4C374.4,231.9,374.8,231.9,375.2,231.9z"/>
		<path class="st1" d="M382.7,222.1c0.4-0.1,1-0.2,1.7-0.4c0.7-0.1,1.6-0.2,2.6-0.2c0.9,0,1.6,0.1,2.1,0.4c0.6,0.2,1,0.6,1.4,1.1
			s0.6,1,0.7,1.6c0.1,0.6,0.2,1.3,0.2,2.1v6.3H390v-5.8c0-0.8-0.1-1.5-0.2-2c-0.1-0.5-0.3-1-0.5-1.3c-0.3-0.3-0.6-0.6-1-0.7
			s-0.9-0.2-1.6-0.2c-0.7,0-1.2,0-1.7,0.1c-0.5,0.1-0.8,0.1-0.9,0.2v9.8h-1.4V222.1z"/>
		<path class="st1" d="M396.8,218.4c0,0.3-0.1,0.6-0.3,0.8c-0.2,0.2-0.4,0.3-0.7,0.3c-0.3,0-0.5-0.1-0.7-0.3s-0.3-0.5-0.3-0.8
			c0-0.3,0.1-0.6,0.3-0.8c0.2-0.2,0.4-0.3,0.7-0.3c0.3,0,0.5,0.1,0.7,0.3C396.7,217.8,396.8,218,396.8,218.4z M396.5,233h-1.4v-11.2
			h1.4V233z"/>
		<path class="st1" d="M399.5,227.3c0-1,0.1-1.8,0.4-2.6s0.7-1.3,1.1-1.8c0.5-0.5,1-0.9,1.6-1.1c0.6-0.2,1.2-0.4,1.8-0.4
			c1.4,0,2.5,0.4,3.3,1.3c0.8,0.9,1.2,2.3,1.2,4.1c0,0.1,0,0.2,0,0.3c0,0.1,0,0.2,0,0.3H401c0,1.4,0.4,2.4,1,3.2
			c0.6,0.7,1.6,1.1,3,1.1c0.8,0,1.4-0.1,1.8-0.2s0.8-0.3,1-0.4l0.3,1.2c-0.2,0.1-0.6,0.3-1.1,0.4s-1.2,0.2-2,0.2
			c-1,0-1.8-0.1-2.5-0.4s-1.3-0.7-1.7-1.2c-0.4-0.5-0.8-1.1-1-1.9C399.6,229,399.5,228.2,399.5,227.3z M407.5,226.4
			c0-1.2-0.3-2.1-0.8-2.7s-1.3-1-2.2-1c-0.5,0-1,0.1-1.4,0.3c-0.4,0.2-0.7,0.5-1,0.8c-0.3,0.3-0.5,0.7-0.7,1.2
			c-0.2,0.4-0.3,0.9-0.3,1.4H407.5z"/>
	</g>
	<circle class="st0" cx="550" cy="158" r="7"/>
	<g>
		<g>
			<path class="st1" d="M458,108.1c-0.1,0.1-0.2,0.1-0.4,0.2s-0.3,0.2-0.6,0.3c-0.2,0.1-0.5,0.2-0.8,0.2c-0.3,0.1-0.6,0.1-1,0.1
				c-0.6,0-1.2-0.1-1.7-0.3s-1-0.5-1.4-0.9c-0.4-0.4-0.7-0.9-1-1.5c-0.2-0.6-0.4-1.4-0.4-2.3c0-0.7,0.1-1.4,0.3-2
				c0.2-0.6,0.5-1.1,0.9-1.6c0.4-0.4,0.9-0.8,1.5-1.1c0.6-0.3,1.3-0.4,2-0.4c0.9,0,1.7,0.1,2.3,0.2c0.6,0.1,1,0.2,1.4,0.4v9.2
				c0,1.5-0.4,2.6-1.2,3.2c-0.8,0.6-2,1-3.5,1c-0.7,0-1.2,0-1.8-0.1c-0.5-0.1-1-0.2-1.4-0.3l0.3-1.2c0.3,0.1,0.7,0.3,1.3,0.4
				c0.5,0.1,1.1,0.2,1.6,0.2c1.2,0,2.1-0.2,2.6-0.7c0.5-0.5,0.8-1.3,0.8-2.4V108.1z M458,100.4c-0.2-0.1-0.5-0.1-0.9-0.2
				s-0.9-0.1-1.5-0.1c-0.5,0-1,0.1-1.5,0.3c-0.4,0.2-0.8,0.5-1.1,0.8c-0.3,0.3-0.5,0.8-0.7,1.2c-0.2,0.5-0.2,1-0.2,1.6
				c0,0.7,0.1,1.2,0.3,1.7c0.2,0.5,0.4,0.9,0.7,1.2c0.3,0.3,0.6,0.5,1,0.7c0.4,0.1,0.8,0.2,1.2,0.2c0.6,0,1.1-0.1,1.6-0.3
				c0.5-0.2,0.8-0.4,1.1-0.6V100.4z"/>
			<path class="st1" d="M462,104.2c0-0.9,0.1-1.7,0.4-2.3c0.3-0.7,0.6-1.2,1-1.6c0.4-0.4,0.9-0.8,1.4-1s1.1-0.3,1.6-0.3
				c1.2,0,2.2,0.4,3,1.2c0.7,0.8,1.1,2,1.1,3.7c0,0.1,0,0.2,0,0.3c0,0.1,0,0.2,0,0.3h-7.1c0,1.2,0.3,2.2,0.9,2.8s1.5,1,2.7,1
				c0.7,0,1.2-0.1,1.6-0.2c0.4-0.1,0.7-0.2,0.9-0.3l0.2,1.1c-0.2,0.1-0.5,0.2-1,0.4c-0.5,0.1-1.1,0.2-1.8,0.2
				c-0.9,0-1.6-0.1-2.3-0.4c-0.6-0.3-1.1-0.6-1.5-1.1c-0.4-0.5-0.7-1-0.9-1.7C462.1,105.7,462,105,462,104.2z M469.1,103.4
				c0-1.1-0.3-1.9-0.7-2.5s-1.1-0.9-2-0.9c-0.5,0-0.9,0.1-1.2,0.3c-0.4,0.2-0.7,0.4-0.9,0.7c-0.3,0.3-0.5,0.7-0.6,1.1
				c-0.1,0.4-0.2,0.8-0.3,1.3H469.1z"/>
			<path class="st1" d="M473.3,99.6c0.4-0.1,0.9-0.2,1.5-0.4c0.6-0.1,1.4-0.2,2.3-0.2c0.8,0,1.4,0.1,1.9,0.3s0.9,0.5,1.2,0.9
				s0.5,0.9,0.7,1.5s0.2,1.2,0.2,1.9v5.6h-1.3v-5.2c0-0.7,0-1.3-0.1-1.8s-0.3-0.9-0.5-1.2c-0.2-0.3-0.5-0.5-0.9-0.7
				c-0.4-0.1-0.8-0.2-1.4-0.2c-0.6,0-1.1,0-1.6,0.1c-0.4,0.1-0.7,0.1-0.8,0.2v8.9h-1.3V99.6z"/>
			<path class="st1" d="M483.8,104.2c0-0.9,0.1-1.7,0.4-2.3c0.3-0.7,0.6-1.2,1-1.6c0.4-0.4,0.9-0.8,1.4-1s1.1-0.3,1.6-0.3
				c1.2,0,2.2,0.4,3,1.2c0.7,0.8,1.1,2,1.1,3.7c0,0.1,0,0.2,0,0.3c0,0.1,0,0.2,0,0.3h-7.1c0,1.2,0.3,2.2,0.9,2.8s1.5,1,2.7,1
				c0.7,0,1.2-0.1,1.6-0.2c0.4-0.1,0.7-0.2,0.9-0.3l0.2,1.1c-0.2,0.1-0.5,0.2-1,0.4c-0.5,0.1-1.1,0.2-1.8,0.2
				c-0.9,0-1.6-0.1-2.3-0.4c-0.6-0.3-1.1-0.6-1.5-1.1c-0.4-0.5-0.7-1-0.9-1.7C483.8,105.7,483.8,105,483.8,104.2z M490.9,103.4
				c0-1.1-0.3-1.9-0.7-2.5s-1.1-0.9-2-0.9c-0.5,0-0.9,0.1-1.2,0.3c-0.4,0.2-0.7,0.4-0.9,0.7c-0.3,0.3-0.5,0.7-0.6,1.1
				c-0.1,0.4-0.2,0.8-0.3,1.3H490.9z"/>
			<path class="st1" d="M498.5,99c0.4,0,0.8,0,1.2,0.1c0.4,0.1,0.6,0.1,0.8,0.2l-0.3,1.1c-0.1-0.1-0.3-0.1-0.6-0.2
				c-0.3-0.1-0.7-0.1-1.3-0.1c-0.5,0-1,0-1.3,0.1c-0.3,0.1-0.5,0.1-0.7,0.2v8.8H495v-9.6c0.3-0.1,0.8-0.3,1.3-0.4S497.7,99,498.5,99
				z"/>
			<path class="st1" d="M510.9,104.3c0,0.8-0.1,1.5-0.3,2.2c-0.2,0.6-0.5,1.2-1,1.7c-0.4,0.5-0.9,0.8-1.5,1.1
				c-0.6,0.3-1.2,0.4-1.9,0.4c-0.7,0-1.3-0.1-1.9-0.4c-0.6-0.3-1-0.6-1.5-1.1c-0.4-0.5-0.7-1-1-1.7c-0.2-0.7-0.3-1.4-0.3-2.2
				c0-0.8,0.1-1.5,0.3-2.2c0.2-0.7,0.5-1.2,1-1.7c0.4-0.5,0.9-0.8,1.5-1.1c0.6-0.3,1.2-0.4,1.9-0.4c0.7,0,1.3,0.1,1.9,0.4
				c0.6,0.3,1,0.6,1.5,1.1c0.4,0.5,0.7,1,1,1.7C510.8,102.7,510.9,103.5,510.9,104.3z M509.6,104.3c0-1.3-0.3-2.3-0.9-3
				c-0.6-0.7-1.4-1.1-2.4-1.1c-1,0-1.8,0.4-2.4,1.1c-0.6,0.7-0.9,1.8-0.9,3c0,1.3,0.3,2.3,0.9,3s1.4,1.1,2.4,1.1
				c1,0,1.8-0.4,2.4-1.1S509.6,105.5,509.6,104.3z"/>
			<path class="st1" d="M516.7,107.9c0.3-0.6,0.6-1.2,0.8-1.9s0.6-1.5,0.8-2.2c0.3-0.8,0.5-1.6,0.7-2.3s0.4-1.5,0.6-2.2h1.3
				c-0.2,0.9-0.5,1.8-0.8,2.7c-0.3,0.9-0.6,1.8-0.9,2.6c-0.3,0.9-0.7,1.7-1,2.5s-0.7,1.5-1,2.2h-1.2c-0.3-0.7-0.7-1.4-1-2.2
				s-0.7-1.6-1-2.5c-0.3-0.9-0.6-1.7-0.9-2.6s-0.5-1.8-0.8-2.7h1.3c0.2,0.7,0.3,1.4,0.6,2.2c0.2,0.8,0.5,1.6,0.7,2.3
				c0.3,0.8,0.5,1.5,0.8,2.2S516.5,107.4,516.7,107.9z"/>
			<path class="st1" d="M526.1,99c0.7,0,1.2,0.1,1.7,0.3c0.5,0.2,0.8,0.4,1.1,0.8c0.3,0.3,0.5,0.7,0.6,1.2c0.1,0.5,0.2,0.9,0.2,1.5
				v6.4c-0.1,0-0.3,0.1-0.6,0.1c-0.2,0-0.5,0.1-0.9,0.1c-0.3,0.1-0.7,0.1-1.1,0.1c-0.4,0-0.8,0-1.2,0c-0.5,0-1-0.1-1.5-0.2
				c-0.4-0.1-0.8-0.3-1.2-0.6c-0.3-0.3-0.6-0.6-0.8-1c-0.2-0.4-0.3-0.9-0.3-1.5c0-0.5,0.1-1,0.3-1.4s0.5-0.7,0.9-1s0.8-0.4,1.3-0.6
				c0.5-0.1,1.1-0.2,1.7-0.2c0.2,0,0.4,0,0.6,0c0.2,0,0.4,0,0.6,0.1c0.2,0,0.4,0.1,0.5,0.1c0.1,0,0.2,0.1,0.3,0.1v-0.6
				c0-0.4,0-0.7-0.1-1c-0.1-0.3-0.2-0.6-0.3-0.9s-0.4-0.5-0.7-0.6s-0.7-0.2-1.3-0.2c-0.7,0-1.3,0.1-1.7,0.2
				c-0.4,0.1-0.6,0.2-0.8,0.3l-0.2-1.1c0.2-0.1,0.6-0.2,1-0.3C524.9,99,525.5,99,526.1,99z M526.2,108.4c0.5,0,0.9,0,1.3,0
				c0.4,0,0.7-0.1,0.9-0.1v-3.5c-0.1-0.1-0.4-0.1-0.7-0.2c-0.3-0.1-0.7-0.1-1.3-0.1c-0.3,0-0.6,0-1,0.1c-0.3,0-0.7,0.1-0.9,0.3
				s-0.5,0.4-0.7,0.6c-0.2,0.3-0.3,0.6-0.3,1c0,0.4,0.1,0.7,0.2,1c0.1,0.3,0.3,0.5,0.5,0.6c0.2,0.2,0.5,0.3,0.8,0.3
				C525.5,108.3,525.8,108.4,526.2,108.4z"/>
			<path class="st1" d="M533,99.6c0.4-0.1,0.9-0.2,1.5-0.4c0.6-0.1,1.4-0.2,2.3-0.2c0.8,0,1.4,0.1,1.9,0.3s0.9,0.5,1.2,0.9
				s0.5,0.9,0.7,1.5s0.2,1.2,0.2,1.9v5.6h-1.3v-5.2c0-0.7,0-1.3-0.1-1.8s-0.3-0.9-0.5-1.2c-0.2-0.3-0.5-0.5-0.9-0.7
				c-0.4-0.1-0.8-0.2-1.4-0.2c-0.6,0-1.1,0-1.6,0.1c-0.4,0.1-0.7,0.1-0.8,0.2v8.9H533V99.6z"/>
			<path class="st1" d="M545.6,96.2c0,0.3-0.1,0.5-0.3,0.7c-0.2,0.2-0.4,0.3-0.7,0.3c-0.3,0-0.5-0.1-0.7-0.3
				c-0.2-0.2-0.3-0.4-0.3-0.7c0-0.3,0.1-0.5,0.3-0.7c0.2-0.2,0.4-0.3,0.7-0.3c0.3,0,0.5,0.1,0.7,0.3
				C545.5,95.6,545.6,95.9,545.6,96.2z M545.3,109.3h-1.3V99.2h1.3V109.3z"/>
			<path class="st1" d="M548.1,104.2c0-0.9,0.1-1.7,0.4-2.3c0.3-0.7,0.6-1.2,1-1.6c0.4-0.4,0.9-0.8,1.4-1s1.1-0.3,1.6-0.3
				c1.2,0,2.2,0.4,3,1.2c0.7,0.8,1.1,2,1.1,3.7c0,0.1,0,0.2,0,0.3c0,0.1,0,0.2,0,0.3h-7.1c0,1.2,0.3,2.2,0.9,2.8s1.5,1,2.7,1
				c0.7,0,1.2-0.1,1.6-0.2c0.4-0.1,0.7-0.2,0.9-0.3l0.2,1.1c-0.2,0.1-0.5,0.2-1,0.4c-0.5,0.1-1.1,0.2-1.8,0.2
				c-0.9,0-1.6-0.1-2.3-0.4c-0.6-0.3-1.1-0.6-1.5-1.1c-0.4-0.5-0.7-1-0.9-1.7C548.2,105.7,548.1,105,548.1,104.2z M555.2,103.4
				c0-1.1-0.3-1.9-0.7-2.5s-1.1-0.9-2-0.9c-0.5,0-0.9,0.1-1.2,0.3c-0.4,0.2-0.7,0.4-0.9,0.7c-0.3,0.3-0.5,0.7-0.6,1.1
				c-0.1,0.4-0.2,0.8-0.3,1.3H555.2z"/>
			<path class="st1" d="M454.4,131.3c0.3-0.6,0.6-1.2,0.8-1.9s0.6-1.5,0.8-2.2c0.3-0.8,0.5-1.6,0.7-2.3s0.4-1.5,0.6-2.2h1.3
				c-0.2,0.9-0.5,1.8-0.8,2.7c-0.3,0.9-0.6,1.8-0.9,2.6c-0.3,0.9-0.7,1.7-1,2.5s-0.7,1.5-1,2.2h-1.2c-0.3-0.7-0.7-1.4-1-2.2
				s-0.7-1.6-1-2.5c-0.3-0.9-0.6-1.7-0.9-2.6s-0.5-1.8-0.8-2.7h1.3c0.2,0.7,0.3,1.4,0.6,2.2c0.2,0.8,0.5,1.6,0.7,2.3
				c0.3,0.8,0.5,1.5,0.8,2.2S454.2,130.8,454.4,131.3z"/>
			<path class="st1" d="M467,123.6c-0.3,0.3-0.7,0.8-1.2,1.4c-0.5,0.6-1,1.3-1.5,2c-0.5,0.7-1.1,1.5-1.6,2.3c-0.5,0.8-1,1.6-1.4,2.3
				h5.9v1.1h-7.4v-0.9c0.3-0.6,0.8-1.3,1.3-2.1s1-1.5,1.6-2.3c0.5-0.7,1.1-1.4,1.6-2.1c0.5-0.7,0.9-1.2,1.3-1.6h-5.4v-1.1h6.9V123.6
				z"/>
			<path class="st1" d="M478.1,127.7c0,0.8-0.1,1.5-0.3,2.2c-0.2,0.6-0.5,1.2-1,1.7c-0.4,0.5-0.9,0.8-1.5,1.1
				c-0.6,0.3-1.2,0.4-1.9,0.4c-0.7,0-1.3-0.1-1.9-0.4c-0.6-0.3-1-0.6-1.5-1.1c-0.4-0.5-0.7-1-1-1.7c-0.2-0.7-0.3-1.4-0.3-2.2
				c0-0.8,0.1-1.5,0.3-2.2c0.2-0.7,0.5-1.2,1-1.7c0.4-0.5,0.9-0.8,1.5-1.1c0.6-0.3,1.2-0.4,1.9-0.4c0.7,0,1.3,0.1,1.9,0.4
				c0.6,0.3,1,0.6,1.5,1.1c0.4,0.5,0.7,1,1,1.7C477.9,126.1,478.1,126.9,478.1,127.7z M476.7,127.7c0-1.3-0.3-2.3-0.9-3
				c-0.6-0.7-1.4-1.1-2.4-1.1c-1,0-1.8,0.4-2.4,1.1c-0.6,0.7-0.9,1.8-0.9,3c0,1.3,0.3,2.3,0.9,3s1.4,1.1,2.4,1.1
				c1,0,1.8-0.4,2.4-1.1S476.7,128.9,476.7,127.7z"/>
			<path class="st1" d="M484.2,122.4c0.4,0,0.8,0,1.2,0.1c0.4,0.1,0.6,0.1,0.8,0.2l-0.3,1.1c-0.1-0.1-0.3-0.1-0.6-0.2
				c-0.3-0.1-0.7-0.1-1.3-0.1c-0.5,0-1,0-1.3,0.1c-0.3,0.1-0.5,0.1-0.7,0.2v8.8h-1.3v-9.6c0.3-0.1,0.8-0.3,1.3-0.4
				S483.4,122.4,484.2,122.4z"/>
			<path class="st1" d="M495.8,132.3c-0.4,0.1-0.9,0.2-1.5,0.4s-1.4,0.2-2.3,0.2c-0.8,0-1.4-0.1-1.9-0.3c-0.5-0.2-0.9-0.5-1.2-0.9
				c-0.3-0.4-0.5-0.9-0.7-1.5c-0.1-0.6-0.2-1.2-0.2-1.9v-5.7h1.3v5.2c0,0.7,0.1,1.3,0.2,1.8c0.1,0.5,0.3,0.9,0.5,1.2
				c0.2,0.3,0.5,0.5,0.9,0.7c0.4,0.1,0.8,0.2,1.4,0.2c0.6,0,1.1,0,1.6-0.1c0.4-0.1,0.7-0.1,0.8-0.2v-8.9h1.3V132.3z"/>
		</g>
	</g>
	<g>
		<g>
			<path class="st1" d="M562.3,258.2c0.3-0.6,0.6-1.3,0.9-2.1s0.6-1.6,0.9-2.5c0.3-0.9,0.6-1.7,0.8-2.6s0.5-1.7,0.6-2.5h1.4
				c-0.3,1-0.6,2-0.9,3s-0.7,2-1,2.9s-0.7,1.9-1.1,2.8c-0.4,0.9-0.8,1.7-1.1,2.5h-1.3c-0.4-0.8-0.8-1.6-1.1-2.5
				c-0.4-0.9-0.7-1.8-1.1-2.8c-0.4-1-0.7-1.9-1-2.9c-0.3-1-0.6-2-0.9-3h1.5c0.2,0.8,0.4,1.6,0.6,2.5s0.5,1.7,0.8,2.6
				c0.3,0.9,0.6,1.7,0.9,2.5S562,257.6,562.3,258.2z"/>
			<path class="st1" d="M572.7,260c-0.5-0.9-0.9-1.8-1.4-2.8c-0.4-1-0.9-1.9-1.2-2.9s-0.7-2-1.1-2.9s-0.6-1.9-0.8-2.9h1.5
				c0.2,0.7,0.4,1.4,0.6,2.2c0.2,0.8,0.5,1.6,0.8,2.5c0.3,0.9,0.7,1.7,1,2.6s0.8,1.8,1.2,2.6c0.3-0.9,0.6-1.7,0.9-2.5
				c0.2-0.8,0.5-1.6,0.7-2.4c0.2-0.8,0.4-1.6,0.6-2.4s0.4-1.7,0.6-2.7h1.4c-0.5,2.1-1,4.1-1.6,6.1c-0.6,2-1.2,3.8-1.9,5.4
				c-0.3,0.7-0.6,1.2-0.8,1.7c-0.3,0.5-0.6,0.9-1,1.2c-0.4,0.3-0.8,0.5-1.2,0.7c-0.5,0.1-1,0.2-1.7,0.2c-0.4,0-0.7,0-1-0.1
				c-0.3-0.1-0.5-0.2-0.6-0.2l0.3-1.2c0.1,0,0.2,0.1,0.5,0.2s0.5,0.1,0.8,0.1c0.4,0,0.8,0,1.1-0.1s0.6-0.2,0.9-0.4
				c0.3-0.2,0.5-0.5,0.7-0.8C572.3,260.9,572.5,260.5,572.7,260z M576.2,244l-3.7,3l-0.7-0.8l3.4-3.3L576.2,244z"/>
			<path class="st1" d="M583.8,248.3c0.5,0,0.9,0,1.3,0.1c0.4,0.1,0.7,0.1,0.9,0.2l-0.3,1.2c-0.1-0.1-0.4-0.1-0.7-0.2
				c-0.4-0.1-0.8-0.1-1.4-0.1c-0.6,0-1.1,0-1.5,0.1s-0.6,0.2-0.7,0.2v9.8h-1.4V249c0.4-0.2,0.9-0.3,1.5-0.5
				C582.1,248.4,582.9,248.3,583.8,248.3z"/>
			<path class="st1" d="M597.6,254.1c0,0.9-0.1,1.7-0.4,2.4c-0.3,0.7-0.6,1.3-1.1,1.8c-0.5,0.5-1,0.9-1.6,1.2
				c-0.6,0.3-1.3,0.4-2.1,0.4s-1.4-0.1-2.1-0.4c-0.6-0.3-1.2-0.7-1.6-1.2c-0.5-0.5-0.8-1.1-1.1-1.8c-0.3-0.7-0.4-1.5-0.4-2.4
				s0.1-1.7,0.4-2.4c0.3-0.7,0.6-1.3,1.1-1.9c0.5-0.5,1-0.9,1.6-1.2c0.6-0.3,1.3-0.4,2.1-0.4s1.4,0.1,2.1,0.4
				c0.6,0.3,1.2,0.7,1.6,1.2c0.5,0.5,0.8,1.1,1.1,1.9S597.6,253.2,597.6,254.1z M596.1,254.1c0-1.4-0.3-2.5-1-3.4
				c-0.7-0.8-1.5-1.2-2.6-1.2c-1.1,0-2,0.4-2.6,1.2c-0.7,0.8-1,1.9-1,3.4s0.3,2.5,1,3.3c0.7,0.8,1.5,1.2,2.6,1.2
				c1.1,0,2-0.4,2.6-1.2C595.8,256.6,596.1,255.5,596.1,254.1z"/>
			<path class="st1" d="M602.1,249.2c0.2-0.2,0.6-0.4,1.2-0.6c0.5-0.2,1.2-0.3,1.9-0.3c0.8,0,1.5,0.1,2.2,0.4
				c0.6,0.3,1.2,0.7,1.6,1.2c0.4,0.5,0.8,1.1,1,1.9c0.2,0.7,0.3,1.5,0.3,2.4c0,0.9-0.1,1.7-0.4,2.5c-0.3,0.7-0.6,1.3-1.1,1.8
				c-0.5,0.5-1.1,0.9-1.7,1.2c-0.7,0.3-1.4,0.4-2.2,0.4c-1,0-1.8-0.1-2.5-0.2c-0.7-0.1-1.2-0.3-1.6-0.4v-16.2l1.4-0.3V249.2z
				 M602.1,258.4c0.2,0.1,0.5,0.1,1,0.2c0.4,0.1,1,0.1,1.7,0.1c1.2,0,2.2-0.4,2.9-1.2c0.7-0.8,1.1-1.9,1.1-3.4
				c0-0.6-0.1-1.2-0.2-1.8c-0.1-0.6-0.3-1-0.6-1.5c-0.3-0.4-0.7-0.7-1.1-1c-0.5-0.2-1.1-0.4-1.7-0.4c-0.3,0-0.7,0-1,0.1
				c-0.3,0.1-0.6,0.1-0.8,0.2c-0.3,0.1-0.5,0.2-0.7,0.3c-0.2,0.1-0.4,0.2-0.5,0.3V258.4z"/>
			<path class="st1" d="M616.7,248.2c0.7,0,1.4,0.1,1.9,0.3s0.9,0.5,1.2,0.9c0.3,0.4,0.5,0.8,0.7,1.3c0.1,0.5,0.2,1.1,0.2,1.6v7.1
				c-0.1,0-0.4,0.1-0.6,0.1c-0.3,0.1-0.6,0.1-1,0.2s-0.8,0.1-1.2,0.1c-0.4,0-0.9,0.1-1.4,0.1c-0.6,0-1.1-0.1-1.6-0.2
				c-0.5-0.1-0.9-0.3-1.3-0.6c-0.4-0.3-0.7-0.6-0.9-1.1c-0.2-0.4-0.3-1-0.3-1.6c0-0.6,0.1-1.1,0.3-1.6c0.2-0.4,0.6-0.8,1-1.1
				c0.4-0.3,0.9-0.5,1.5-0.6c0.6-0.1,1.2-0.2,1.9-0.2c0.2,0,0.4,0,0.6,0c0.2,0,0.4,0.1,0.7,0.1c0.2,0,0.4,0.1,0.5,0.1
				c0.2,0,0.3,0.1,0.3,0.1v-0.7c0-0.4,0-0.8-0.1-1.1c-0.1-0.4-0.2-0.7-0.4-1c-0.2-0.3-0.5-0.5-0.8-0.7c-0.4-0.2-0.8-0.3-1.4-0.3
				c-0.8,0-1.4,0.1-1.8,0.2c-0.4,0.1-0.7,0.2-0.9,0.3l-0.2-1.2c0.2-0.1,0.6-0.2,1.1-0.3C615.4,248.3,616,248.2,616.7,248.2z
				 M616.9,258.7c0.5,0,1,0,1.4-0.1s0.8-0.1,1.1-0.1v-3.9c-0.2-0.1-0.4-0.1-0.8-0.2c-0.3-0.1-0.8-0.1-1.4-0.1c-0.3,0-0.7,0-1.1,0.1
				s-0.7,0.2-1,0.3c-0.3,0.2-0.6,0.4-0.8,0.7c-0.2,0.3-0.3,0.7-0.3,1.1c0,0.4,0.1,0.8,0.2,1.1c0.1,0.3,0.3,0.5,0.6,0.7
				c0.3,0.2,0.6,0.3,0.9,0.4C616,258.7,616.4,258.7,616.9,258.7z"/>
		</g>
	</g>
	<path class="st2" d="M263.8,184.6c3.1,5.2,11,16.7,26,24.5c18.4,9.5,35.6,7.1,41.3,6.1"/>
	<path class="st2" d="M436.6,230.8c15.4,2.9,40.3,0.4,40.3-16.7c0-25.9-75.7-62.1-68.1-85.1c2.1-6.2,2-13.4,35.7-14.6"/>
	<path class="st2" d="M541.7,151.4c19,14.9,22,23.7,20.4,29.1c-4.1,14.2-39.6,5.3-62.2,28.6c-14.1,14.5-28.2,48.2-16.9,60.4
		c8.7,9.4,33.9,2.4,53.1-7.9"/>
</g>
<g>
	<path d="M391.6,504.1c-0.4-1-0.8-2-1.1-3s-0.7-1.9-1-2.8h-10.3c-0.4,0.9-0.7,1.8-1,2.8c-0.3,1-0.7,1.9-1.1,3H375
		c0.8-2.2,1.6-4.2,2.3-6.1c0.7-1.9,1.4-3.7,2.1-5.4s1.4-3.3,2-4.9c0.7-1.6,1.4-3.1,2.1-4.7h1.8c0.7,1.6,1.4,3.1,2.1,4.7
		c0.7,1.6,1.3,3.2,2,4.9c0.7,1.7,1.4,3.5,2.1,5.4c0.7,1.9,1.5,3.9,2.3,6.1H391.6z M384.3,485.4c-0.8,1.7-1.5,3.5-2.2,5.3
		s-1.5,3.7-2.2,5.8h9c-0.8-2.1-1.5-4-2.3-5.8C385.8,488.9,385.1,487.2,384.3,485.4z"/>
	<path d="M400.7,504.4c-0.7,0-1.2-0.1-1.7-0.3c-0.5-0.2-0.9-0.4-1.2-0.7s-0.6-0.7-0.8-1.2c-0.2-0.5-0.3-1.1-0.3-1.9v-19.4l2-0.4
		v19.7c0,0.5,0,0.9,0.1,1.2s0.2,0.5,0.4,0.7c0.2,0.2,0.4,0.3,0.7,0.4c0.3,0.1,0.6,0.2,1,0.2L400.7,504.4z"/>
	<path d="M408.4,495.5c0.7,0.5,1.4,1.1,2.2,1.7c0.7,0.7,1.4,1.4,2.2,2.1c0.7,0.8,1.4,1.6,2,2.4c0.6,0.8,1.2,1.6,1.6,2.3H414
		c-0.5-0.8-1-1.6-1.7-2.3c-0.6-0.8-1.3-1.5-2-2.2c-0.7-0.7-1.4-1.3-2.1-1.9c-0.7-0.6-1.3-1-1.8-1.3v7.6h-2v-23.2l2-0.4v14.6
		c0.4-0.4,0.9-0.9,1.6-1.5c0.6-0.6,1.3-1.3,1.9-1.9c0.7-0.6,1.3-1.2,1.9-1.8c0.6-0.6,1.1-1.1,1.5-1.6h2.4c-0.5,0.5-1,1-1.6,1.6
		c-0.6,0.6-1.2,1.2-1.9,1.9s-1.3,1.3-1.9,1.9C409.6,494.4,409,495,408.4,495.5z"/>
	<path d="M432.3,496.3c0,1.2-0.2,2.4-0.5,3.4c-0.4,1-0.8,1.9-1.5,2.6c-0.6,0.7-1.4,1.3-2.3,1.7s-1.8,0.6-2.9,0.6s-2-0.2-2.9-0.6
		s-1.6-0.9-2.3-1.7s-1.1-1.6-1.5-2.6c-0.4-1-0.5-2.1-0.5-3.4s0.2-2.4,0.5-3.4c0.4-1,0.8-1.9,1.5-2.6s1.4-1.3,2.3-1.7
		c0.9-0.4,1.8-0.6,2.9-0.6s2,0.2,2.9,0.6c0.9,0.4,1.6,1,2.3,1.7c0.6,0.7,1.1,1.6,1.5,2.6C432.1,493.9,432.3,495,432.3,496.3z
		 M430.2,496.3c0-2-0.5-3.5-1.4-4.7s-2.1-1.7-3.7-1.7s-2.8,0.6-3.7,1.7c-0.9,1.2-1.4,2.7-1.4,4.7s0.5,3.5,1.4,4.7
		c0.9,1.2,2.1,1.7,3.7,1.7s2.8-0.6,3.7-1.7C429.8,499.8,430.2,498.2,430.2,496.3z"/>
	<path d="M436.6,504.1v-23.2l2-0.4v8.3c0.6-0.2,1.3-0.4,2-0.6c0.7-0.1,1.3-0.2,2-0.2c1.2,0,2.2,0.2,3,0.5c0.8,0.3,1.5,0.8,1.9,1.5
		c0.5,0.6,0.8,1.4,1,2.3c0.2,0.9,0.3,1.9,0.3,2.9v8.8h-2V496c0-1.1-0.1-2.1-0.2-2.8c-0.2-0.8-0.4-1.4-0.8-1.9
		c-0.4-0.5-0.8-0.8-1.4-1c-0.6-0.2-1.3-0.3-2.2-0.3c-0.3,0-0.7,0-1.1,0.1s-0.8,0.1-1.1,0.2s-0.7,0.1-0.9,0.2
		c-0.3,0.1-0.5,0.1-0.5,0.2v13.5H436.6z"/>
	<path d="M467.2,496.3c0,1.2-0.2,2.4-0.5,3.4c-0.4,1-0.8,1.9-1.5,2.6c-0.6,0.7-1.4,1.3-2.3,1.7s-1.8,0.6-2.9,0.6s-2-0.2-2.9-0.6
		s-1.6-0.9-2.3-1.7s-1.1-1.6-1.5-2.6c-0.4-1-0.5-2.1-0.5-3.4s0.2-2.4,0.5-3.4c0.4-1,0.8-1.9,1.5-2.6s1.4-1.3,2.3-1.7
		c0.9-0.4,1.8-0.6,2.9-0.6s2,0.2,2.9,0.6c0.9,0.4,1.6,1,2.3,1.7c0.6,0.7,1.1,1.6,1.5,2.6C467,493.9,467.2,495,467.2,496.3z
		 M465.1,496.3c0-2-0.5-3.5-1.4-4.7s-2.1-1.7-3.7-1.7s-2.8,0.6-3.7,1.7c-0.9,1.2-1.4,2.7-1.4,4.7s0.5,3.5,1.4,4.7
		c0.9,1.2,2.1,1.7,3.7,1.7s2.8-0.6,3.7-1.7C464.7,499.8,465.1,498.2,465.1,496.3z"/>
	<path d="M475.5,504.4c-0.7,0-1.2-0.1-1.7-0.3c-0.5-0.2-0.9-0.4-1.2-0.7s-0.6-0.7-0.8-1.2c-0.2-0.5-0.3-1.1-0.3-1.9v-19.4l2-0.4
		v19.7c0,0.5,0,0.9,0.1,1.2s0.2,0.5,0.4,0.7c0.2,0.2,0.4,0.3,0.7,0.4c0.3,0.1,0.6,0.2,1,0.2L475.5,504.4z"/>
</g>
<g>
	<path d="M382.7,531.7c3,0,5.2,0.6,6.6,1.7s2.2,2.7,2.2,4.8c0,1.2-0.2,2.2-0.6,3c-0.4,0.8-1,1.5-1.8,2c-0.8,0.5-1.8,0.9-2.9,1.1
		s-2.4,0.3-3.9,0.3h-2.9v8.1h-2.1v-20.6c0.7-0.2,1.6-0.3,2.6-0.4C381,531.7,381.9,531.7,382.7,531.7z M382.8,533.5
		c-0.8,0-1.4,0-2,0.1c-0.5,0-1,0.1-1.4,0.1v9.3h2.6c1.1,0,2.1-0.1,3-0.2c0.9-0.1,1.7-0.4,2.3-0.7c0.6-0.4,1.1-0.8,1.5-1.5
		s0.5-1.4,0.5-2.4c0-0.9-0.2-1.7-0.6-2.3c-0.4-0.6-0.9-1.1-1.5-1.4c-0.6-0.4-1.3-0.6-2.1-0.7C384.4,533.5,383.6,533.5,382.8,533.5z"
		/>
	<path d="M408.8,531.9h2.1v21h-2.1v-10.1h-11.4v10.1h-2.1v-21h2.1v9.1h11.4V531.9z"/>
</g>
<g>
	<path d="M394.5,590.1c0,1.8-0.3,3.4-0.8,4.8c-0.5,1.4-1.2,2.5-2.1,3.4c-0.9,0.9-1.9,1.6-3.1,2.1c-1.2,0.5-2.5,0.7-3.8,0.7
		c-1.3,0-2.6-0.2-3.8-0.7c-1.2-0.5-2.2-1.2-3.1-2.1c-0.9-0.9-1.6-2.1-2.1-3.4c-0.5-1.4-0.8-3-0.8-4.8c0-1.8,0.3-3.4,0.8-4.7
		c0.5-1.4,1.2-2.5,2.1-3.4c0.9-0.9,1.9-1.6,3.1-2.1c1.2-0.5,2.5-0.7,3.8-0.7c1.3,0,2.6,0.2,3.8,0.7c1.2,0.5,2.2,1.2,3.1,2.1
		c0.9,0.9,1.6,2.1,2.1,3.4C394.2,586.7,394.5,588.3,394.5,590.1z M392.3,590.1c0-1.4-0.2-2.7-0.5-3.8s-0.9-2.1-1.5-2.9
		c-0.7-0.8-1.5-1.4-2.4-1.8c-0.9-0.4-2-0.6-3.2-0.6s-2.2,0.2-3.2,0.6c-0.9,0.4-1.7,1-2.4,1.8c-0.7,0.8-1.2,1.7-1.5,2.9
		c-0.4,1.1-0.5,2.4-0.5,3.8c0,1.4,0.2,2.7,0.5,3.8c0.4,1.1,0.9,2.1,1.5,2.9c0.7,0.8,1.5,1.4,2.4,1.8s2,0.6,3.2,0.6s2.2-0.2,3.2-0.6
		s1.7-1,2.4-1.8c0.7-0.8,1.2-1.7,1.5-2.9C392.1,592.8,392.3,591.5,392.3,590.1z"/>
	<path d="M413.1,585.9c0,1.6-0.4,2.8-1.2,3.7s-1.9,1.6-3.3,2c0.3,0.4,0.7,1,1.3,1.6s1,1.4,1.6,2.3s1.1,1.7,1.6,2.6
		c0.5,0.9,1,1.7,1.3,2.5h-2.2c-0.4-0.8-0.9-1.6-1.4-2.4c-0.5-0.8-1-1.6-1.5-2.4c-0.5-0.8-1-1.5-1.5-2.1s-0.9-1.2-1.3-1.7
		c-0.6,0.1-1.3,0.1-1.9,0.1h-3.4v8.5h-2.1V580c0.7-0.2,1.6-0.3,2.6-0.4c1-0.1,1.9-0.1,2.7-0.1c2.9,0,5.1,0.5,6.5,1.6
		C412.4,582.2,413.1,583.8,413.1,585.9z M404.6,581.2c-0.8,0-1.4,0-2,0.1c-0.6,0-1.1,0.1-1.4,0.1v8.9h2.9c1,0,1.9,0,2.7-0.1
		c0.8-0.1,1.6-0.3,2.2-0.6s1.1-0.8,1.5-1.4c0.4-0.6,0.5-1.4,0.5-2.4c0-0.9-0.2-1.7-0.5-2.3c-0.4-0.6-0.8-1.1-1.4-1.4
		c-0.6-0.4-1.3-0.6-2-0.7C406.2,581.3,405.4,581.2,404.6,581.2z"/>
	<path d="M423.1,579.4c3,0,5.2,0.6,6.6,1.7s2.2,2.7,2.2,4.8c0,1.2-0.2,2.2-0.6,3c-0.4,0.8-1,1.5-1.8,2c-0.8,0.5-1.8,0.9-2.9,1.1
		s-2.4,0.3-3.9,0.3h-2.9v8.1h-2.1V580c0.7-0.2,1.6-0.3,2.6-0.4C421.4,579.5,422.3,579.4,423.1,579.4z M423.2,581.2
		c-0.8,0-1.4,0-2,0.1c-0.5,0-1,0.1-1.4,0.1v9.3h2.6c1.1,0,2.1-0.1,3-0.2c0.9-0.1,1.7-0.4,2.3-0.7c0.6-0.4,1.1-0.8,1.5-1.5
		s0.5-1.4,0.5-2.4c0-0.9-0.2-1.7-0.6-2.3c-0.4-0.6-0.9-1.1-1.5-1.4c-0.6-0.4-1.3-0.6-2.1-0.7C424.9,581.3,424.1,581.2,423.2,581.2z"
		/>
</g>
<g>
	<g>
		<path d="M377.4,652.2v-21h12v1.8h-9.9v7.4h8.8v1.8h-8.8v10H377.4z"/>
		<path d="M396.6,636.2c1,0,1.9,0.1,2.6,0.4c0.7,0.3,1.3,0.7,1.7,1.2c0.4,0.5,0.8,1.1,1,1.8s0.3,1.5,0.3,2.3v9.9
			c-0.2,0.1-0.5,0.1-0.9,0.2c-0.4,0.1-0.8,0.1-1.3,0.2c-0.5,0.1-1.1,0.1-1.7,0.2c-0.6,0-1.2,0.1-1.9,0.1c-0.8,0-1.6-0.1-2.3-0.3
			c-0.7-0.2-1.3-0.5-1.8-0.9s-0.9-0.9-1.2-1.5s-0.4-1.4-0.4-2.3c0-0.8,0.2-1.6,0.5-2.2s0.8-1.1,1.4-1.5c0.6-0.4,1.3-0.7,2.1-0.9
			s1.7-0.3,2.6-0.3c0.3,0,0.6,0,0.9,0s0.6,0.1,0.9,0.1c0.3,0.1,0.5,0.1,0.8,0.2c0.2,0.1,0.4,0.1,0.4,0.1v-1c0-0.5,0-1.1-0.1-1.6
			c-0.1-0.5-0.3-1-0.5-1.4s-0.7-0.7-1.2-1c-0.5-0.3-1.1-0.4-2-0.4c-1.2,0-2,0.1-2.6,0.2c-0.6,0.2-1,0.3-1.2,0.4l-0.3-1.7
			c0.3-0.2,0.9-0.3,1.6-0.5C394.7,636.2,395.6,636.2,396.6,636.2z M396.8,650.8c0.8,0,1.4,0,2-0.1c0.6,0,1.1-0.1,1.5-0.2V645
			c-0.2-0.1-0.6-0.2-1.1-0.3s-1.2-0.2-2-0.2c-0.5,0-1,0-1.5,0.1c-0.5,0.1-1,0.2-1.5,0.5c-0.4,0.2-0.8,0.6-1.1,1
			c-0.3,0.4-0.4,0.9-0.4,1.6c0,0.6,0.1,1.1,0.3,1.5s0.5,0.7,0.8,1c0.4,0.2,0.8,0.4,1.3,0.5C395.6,650.7,396.2,650.8,396.8,650.8z"/>
		<path d="M412.6,636.2c0.6,0,1.3,0.1,1.8,0.2c0.6,0.1,1,0.2,1.2,0.3l-0.4,1.7c-0.2-0.1-0.5-0.2-1-0.3c-0.5-0.1-1.1-0.1-2-0.1
			c-0.8,0-1.5,0.1-2,0.2s-0.9,0.2-1,0.3v13.7h-2v-15c0.5-0.2,1.2-0.5,2.1-0.7C410.3,636.3,411.3,636.2,412.6,636.2z"/>
		<path d="M420.6,637.5c0.3-0.3,0.9-0.5,1.7-0.8c0.8-0.3,1.7-0.4,2.7-0.4c1.1,0,2.1,0.2,3,0.6c0.9,0.4,1.6,1,2.2,1.7
			c0.6,0.7,1.1,1.6,1.4,2.6c0.3,1,0.5,2.1,0.5,3.3c0,1.3-0.2,2.4-0.6,3.4c-0.4,1-0.9,1.9-1.6,2.6c-0.7,0.7-1.5,1.2-2.4,1.6
			s-2,0.6-3.1,0.6c-1.4,0-2.5-0.1-3.5-0.3c-0.9-0.2-1.7-0.4-2.2-0.6V629l2-0.4V637.5z M420.6,650.4c0.3,0.1,0.8,0.2,1.4,0.3
			c0.6,0.1,1.4,0.1,2.4,0.1c1.7,0,3.1-0.6,4.1-1.7c1-1.1,1.5-2.7,1.5-4.7c0-0.9-0.1-1.7-0.3-2.5c-0.2-0.8-0.5-1.5-0.9-2
			s-0.9-1-1.6-1.4c-0.7-0.3-1.5-0.5-2.4-0.5c-0.5,0-0.9,0-1.3,0.1c-0.4,0.1-0.8,0.2-1.2,0.3s-0.7,0.3-1,0.5
			c-0.3,0.2-0.5,0.3-0.7,0.5V650.4z"/>
		<path d="M441.1,636.2c1,0,1.9,0.1,2.6,0.4c0.7,0.3,1.3,0.7,1.7,1.2c0.4,0.5,0.8,1.1,1,1.8s0.3,1.5,0.3,2.3v9.9
			c-0.2,0.1-0.5,0.1-0.9,0.2c-0.4,0.1-0.8,0.1-1.3,0.2c-0.5,0.1-1.1,0.1-1.7,0.2c-0.6,0-1.2,0.1-1.9,0.1c-0.8,0-1.6-0.1-2.3-0.3
			c-0.7-0.2-1.3-0.5-1.8-0.9s-0.9-0.9-1.2-1.5s-0.4-1.4-0.4-2.3c0-0.8,0.2-1.6,0.5-2.2s0.8-1.1,1.4-1.5c0.6-0.4,1.3-0.7,2.1-0.9
			s1.7-0.3,2.6-0.3c0.3,0,0.6,0,0.9,0s0.6,0.1,0.9,0.1c0.3,0.1,0.5,0.1,0.8,0.2c0.2,0.1,0.4,0.1,0.4,0.1v-1c0-0.5,0-1.1-0.1-1.6
			c-0.1-0.5-0.3-1-0.5-1.4s-0.7-0.7-1.2-1c-0.5-0.3-1.1-0.4-2-0.4c-1.2,0-2,0.1-2.6,0.2c-0.6,0.2-1,0.3-1.2,0.4l-0.3-1.7
			c0.3-0.2,0.9-0.3,1.6-0.5C439.2,636.2,440.1,636.2,441.1,636.2z M441.3,650.8c0.8,0,1.4,0,2-0.1c0.6,0,1.1-0.1,1.5-0.2V645
			c-0.2-0.1-0.6-0.2-1.1-0.3s-1.2-0.2-2-0.2c-0.5,0-1,0-1.5,0.1c-0.5,0.1-1,0.2-1.5,0.5c-0.4,0.2-0.8,0.6-1.1,1
			c-0.3,0.4-0.4,0.9-0.4,1.6c0,0.6,0.1,1.1,0.3,1.5s0.5,0.7,0.8,1c0.4,0.2,0.8,0.4,1.3,0.5C440.1,650.7,440.6,650.8,441.3,650.8z"/>
	</g>
</g>
<g id="LWPOLYLINE_58_">
	<polygon class="st3" points="273.9,619.2 273.3,618.4 272.6,617.7 272,617 271.4,616.3 270.7,615.5 270.1,614.8 269.4,614.1 
		269.1,613.7 268.8,613.4 268.1,612.6 267.5,611.9 266.8,611.2 266.2,610.5 265.5,609.7 264.9,609 264.2,608.3 263.6,607.6 
		262.9,606.9 262.3,606.1 261.6,605.4 260.9,604.7 260.3,604 259.6,603.3 258.9,602.5 258.3,601.8 257.6,601.1 256.9,600.4 
		256.3,599.7 255.6,599 254.9,598.2 254.2,597.5 252.9,596.1 252.2,595.4 251.6,594.7 250.2,593.2 249.6,592.5 248.9,591.8 
		248.3,591.1 247.6,590.4 246.9,589.6 246.3,588.9 245.6,588.2 245,587.5 244.3,586.8 243.7,586.1 243,585.3 242.4,584.6 
		241.7,583.9 241.1,583.2 240.4,582.5 239.8,581.8 239.1,581 238.5,580.3 237.8,579.6 237.2,578.9 236.6,578.2 235.9,577.5 
		234.6,576 234,575.3 233.4,574.6 232.7,573.9 232.1,573.1 232.9,572.7 233.6,572.3 234.4,571.9 235.2,571.5 235.4,571.4 
		235.6,571.3 236,571.1 236.7,570.7 237.5,570.3 238.3,569.9 239.1,569.5 239.9,569.1 240.6,568.7 241.4,568.3 242.2,567.9 
		243,567.5 244.6,566.7 245.4,566.2 246.2,565.8 247.8,565 249.4,564.2 250.2,563.8 251,563.4 251.2,563.3 251.4,563.2 251.8,563 
		252.6,562.6 254.2,561.8 254.4,561.7 254.6,561.6 255,561.4 255.9,561 256.7,560.6 257.5,560.2 259.1,559.4 259.3,559.3 
		259.5,559.2 259.9,559 260.7,558.6 261.2,558.4 261.6,558.2 262.4,557.8 262.8,557.6 263.2,557.4 264,557 264.4,556.8 264.8,556.6 
		265.6,556.2 266,555.9 266.4,555.7 267.2,555.3 267.6,555.1 268,554.9 268.7,554.5 269.1,554.3 269.5,554.1 270.3,553.7 
		270.5,553.6 270.7,553.5 271.1,553.3 271.9,552.9 272.7,552.5 273.5,552.1 274.2,551.7 275,551.2 275.8,550.8 276.6,550.4 
		277.3,550 278.1,549.6 278.9,549.2 279.6,548.8 280.4,548.3 281.2,547.9 281.9,547.5 282.7,547.1 283.7,547.6 284.7,548.1 
		285.7,548.6 286.7,549.1 287.7,549.6 288.7,550.1 290.7,551.1 291.7,551.6 292.7,552.1 294.7,553 296.7,554 297.7,554.5 298.7,555 
		299.7,555.5 300.7,556 302.6,557 304.6,557.9 305.6,558.4 306.5,558.9 307.5,559.4 308.5,559.9 309,560.1 309.4,560.4 310.4,560.9 
		311.4,561.4 312.3,561.9 313.3,562.4 313.8,562.6 314.3,562.8 314.2,564 314.1,565.2 313.9,567.6 313.8,569.9 313.6,572.3 
		313.3,577 313,581.7 312.3,591.1 312.2,593.5 312,595.8 311.9,597 311.9,598.2 311.8,599.3 311.7,600.5 311.1,600.8 310.5,601.1 
		310,601.4 309.4,601.7 308.3,602.3 307.1,602.9 306,603.4 304.8,604 303.7,604.6 302.5,605.2 301.3,605.8 300.2,606.3 299,606.9 
		297.8,607.5 296.7,608.1 295.5,608.7 294.3,609.2 293.1,609.8 291.9,610.4 290.8,611 289.6,611.6 288.4,612.1 287.2,612.7 
		286,613.3 284.8,613.9 283.6,614.5 282.4,615.1 281.2,615.6 278.8,616.8 277.6,617.4 276.3,618 275.1,618.6 	"/>
</g>
<g id="LWPOLYLINE_57_">
	<path class="st3" d="M177,568.4l0.1,0.1l0.1,0.1l0.2,0.2l0.2,0.2l0.1,0.1l0.1,0.1c0,0,0.1,0.1,0.1,0.1l0.1,0.1l0.1,0.1l0.1,0.1
		l0.1,0.1l0.1,0.1l0.1,0.1l0.1,0.1l0.1,0.1l0.1,0.1l0.1,0.1l0.1,0.1l0.2,0.2l0.2,0.2l0.2,0.2l0.2,0.2l0.1,0.1l0.1,0.1l0.1,0.1
		l0.1,0.1l0.1,0.1l0.1,0.1l-0.2,0.4l-0.2,0.4l-0.2,0.4l-0.2,0.4l-0.2,0.4l-0.2,0.4l-0.2,0.4l-0.2,0.4l-0.2,0.4l-0.2,0.4l-0.3,0.9
		l-0.3,0.9l-0.3,0.9l-0.3,0.9l-0.3,0.9l-0.7,1.7l-1.3,3.5l-0.7,1.7l-0.7,1.7l-0.7,1.7l-0.7,1.8l-0.6,1.7l-0.6,1.8l-1.3,3.5l-0.6,1.7
		l-0.6,1.8l-1.3,3.5l-1.3,3.5l-0.6,1.8l-0.6,1.8l-1.3,3.5l-0.6,1.8l-0.6,1.8l-0.3,0.9L162,623l-0.3,0.9l-0.3,0.9l-1.3,3.5l-2.6,0
		l-2.6,0l-5.2,0l-2.6,0l-2.6,0l-5.2,0.1l-5.2,0l-5.2,0.1l-5.2,0.1l-2.6,0l-2.6,0l-0.7-1.8l-0.7-1.8l-0.4-0.9l-0.4-0.9l-0.7-1.8
		l-0.7-1.8l-0.7-1.8l-0.7-1.8l-0.7-1.8l-0.7-1.8l-0.7-1.8l-0.7-1.8l-0.7-1.7l-0.7-1.8l-0.7-1.7l-0.7-1.7l-0.7-1.7l-0.4-0.9l-0.4-0.9
		l-0.8-1.7l-0.8-1.7l-0.4-0.9l-0.4-0.9l-0.8-1.7l-0.8-1.7l-0.8-1.7l-0.8-1.7l-0.8-1.7l-0.8-1.7l-1.5-3.5L97,578l-0.8-1.7l-0.8-1.7
		l-0.8-1.7l2.7-0.1l2.6-0.1l1.3-0.1l0.7,0l0.7,0l1.3-0.1l0.7,0l0.7,0l1.3-0.1l0.7,0l0.7,0l1.3-0.1l0.7,0l0.7,0l2.6-0.1l1.3-0.1
		l0.7,0l0.3,0l0.3,0l5.2-0.3l5.2-0.3l5.1-0.3l5.1-0.3l0.6,0l0.6,0l1.3-0.1l2.5-0.1l5.1-0.3l5.1-0.3l5.1-0.3l5.1-0.3l2.5-0.1l2.6-0.1
		l2.6-0.1l2.6-0.1l1.3-0.1l1.3-0.1l1.3-0.1L177,568.4z"/>
</g>
<polyline class="st3" points="233.1,486.8 233.8,488.3 234.4,489.8 232.7,490.6 231.1,491.4 230.8,491.5 230.6,491.6 230.2,491.7 
	229.4,492.1 228.6,492.5 227.7,492.9 226.1,493.7 224.4,494.5 223.6,494.8 222.8,495.2 221.2,496 220.3,496.4 219.5,496.8 
	218.7,497.1 217.9,497.5 216.3,498.3 214.7,499 213.1,499.8 211.4,500.6 209.8,501.3 208.2,502.1 208.1,502.1 208,502.2 
	207.8,502.3 207.5,502.5 206.7,502.9 205.1,503.6 203.5,504.4 201.9,505.2 201.7,505.2 201.5,505.3 201.1,505.5 200.3,505.9 
	198.7,506.7 197.2,507.5 196.4,507.8 195.6,508.2 194.1,509 193.3,509.4 192.5,509.8 191.7,510.2 190.9,510.5 190.2,510.9 
	189.4,511.3 188.6,511.7 187.9,512.1 187.1,512.5 186.3,512.9 185.5,513.3 184.8,513.7 184,514.1 183.2,514.5 182.1,513.4 
	181.6,512.9 181,512.4 180.4,511.8 179.9,511.3 178.7,510.2 177.6,509.2 176.5,508.1 175.4,507.1 174.2,506 173.1,505 172,503.9 
	170.8,502.9 169.7,501.9 168.6,500.8 167.4,499.8 165.2,497.7 162.9,495.6 160.7,493.5 158.4,491.4 156.1,489.4 153.9,487.3 
	153.3,486.8 "/>
<polyline class="st3" points="285.8,486.6 283.1,488.2 280.4,489.7 277.6,491.3 276.3,492.1 274.9,492.9 273.5,493.7 272.8,494.1 
	272.2,494.5 271.8,494.4 271.4,494.2 270.7,493.9 269.9,493.6 269.2,493.2 268.4,492.9 267.7,492.6 267.5,492.5 267.3,492.4 
	266.9,492.2 266.1,491.9 266,491.9 265.9,491.8 265.8,491.8 265.4,491.6 264.6,491.3 263.8,490.9 263.1,490.6 263,490.6 
	262.9,490.5 262.7,490.5 262.3,490.3 261.5,490 260.8,489.6 260,489.3 259.9,489.3 259.8,489.2 259.6,489.2 259.2,489 258.5,488.7 
	257.7,488.3 256.9,488 256.1,487.7 255.4,487.4 254.6,487 "/>
<polyline class="st3" points="107.9,486.4 106.6,487.3 105.3,488.1 104,489 102.7,489.8 100.1,491.5 99.5,491.9 98.8,492.3 
	97.5,493.1 96.2,494 94.9,494.8 92.3,496.5 91,497.4 90.3,497.8 89.7,498.2 89,498.6 88.3,499.1 87,499.9 86.4,500.3 85.7,500.8 
	85,501.2 84.4,501.6 83.7,502.1 83.1,502.5 82.4,502.9 81.8,503.4 81,503 80.2,502.5 79.4,502.1 78.6,501.7 77.8,501.3 77,500.9 
	76.2,500.5 75.4,500.1 74.6,499.7 73.7,499.3 72.9,498.9 72.1,498.5 71.3,498.1 70.5,497.7 68.8,496.9 68,496.5 67.2,496.1 
	66.4,495.7 66,495.5 65.8,495.4 65.5,495.3 63.9,494.5 63.1,494.1 "/>
<polyline class="st3" points="336.8,543.8 335.3,544.5 334.5,544.8 333.7,545.1 332.1,545.8 330.5,546.4 329.8,546.7 329,547 
	327.4,547.7 326.6,548 325.8,548.3 325,548.7 324.2,549 323.5,549.3 322.7,549.7 322.2,549.4 321.7,549.1 321.3,548.9 320.8,548.6 
	320.3,548.4 319.8,548.1 319.3,547.9 318.9,547.6 318.4,547.4 317.9,547.1 317.4,546.9 317,546.6 316,546.1 315,545.7 314.1,545.2 
	313.1,544.7 312.1,544.2 311.2,543.7 310.2,543.2 309.2,542.7 308.2,542.2 307.3,541.7 306.3,541.2 305.3,540.7 304.3,540.3 
	303.4,539.8 302.4,539.3 301.4,538.8 299.4,537.8 297.4,536.8 295.4,535.8 293.4,534.9 292.4,534.4 291.4,533.9 291.2,533 
	291,532.2 290.8,531.3 290.6,530.5 290.5,529.6 290.3,528.8 290.1,527.9 289.9,527.1 289.5,525.4 289.1,523.7 288.7,522 
	288.3,520.3 287.9,518.6 287.6,516.9 287.2,515.2 286.8,513.5 286.6,512.7 286.4,511.8 286.2,511 286,510.1 285.8,509.3 
	285.7,508.9 285.6,508.4 285.5,508 285.4,507.6 285.4,507.2 285.3,506.7 285.9,506.3 286.6,505.9 287.9,505.1 289.3,504.4 290,504 
	290.6,503.6 293.3,502 294.6,501.2 295.9,500.4 297.3,499.7 298.6,498.9 299.9,498.1 301.2,497.3 302.5,496.5 303.8,495.8 
	305.1,495 306.4,494.2 307.7,493.4 308.4,493 309,492.6 310.3,491.9 311.6,491.1 312.9,490.3 313.5,489.9 314.2,489.5 315.5,488.7 
	316.7,487.9 317.1,487.7 317.4,487.5 318,487.1 "/>
<polyline class="st3" points="269.8,653.7 270.6,652 271.4,650.3 272.3,648.7 272.7,647.8 273.1,647 273.5,646.2 273.9,645.3 
	274.3,644.5 274.7,643.7 275.1,642.8 275.6,642 276,641.1 276.4,640.3 276.8,639.5 277.2,638.6 278,637 278.8,635.3 279.6,633.6 
	280,632.8 280.5,632 282.9,630.8 285.3,629.6 286.5,629.1 287.7,628.5 288.9,627.9 290.1,627.3 291.3,626.7 292.5,626.2 
	293.7,625.6 294.9,625 296.1,624.4 297.2,623.8 298.4,623.3 299.6,622.7 300.2,622.4 300.8,622.1 301.9,621.5 302.2,621.4 
	302.5,621.2 303.1,620.9 303.7,620.7 304.3,620.4 304.4,620.3 304.6,620.2 304.8,620.1 305.4,619.8 306.6,619.2 307.7,618.6 
	308.9,618 310.1,617.5 310.6,617.2 311.2,616.9 311.8,616.6 312.4,616.3 312.9,616 313.5,615.7 314.1,615.4 314.6,615.1 
	315.2,614.8 315.8,614.5 316.3,614.2 316.9,613.9 317.5,613.6 318,613.3 318.8,613.6 319.6,613.9 320.3,614.3 321.1,614.6 
	321.8,614.9 322.6,615.2 323.4,615.6 324.1,615.9 324.9,616.2 325.7,616.5 327.2,617.1 328.7,617.8 330.2,618.4 331.7,619 
	333.3,619.6 336.3,620.9 337.8,621.5 "/>
<g id="LWPOLYLINE_47_">
	<polygon class="st3" points="133,490 133.6,490.1 134.2,490.2 135.4,491.2 135.9,491.8 136.5,492.3 137,492.8 137.6,493.4 
		138.7,494.4 139.8,495.5 141,496.5 142.1,497.6 143.2,498.6 144.3,499.6 145.4,500.7 146.6,501.7 147.7,502.8 148.8,503.8 
		149.9,504.9 151.1,505.9 152.2,506.9 153.3,508 154.5,509 156.7,511.1 159,513.2 161.2,515.3 163.5,517.3 164.6,518.4 165.7,519.4 
		166.3,519.9 166.9,520.5 167.4,521 168,521.5 168.6,522 169.1,522.6 169.7,523.1 170.2,523.6 170.3,524.6 170.4,525.6 170.5,526.6 
		170.6,527.1 170.6,527.5 170.7,528.5 170.8,529.5 170.9,530.5 171,531.5 171.2,533.5 171.3,535.4 171.7,539.4 172,543.3 
		172.4,547.3 173.1,555.1 170.5,555.3 168,555.4 165.4,555.6 164.2,555.6 162.9,555.7 157.8,556 152.7,556.2 147.6,556.5 
		142.5,556.7 137.4,557 132.3,557.3 127.2,557.5 122.1,557.8 121.8,557.8 121.4,557.8 120.8,557.9 119.5,557.9 116.9,558.1 
		116.3,558.1 115.6,558.1 114.3,558.2 111.7,558.3 111.1,558.4 110.4,558.4 109.1,558.5 106.5,558.6 105.9,558.6 105.2,558.7 
		103.9,558.7 103.2,558.8 102.6,558.8 101.3,558.9 100.6,558.9 99.9,558.9 98.6,559 98,559 97.3,559.1 96,559.1 93.3,559.3 
		90.6,559.4 90.5,559.3 90.3,559.2 90.1,559.1 89.9,559 89.8,558.9 89.6,558.7 89.2,558.5 88.9,558.3 88.6,558 88.2,557.8 88,557.7 
		87.9,557.6 88,556.3 88,555.7 88.1,555 88.1,554.4 88.2,553.8 88.3,552.5 88.4,551.9 88.5,551.2 88.6,550 88.7,548.7 88.9,547.4 
		89,546.1 89.1,544.9 89.4,542.3 89.9,537.3 90.5,532.2 91,527.1 91.3,524.6 91.4,523.3 91.6,522 91.6,521.7 91.6,521.4 91.7,521.1 
		91.7,520.8 91.8,520.1 91.9,519.5 91.9,518.9 92,518.2 92.1,517.6 92.1,517.3 92.1,517 92.8,516.5 93.5,516.1 94.8,515.2 
		96.1,514.4 97.4,513.6 99.9,511.9 102.5,510.2 103.8,509.4 105.1,508.5 106.4,507.7 107.7,506.8 109,506 110.3,505.2 111.5,504.3 
		112.8,503.5 114.1,502.7 115.4,501.8 116.6,501 117.9,500.1 119.2,499.3 120.4,498.5 121.7,497.6 123,496.8 124.2,495.9 
		125.5,495.1 126.7,494.2 128,493.4 129.2,492.5 129.9,492.1 130.5,491.7 131.1,491.3 131.7,490.8 	"/>
</g>
<polyline class="st3" points="197.3,653 195.9,651.9 194.5,650.8 193.1,649.7 191.7,648.6 190.3,647.5 188.9,646.4 187.5,645.3 
	186.1,644.3 184.7,643.2 183.3,642.1 181.9,641 181.2,640.4 180.5,639.9 179.1,638.8 178.4,638.2 177.7,637.7 176.3,636.6 
	175,635.5 174.3,634.9 173.6,634.4 174.2,632.6 174.6,631.7 174.9,630.9 175.5,629.1 176.2,627.3 176.8,625.6 177.5,623.8 
	178.8,620.3 181.4,613.3 184,606.3 186.6,599.3 188,595.8 188.6,594.1 189.3,592.3 190.6,588.8 191.9,585.3 192.5,583.6 
	192.9,582.7 193.2,581.8 194.5,578.3 196.1,578.5 197.6,578.7 199.2,579 200.8,579.2 202.4,579.4 203.9,579.7 205.5,579.9 
	207.1,580.1 208.7,580.3 210.3,580.6 211.9,580.8 213.5,581 214.3,581.1 215.1,581.2 216.7,581.5 217.6,581.6 218.4,581.7 
	219.2,581.8 220,581.9 220.6,582.6 221.2,583.4 221.5,583.7 221.8,584.1 222.4,584.8 223,585.5 223.6,586.3 224.3,587 224.9,587.7 
	225.5,588.4 226.1,589.2 226.7,589.9 227,590.2 227.3,590.6 228,591.3 228.3,591.7 228.6,592 229.2,592.8 229.5,593.1 229.8,593.5 
	230.5,594.2 230.8,594.6 231.1,594.9 231.7,595.6 232,596 232.2,596.2 232.3,596.4 233,597.1 233.6,597.8 234.2,598.5 234.6,598.9 
	234.7,599.1 234.9,599.2 235.5,600 236.2,600.7 236.8,601.4 237.1,601.7 237.3,601.9 237.4,602.1 238.1,602.8 238.7,603.5 
	239.4,604.3 239.7,604.6 239.8,604.8 240,605 240.6,605.7 241.3,606.4 242.6,607.8 243.2,608.6 243.9,609.3 244.5,610 245.2,610.7 
	246.5,612.1 247.2,612.9 247.8,613.6 248.5,614.3 249.1,615 250.5,616.4 251.8,617.9 253.1,619.3 253.8,620 254.4,620.7 
	255.8,622.2 257.1,623.6 257.8,624.3 258.1,624.7 258.3,624.9 258.5,625 259.1,625.8 259.8,626.5 260.4,627.2 261.1,627.9 
	260.9,628.4 260.7,628.8 260.5,629.2 260.3,629.6 260.1,630 259.8,630.4 259.6,630.9 259.4,631.3 259,632.1 258.6,632.9 
	258.2,633.8 257.7,634.6 257.3,635.4 256.9,636.3 256.5,637.1 256,637.9 255.6,638.8 255.2,639.6 254.7,640.4 254.3,641.3 
	253.9,642.1 253.5,642.9 253.1,643.8 252.6,644.6 252.2,645.4 251.8,646.3 251.4,647.1 250.9,647.9 250.7,648.4 250.5,648.8 
	250.1,649.6 249.3,651.3 248.9,652.1 248.4,652.9 "/>
<polyline class="st3" points="62,577.7 63.3,577.4 64.5,577.2 65.7,576.9 66.9,576.7 68.1,576.5 69.2,576.2 70.4,576 71.6,575.7 
	72.8,575.5 74,575.2 75.2,575 75.5,575.2 75.9,575.4 76.3,575.6 76.6,575.9 77,576.1 77.4,576.3 77.8,576.6 78.1,576.8 78.9,578.5 
	79.7,580.3 80.5,582 81.2,583.8 82.8,587.3 84.3,590.8 85.8,594.3 87.4,597.8 88.9,601.3 90.4,604.8 91.9,608.3 92.3,609.1 
	92.7,610 93.5,611.8 95,615.3 95.7,617 96.5,618.8 98,622.2 98.8,624 99.1,624.9 99.5,625.7 99.9,626.6 100.3,627.5 100.6,628.4 
	101,629.2 101.4,630.1 101.8,631 102.1,631.9 102.5,632.7 102.1,633.1 101.7,633.5 101.3,633.9 100.9,634.3 100.8,634.4 
	100.7,634.5 100.5,634.7 100.1,635.1 99.9,635.3 99.7,635.5 99.3,635.8 99,636 98.8,636.2 98.4,636.6 97.6,637.4 97.4,637.6 
	97.2,637.8 96.8,638.2 96.4,638.5 96,638.9 95.6,639.3 95.2,639.7 94.3,640.5 93.9,640.9 93.5,641.3 93.1,641.6 92.7,642 
	92.5,642.2 92.3,642.4 91.9,642.8 91.5,643.2 91.1,643.6 90.7,644 90.3,644.4 90.1,644.6 89.8,644.8 89.6,645 89.4,645.2 
	87.6,645.4 85.8,645.6 82.2,646 80.3,646.2 78.5,646.4 76.6,646.6 74.8,646.8 72.9,647 71.1,647.2 69.2,647.4 67.3,647.7 
	65.4,647.9 63.5,648.1 61.6,648.3 "/>
<g id="LWPOLYLINE_45_">
	<polygon class="st3" points="195.4,560.8 194.9,560.3 194.7,560.1 194.4,559.8 194.2,559.6 193.9,559.4 193.7,559.1 193.5,558.9 
		193.2,558.7 193,558.4 192.7,558.2 192.5,557.9 192.2,557.7 192,557.5 191.8,557.2 191.5,557 191.4,556 191.3,555 191.2,554 
		191.2,553.1 191,551.1 190.8,549.1 190.4,545.2 190.1,541.2 189.4,533.3 189.2,531.4 189,529.4 188.9,527.4 188.8,526.5 
		188.7,525.5 189.5,525.1 190.2,524.7 191,524.3 191.8,523.9 192.6,523.5 193.3,523.1 194.1,522.7 194.9,522.3 196.4,521.6 
		197.2,521.2 198,520.8 199.6,520 201.1,519.3 202.7,518.5 204.3,517.7 205.9,517 207.5,516.2 209.1,515.4 210.7,514.7 212.3,513.9 
		213.9,513.2 215.5,512.4 217.1,511.6 218.7,510.9 220.4,510.1 220.6,510 220.8,509.9 221.2,509.7 222,509.3 222.8,509 223.6,508.6 
		224.4,508.2 225.3,507.8 226.9,507 230.2,505.5 231.9,504.7 233.5,503.9 234.4,503.5 235.2,503.2 236.9,502.4 238.6,501.6 
		239.4,501.2 240.2,500.8 240.6,500.9 241,501.1 241.4,501.3 241.7,501.4 242.1,501.6 242.5,501.8 242.9,501.9 243.2,502.1 
		243.3,502.1 243.4,502.2 243.6,502.3 244,502.4 244.7,502.8 244.9,502.8 245.1,502.9 245.5,503.1 246.3,503.4 246.4,503.5 
		246.5,503.5 246.6,503.6 247,503.8 247.8,504.1 248.6,504.4 249.3,504.7 249.4,504.8 249.5,504.8 249.7,504.9 250.1,505.1 
		250.9,505.4 251.1,505.5 251.2,505.5 251.6,505.7 252.4,506 252.5,506.1 252.6,506.1 252.8,506.2 253.2,506.4 254,506.7 254.7,507 
		255.5,507.3 255.7,507.4 255.9,507.5 256.3,507.6 257.1,508 257.5,508.1 257.9,508.3 258.3,508.5 258.6,508.6 258.8,508.7 
		259,508.8 259.4,508.9 260.2,509.3 260.6,509.4 261,509.6 261.4,509.8 261.8,509.9 261.9,510 262.1,510.1 262.5,510.2 263.3,510.6 
		264.1,510.9 264.8,511.2 265,512.1 265.2,512.9 265.5,513.8 265.7,514.6 265.9,515.5 266.1,516.3 266.5,518 266.9,519.7 
		267.3,521.4 268.1,524.8 268.9,528.2 269.3,529.9 269.5,530.7 269.7,531.6 269.9,532.4 270.1,533.3 270.3,534.1 270.5,535 
		270.7,535.8 270.8,536.2 270.9,536.7 271.1,537.5 271.3,538.4 270.5,538.8 269.7,539.2 268.9,539.6 268.1,540 267.9,540.1 
		267.7,540.2 267.4,540.4 266.6,540.8 265.8,541.2 265,541.6 264.2,542 263.4,542.5 262.6,542.9 262.2,543.1 262,543.2 261.8,543.3 
		260.9,543.7 260.1,544.1 259.3,544.5 258.9,544.7 258.7,544.8 258.5,544.9 257.7,545.3 256.9,545.7 255.2,546.5 253.6,547.3 
		252,548.1 250.4,548.9 249.6,549.3 248.8,549.7 248,550.1 247.2,550.5 246.4,550.9 245.6,551.3 245.5,551.4 245.4,551.4 
		245.2,551.5 244.8,551.7 244,552.1 243.2,552.5 242.4,552.9 241.6,553.3 240.8,553.8 240.1,554.2 239.3,554.6 239.2,554.6 
		239.1,554.7 238.9,554.8 238.5,555 237.7,555.4 236.9,555.8 236.1,556.2 236,556.3 235.8,556.4 235.4,556.6 234.6,557 233.8,557.4 
		233.1,557.8 232.9,557.9 232.7,558 232.3,558.2 231.5,558.6 230.8,559 230,559.5 228.5,560.3 227.7,560.7 227,561.1 226.2,561.5 
		225.4,561.9 224.7,562.3 223.9,562.8 223.2,563.2 222.5,563.6 221.7,564 221,564.4 220.2,564.3 219.3,564.2 218.5,564.1 217.7,564 
		216.9,563.8 216.1,563.7 215.3,563.6 214.5,563.5 213.7,563.4 212.9,563.3 211.3,563 209.7,562.8 208.1,562.6 206.5,562.4 
		204.9,562.1 203.3,561.9 201.7,561.7 200.1,561.5 198.5,561.2 197,561 	"/>
</g>
<polyline class="st3" points="62.9,512.9 63.8,513.3 64.6,513.7 65.4,514.1 66.2,514.5 67.1,514.9 67.9,515.3 68.7,515.7 
	69.5,516.1 70.4,516.5 70.8,516.7 71,516.8 71.2,516.9 72,517.3 72.8,517.7 73.6,518.1 74.4,518.5 74.4,519.2 74.3,519.8 
	74.2,520.4 74.2,521.1 74.1,521.7 74,522.3 74,523 73.9,523.6 73.8,524.9 73.6,526.1 73.5,527.4 73.4,528.7 72.8,533.8 72.5,536.3 
	72.2,538.8 71.9,541.4 71.7,543.9 71.1,549 70.8,551.5 70.7,552.8 70.5,554.1 70.4,555.3 70.2,556.6 70,559.2 68.8,559.4 
	67.6,559.7 66.4,559.9 65.8,560 65.5,560.1 65.2,560.2 63.9,560.4 63.3,560.5 63,560.6 "/>
<polyline class="st3" points="337.8,605.7 336.3,605.1 335.6,604.8 334.8,604.5 333.3,603.8 331.8,603.2 330.3,602.6 328.8,602 
	327.3,601.3 327.4,599 327.6,596.6 327.9,591.9 328.2,587.2 328.6,582.5 328.9,577.8 329.2,573.1 329.5,568.4 329.8,563.7 
	331.4,563 332.9,562.4 334.5,561.8 335.3,561.4 336.1,561.1 337.6,560.5 "/>
<polyline class="st3" points="110.6,652.8 111.4,652.1 111.6,651.9 111.8,651.7 112.2,651.3 112.6,650.9 113,650.5 113.2,650.3 
	113.4,650.1 113.8,649.7 114.2,649.4 114.6,649 114.7,648.9 114.8,648.8 115,648.6 115.4,648.2 115.8,647.8 116.2,647.4 116.6,647 
	117,646.6 117.4,646.3 117.6,646.1 117.7,646 117.8,645.9 118.2,645.5 118.6,645.1 119,644.7 119.4,644.3 120.7,644.3 122,644.3 
	123.4,644.3 124.7,644.3 127.3,644.2 129.9,644.2 135.1,644.2 140.3,644.1 145.5,644.1 148.1,644.1 150.7,644 152,644 153.3,644 
	154.6,644 155.9,644 157.1,643.9 158.4,643.9 159.1,643.9 159.7,643.9 160.4,643.9 161,643.9 161.4,644.1 161.7,644.4 162,644.7 
	162.4,645 163.1,645.6 163.7,646.1 164.4,646.7 164.8,647 165.1,647.3 165.4,647.6 165.8,647.8 166.5,648.4 167.2,649 167.8,649.5 
	168.5,650.1 169.2,650.6 169.9,651.2 170.6,651.7 171.3,652.3 172,652.8 "/>
<g>
	<path d="M28.3,442.1h2.1v21h-2.1V442.1z"/>
	<path d="M35.7,448c0.6-0.2,1.4-0.3,2.4-0.5c1-0.2,2.2-0.3,3.6-0.3c1.2,0,2.2,0.2,3,0.5c0.8,0.3,1.4,0.8,1.9,1.5
		c0.5,0.6,0.8,1.4,1,2.3s0.3,1.9,0.3,2.9v8.8h-2V455c0-1.1-0.1-2.1-0.2-2.8c-0.2-0.8-0.4-1.4-0.8-1.9c-0.4-0.5-0.8-0.8-1.4-1
		c-0.6-0.2-1.3-0.3-2.2-0.3c-0.9,0-1.7,0.1-2.4,0.2c-0.7,0.1-1.1,0.2-1.3,0.3v13.8h-2V448z"/>
	<path d="M54.8,447.5H61v1.7h-6.2v8.3c0,0.9,0.1,1.6,0.2,2.2c0.2,0.6,0.4,1,0.7,1.3c0.3,0.3,0.6,0.5,1,0.6c0.4,0.1,0.8,0.2,1.3,0.2
		c0.8,0,1.5-0.1,2-0.3c0.5-0.2,0.9-0.4,1.2-0.5l0.5,1.6c-0.3,0.2-0.8,0.4-1.5,0.6c-0.7,0.2-1.5,0.3-2.3,0.3c-1,0-1.8-0.1-2.4-0.4
		c-0.7-0.3-1.2-0.6-1.6-1.2c-0.4-0.5-0.7-1.2-0.8-1.9c-0.2-0.8-0.2-1.7-0.2-2.7v-14.4l2-0.4V447.5z"/>
	<path d="M63.7,455.3c0-1.4,0.2-2.6,0.6-3.6c0.4-1,0.9-1.9,1.5-2.6c0.6-0.7,1.4-1.2,2.2-1.5c0.8-0.3,1.7-0.5,2.5-0.5
		c1.9,0,3.5,0.6,4.6,1.9s1.7,3.2,1.7,5.8c0,0.2,0,0.3,0,0.5s0,0.3,0,0.5h-11c0.1,1.9,0.5,3.4,1.4,4.4c0.9,1,2.3,1.5,4.2,1.5
		c1.1,0,1.9-0.1,2.5-0.3c0.6-0.2,1.1-0.4,1.4-0.5l0.4,1.7c-0.3,0.2-0.8,0.4-1.6,0.6c-0.8,0.2-1.7,0.3-2.7,0.3
		c-1.4,0-2.5-0.2-3.5-0.6s-1.8-1-2.4-1.7c-0.6-0.7-1.1-1.6-1.4-2.6C63.9,457.6,63.7,456.5,63.7,455.3z M74.9,454.1
		c0-1.6-0.4-2.9-1.2-3.8s-1.8-1.4-3.1-1.4c-0.7,0-1.3,0.1-1.9,0.4c-0.6,0.3-1,0.7-1.5,1.1c-0.4,0.5-0.7,1-1,1.7
		c-0.2,0.6-0.4,1.3-0.4,2H74.9z"/>
	<path d="M86.6,447.2c0.6,0,1.3,0.1,1.8,0.2c0.6,0.1,1,0.2,1.2,0.3l-0.4,1.7c-0.2-0.1-0.5-0.2-1-0.3c-0.5-0.1-1.1-0.1-2-0.1
		c-0.8,0-1.5,0.1-2,0.2s-0.9,0.2-1,0.3v13.7h-2v-15c0.5-0.2,1.2-0.5,2.1-0.7C84.3,447.3,85.4,447.2,86.6,447.2z"/>
	<path d="M94.6,468.8h-2V448c0.6-0.2,1.3-0.4,2.2-0.6c0.9-0.2,2.1-0.3,3.5-0.3c1.2,0,2.2,0.2,3.1,0.6s1.7,0.9,2.4,1.6
		c0.7,0.7,1.2,1.6,1.6,2.6c0.4,1,0.6,2.2,0.6,3.4c0,1.2-0.2,2.3-0.5,3.3s-0.8,1.9-1.4,2.6c-0.6,0.7-1.4,1.3-2.2,1.7
		c-0.9,0.4-1.9,0.6-3,0.6c-1,0-1.9-0.1-2.7-0.4s-1.3-0.6-1.7-0.8V468.8z M94.6,460.3c0.2,0.1,0.4,0.3,0.7,0.5c0.3,0.2,0.6,0.3,1,0.5
		c0.4,0.1,0.8,0.3,1.2,0.3c0.4,0.1,0.9,0.1,1.3,0.1c1,0,1.8-0.2,2.4-0.5c0.7-0.3,1.2-0.8,1.6-1.4c0.4-0.6,0.7-1.3,0.9-2
		c0.2-0.8,0.3-1.6,0.3-2.5c0-2.1-0.5-3.6-1.5-4.7c-1-1.1-2.4-1.7-4.1-1.7c-1,0-1.8,0-2.4,0.1c-0.6,0.1-1,0.2-1.4,0.3V460.3z"/>
	<path d="M123.7,455.3c0,1.2-0.2,2.4-0.5,3.4c-0.4,1-0.8,1.9-1.5,2.6c-0.6,0.7-1.4,1.3-2.3,1.7s-1.8,0.6-2.9,0.6
		c-1.1,0-2-0.2-2.9-0.6c-0.9-0.4-1.6-0.9-2.3-1.7c-0.6-0.7-1.1-1.6-1.5-2.6c-0.4-1-0.5-2.1-0.5-3.4s0.2-2.4,0.5-3.4
		c0.4-1,0.8-1.9,1.5-2.6c0.6-0.7,1.4-1.3,2.3-1.7c0.9-0.4,1.8-0.6,2.9-0.6c1.1,0,2,0.2,2.9,0.6c0.9,0.4,1.6,1,2.3,1.7
		c0.6,0.7,1.1,1.6,1.5,2.6C123.5,453,123.7,454.1,123.7,455.3z M121.6,455.3c0-2-0.5-3.5-1.4-4.7s-2.1-1.7-3.7-1.7
		c-1.6,0-2.8,0.6-3.7,1.7s-1.4,2.7-1.4,4.7s0.5,3.5,1.4,4.7c0.9,1.2,2.1,1.7,3.7,1.7c1.6,0,2.8-0.6,3.7-1.7
		C121.2,458.9,121.6,457.3,121.6,455.3z"/>
	<path d="M132,463.4c-0.7,0-1.2-0.1-1.7-0.3c-0.5-0.2-0.9-0.4-1.2-0.7c-0.3-0.3-0.6-0.7-0.8-1.2c-0.2-0.5-0.3-1.1-0.3-1.9V440l2-0.4
		v19.7c0,0.5,0,0.9,0.1,1.2c0.1,0.3,0.2,0.5,0.4,0.7c0.2,0.2,0.4,0.3,0.7,0.4c0.3,0.1,0.6,0.2,1,0.2L132,463.4z"/>
	<path d="M140.5,447.1c1,0,1.9,0.1,2.6,0.4c0.7,0.3,1.3,0.7,1.7,1.2c0.4,0.5,0.8,1.1,1,1.8c0.2,0.7,0.3,1.5,0.3,2.3v9.9
		c-0.2,0.1-0.5,0.1-0.9,0.2c-0.4,0.1-0.8,0.1-1.3,0.2c-0.5,0.1-1.1,0.1-1.7,0.2c-0.6,0-1.2,0.1-1.9,0.1c-0.8,0-1.6-0.1-2.3-0.3
		c-0.7-0.2-1.3-0.5-1.8-0.9s-0.9-0.9-1.2-1.5c-0.3-0.6-0.4-1.4-0.4-2.3c0-0.8,0.2-1.6,0.5-2.2c0.3-0.6,0.8-1.1,1.4-1.5
		c0.6-0.4,1.3-0.7,2.1-0.9c0.8-0.2,1.7-0.3,2.6-0.3c0.3,0,0.6,0,0.9,0c0.3,0,0.6,0.1,0.9,0.1c0.3,0.1,0.5,0.1,0.8,0.2
		s0.4,0.1,0.4,0.1v-1c0-0.5,0-1.1-0.1-1.6c-0.1-0.5-0.3-1-0.5-1.4s-0.7-0.7-1.2-1s-1.1-0.4-2-0.4c-1.2,0-2,0.1-2.6,0.2
		c-0.6,0.2-1,0.3-1.2,0.4l-0.3-1.7c0.3-0.2,0.9-0.3,1.6-0.5C138.6,447.2,139.5,447.1,140.5,447.1z M140.7,461.7c0.8,0,1.4,0,2-0.1
		c0.6,0,1.1-0.1,1.5-0.2v-5.5c-0.2-0.1-0.6-0.2-1.1-0.3s-1.2-0.2-2-0.2c-0.5,0-1,0-1.5,0.1c-0.5,0.1-1,0.2-1.5,0.5
		c-0.4,0.2-0.8,0.6-1.1,1c-0.3,0.4-0.4,0.9-0.4,1.6c0,0.6,0.1,1.1,0.3,1.5c0.2,0.4,0.5,0.7,0.8,1c0.4,0.2,0.8,0.4,1.3,0.5
		C139.5,461.7,140,461.7,140.7,461.7z M145.2,441.3l-5.2,4.2l-1-1.2l4.8-4.6L145.2,441.3z"/>
	<path d="M157.7,463.5c-1.2,0-2.3-0.2-3.2-0.6c-0.9-0.4-1.7-0.9-2.3-1.7c-0.6-0.7-1.1-1.6-1.4-2.6c-0.3-1-0.5-2.1-0.5-3.3
		c0-1.2,0.2-2.4,0.5-3.4c0.3-1,0.8-1.9,1.4-2.6c0.6-0.7,1.4-1.3,2.3-1.7c0.9-0.4,1.9-0.6,3-0.6c0.8,0,1.6,0.1,2.4,0.2
		c0.7,0.1,1.3,0.3,1.7,0.5l-0.5,1.7c-0.4-0.2-0.9-0.4-1.4-0.5c-0.5-0.1-1.2-0.2-2-0.2c-1.7,0-3.1,0.6-4,1.7
		c-0.9,1.1-1.3,2.7-1.3,4.8c0,0.9,0.1,1.8,0.3,2.6c0.2,0.8,0.5,1.4,1,2s1,1,1.8,1.3s1.6,0.5,2.6,0.5c0.8,0,1.6-0.1,2.1-0.3
		c0.6-0.2,1-0.4,1.3-0.5l0.4,1.7c-0.4,0.2-0.9,0.4-1.7,0.6C159.3,463.4,158.5,463.5,157.7,463.5z"/>
	<path d="M167.5,442.7c0,0.5-0.1,0.8-0.4,1.1c-0.3,0.3-0.6,0.4-1,0.4c-0.4,0-0.7-0.1-1-0.4c-0.3-0.3-0.4-0.6-0.4-1.1
		s0.1-0.8,0.4-1.1c0.3-0.3,0.6-0.4,1-0.4c0.4,0,0.7,0.1,1,0.4S167.5,442.3,167.5,442.7z M167.1,463.2h-2v-15.7h2V463.2z"/>
	<path d="M177.1,447.1c1,0,1.9,0.1,2.6,0.4c0.7,0.3,1.3,0.7,1.7,1.2c0.4,0.5,0.8,1.1,1,1.8c0.2,0.7,0.3,1.5,0.3,2.3v9.9
		c-0.2,0.1-0.5,0.1-0.9,0.2c-0.4,0.1-0.8,0.1-1.3,0.2c-0.5,0.1-1.1,0.1-1.7,0.2c-0.6,0-1.2,0.1-1.9,0.1c-0.8,0-1.6-0.1-2.3-0.3
		c-0.7-0.2-1.3-0.5-1.8-0.9s-0.9-0.9-1.2-1.5c-0.3-0.6-0.4-1.4-0.4-2.3c0-0.8,0.2-1.6,0.5-2.2c0.3-0.6,0.8-1.1,1.4-1.5
		c0.6-0.4,1.3-0.7,2.1-0.9c0.8-0.2,1.7-0.3,2.6-0.3c0.3,0,0.6,0,0.9,0c0.3,0,0.6,0.1,0.9,0.1c0.3,0.1,0.5,0.1,0.8,0.2
		s0.4,0.1,0.4,0.1v-1c0-0.5,0-1.1-0.1-1.6c-0.1-0.5-0.3-1-0.5-1.4s-0.7-0.7-1.2-1s-1.1-0.4-2-0.4c-1.2,0-2,0.1-2.6,0.2
		c-0.6,0.2-1,0.3-1.2,0.4l-0.3-1.7c0.3-0.2,0.9-0.3,1.6-0.5C175.2,447.2,176.1,447.1,177.1,447.1z M177.2,461.7c0.8,0,1.4,0,2-0.1
		c0.6,0,1.1-0.1,1.5-0.2v-5.5c-0.2-0.1-0.6-0.2-1.1-0.3s-1.2-0.2-2-0.2c-0.5,0-1,0-1.5,0.1c-0.5,0.1-1,0.2-1.5,0.5
		c-0.4,0.2-0.8,0.6-1.1,1c-0.3,0.4-0.4,0.9-0.4,1.6c0,0.6,0.1,1.1,0.3,1.5c0.2,0.4,0.5,0.7,0.8,1c0.4,0.2,0.8,0.4,1.3,0.5
		C176.1,461.7,176.6,461.7,177.2,461.7z"/>
	<path d="M194.7,448c0.6-0.2,1.4-0.3,2.4-0.5c1-0.2,2.2-0.3,3.6-0.3c1.2,0,2.2,0.2,3,0.5c0.8,0.3,1.4,0.8,1.9,1.5
		c0.5,0.6,0.8,1.4,1,2.3s0.3,1.9,0.3,2.9v8.8h-2V455c0-1.1-0.1-2.1-0.2-2.8c-0.2-0.8-0.4-1.4-0.8-1.9c-0.4-0.5-0.8-0.8-1.4-1
		c-0.6-0.2-1.3-0.3-2.2-0.3c-0.9,0-1.7,0.1-2.4,0.2c-0.7,0.1-1.1,0.2-1.3,0.3v13.8h-2V448z"/>
	<path d="M216.7,447.1c1,0,1.9,0.1,2.6,0.4c0.7,0.3,1.3,0.7,1.7,1.2c0.4,0.5,0.8,1.1,1,1.8c0.2,0.7,0.3,1.5,0.3,2.3v9.9
		c-0.2,0.1-0.5,0.1-0.9,0.2c-0.4,0.1-0.8,0.1-1.3,0.2c-0.5,0.1-1.1,0.1-1.7,0.2c-0.6,0-1.2,0.1-1.9,0.1c-0.8,0-1.6-0.1-2.3-0.3
		c-0.7-0.2-1.3-0.5-1.8-0.9s-0.9-0.9-1.2-1.5c-0.3-0.6-0.4-1.4-0.4-2.3c0-0.8,0.2-1.6,0.5-2.2c0.3-0.6,0.8-1.1,1.4-1.5
		c0.6-0.4,1.3-0.7,2.1-0.9c0.8-0.2,1.7-0.3,2.6-0.3c0.3,0,0.6,0,0.9,0c0.3,0,0.6,0.1,0.9,0.1c0.3,0.1,0.5,0.1,0.8,0.2
		s0.4,0.1,0.4,0.1v-1c0-0.5,0-1.1-0.1-1.6c-0.1-0.5-0.3-1-0.5-1.4s-0.7-0.7-1.2-1s-1.1-0.4-2-0.4c-1.2,0-2,0.1-2.6,0.2
		c-0.6,0.2-1,0.3-1.2,0.4l-0.3-1.7c0.3-0.2,0.9-0.3,1.6-0.5C214.8,447.2,215.7,447.1,216.7,447.1z M216.9,461.7c0.8,0,1.4,0,2-0.1
		c0.6,0,1.1-0.1,1.5-0.2v-5.5c-0.2-0.1-0.6-0.2-1.1-0.3s-1.2-0.2-2-0.2c-0.5,0-1,0-1.5,0.1c-0.5,0.1-1,0.2-1.5,0.5
		c-0.4,0.2-0.8,0.6-1.1,1c-0.3,0.4-0.4,0.9-0.4,1.6c0,0.6,0.1,1.1,0.3,1.5c0.2,0.4,0.5,0.7,0.8,1c0.4,0.2,0.8,0.4,1.3,0.5
		C215.7,461.7,216.2,461.7,216.9,461.7z"/>
	<path d="M227.4,448c0.6-0.2,1.3-0.3,2.3-0.5s2.2-0.3,3.7-0.3c2,0,3.4,0.6,4.3,1.7c0.1-0.1,0.3-0.2,0.6-0.4c0.3-0.2,0.7-0.4,1.1-0.6
		c0.4-0.2,1-0.4,1.6-0.5c0.6-0.1,1.3-0.2,2-0.2c1.2,0,2.2,0.2,2.9,0.5c0.7,0.4,1.3,0.8,1.7,1.5c0.4,0.6,0.7,1.4,0.8,2.3
		s0.2,1.9,0.2,2.9v8.8h-2V455c0-1,0-1.9-0.1-2.7c-0.1-0.8-0.3-1.4-0.5-1.9c-0.3-0.5-0.7-0.9-1.2-1.1s-1.2-0.4-2-0.4
		c-0.6,0-1.2,0.1-1.7,0.2c-0.5,0.1-0.9,0.2-1.3,0.4c-0.4,0.2-0.7,0.3-0.9,0.5s-0.4,0.3-0.5,0.4c0.2,0.5,0.3,1.1,0.4,1.8
		s0.1,1.3,0.1,2.1v8.9h-2V455c0-1,0-1.9-0.1-2.7c-0.1-0.8-0.3-1.4-0.6-1.9c-0.3-0.5-0.7-0.9-1.2-1.1c-0.5-0.3-1.2-0.4-2-0.4
		c-1,0-1.8,0.1-2.4,0.2c-0.7,0.1-1.1,0.2-1.3,0.3v13.8h-2V448z"/>
	<path d="M252.6,455.3c0-1.4,0.2-2.6,0.6-3.6c0.4-1,0.9-1.9,1.5-2.6c0.6-0.7,1.4-1.2,2.2-1.5c0.8-0.3,1.7-0.5,2.5-0.5
		c1.9,0,3.5,0.6,4.6,1.9s1.7,3.2,1.7,5.8c0,0.2,0,0.3,0,0.5s0,0.3,0,0.5h-11c0.1,1.9,0.5,3.4,1.4,4.4c0.9,1,2.3,1.5,4.2,1.5
		c1.1,0,1.9-0.1,2.5-0.3c0.6-0.2,1.1-0.4,1.4-0.5l0.4,1.7c-0.3,0.2-0.8,0.4-1.6,0.6c-0.8,0.2-1.7,0.3-2.7,0.3
		c-1.4,0-2.5-0.2-3.5-0.6s-1.8-1-2.4-1.7c-0.6-0.7-1.1-1.6-1.4-2.6C252.7,457.6,252.6,456.5,252.6,455.3z M263.7,454.1
		c0-1.6-0.4-2.9-1.2-3.8s-1.8-1.4-3.1-1.4c-0.7,0-1.3,0.1-1.9,0.4c-0.6,0.3-1,0.7-1.5,1.1c-0.4,0.5-0.7,1-1,1.7
		c-0.2,0.6-0.4,1.3-0.4,2H263.7z"/>
	<path d="M275.5,447.2c0.6,0,1.3,0.1,1.8,0.2c0.6,0.1,1,0.2,1.2,0.3l-0.4,1.7c-0.2-0.1-0.5-0.2-1-0.3c-0.5-0.1-1.1-0.1-2-0.1
		c-0.8,0-1.5,0.1-2,0.2s-0.9,0.2-1,0.3v13.7h-2v-15c0.5-0.2,1.2-0.5,2.1-0.7C273.1,447.3,274.2,447.2,275.5,447.2z"/>
	<path d="M286.3,447.1c1,0,1.9,0.1,2.6,0.4c0.7,0.3,1.3,0.7,1.7,1.2c0.4,0.5,0.8,1.1,1,1.8c0.2,0.7,0.3,1.5,0.3,2.3v9.9
		c-0.2,0.1-0.5,0.1-0.9,0.2c-0.4,0.1-0.8,0.1-1.3,0.2c-0.5,0.1-1.1,0.1-1.7,0.2c-0.6,0-1.2,0.1-1.9,0.1c-0.8,0-1.6-0.1-2.3-0.3
		c-0.7-0.2-1.3-0.5-1.8-0.9s-0.9-0.9-1.2-1.5c-0.3-0.6-0.4-1.4-0.4-2.3c0-0.8,0.2-1.6,0.5-2.2c0.3-0.6,0.8-1.1,1.4-1.5
		c0.6-0.4,1.3-0.7,2.1-0.9c0.8-0.2,1.7-0.3,2.6-0.3c0.3,0,0.6,0,0.9,0c0.3,0,0.6,0.1,0.9,0.1c0.3,0.1,0.5,0.1,0.8,0.2
		s0.4,0.1,0.4,0.1v-1c0-0.5,0-1.1-0.1-1.6c-0.1-0.5-0.3-1-0.5-1.4s-0.7-0.7-1.2-1s-1.1-0.4-2-0.4c-1.2,0-2,0.1-2.6,0.2
		c-0.6,0.2-1,0.3-1.2,0.4l-0.3-1.7c0.3-0.2,0.9-0.3,1.6-0.5C284.4,447.2,285.3,447.1,286.3,447.1z M286.5,461.7c0.8,0,1.4,0,2-0.1
		c0.6,0,1.1-0.1,1.5-0.2v-5.5c-0.2-0.1-0.6-0.2-1.1-0.3s-1.2-0.2-2-0.2c-0.5,0-1,0-1.5,0.1c-0.5,0.1-1,0.2-1.5,0.5
		c-0.4,0.2-0.8,0.6-1.1,1c-0.3,0.4-0.4,0.9-0.4,1.6c0,0.6,0.1,1.1,0.3,1.5c0.2,0.4,0.5,0.7,0.8,1c0.4,0.2,0.8,0.4,1.3,0.5
		C285.3,461.7,285.8,461.7,286.5,461.7z"/>
	<path d="M296.9,448c0.6-0.2,1.4-0.3,2.4-0.5c1-0.2,2.2-0.3,3.6-0.3c1.2,0,2.2,0.2,3,0.5c0.8,0.3,1.4,0.8,1.9,1.5
		c0.5,0.6,0.8,1.4,1,2.3s0.3,1.9,0.3,2.9v8.8h-2V455c0-1.1-0.1-2.1-0.2-2.8c-0.2-0.8-0.4-1.4-0.8-1.9c-0.4-0.5-0.8-0.8-1.4-1
		c-0.6-0.2-1.3-0.3-2.2-0.3c-0.9,0-1.7,0.1-2.4,0.2c-0.7,0.1-1.1,0.2-1.3,0.3v13.8h-2V448z"/>
	<path d="M318.3,463.5c-0.7-1.2-1.3-2.5-1.9-3.9s-1.2-2.7-1.7-4c-0.5-1.4-1-2.7-1.5-4.1c-0.4-1.4-0.8-2.7-1.1-4h2.1
		c0.2,1,0.5,2,0.8,3.1c0.3,1.1,0.7,2.3,1.2,3.5s0.9,2.4,1.4,3.7c0.5,1.3,1.1,2.5,1.7,3.7c0.5-1.2,0.8-2.4,1.2-3.5
		c0.3-1.1,0.7-2.2,1-3.3c0.3-1.1,0.6-2.2,0.9-3.4c0.3-1.2,0.6-2.4,0.8-3.7h2c-0.7,2.9-1.4,5.8-2.2,8.6c-0.8,2.8-1.7,5.3-2.7,7.6
		c-0.4,0.9-0.8,1.7-1.2,2.4c-0.4,0.7-0.9,1.2-1.4,1.6c-0.5,0.4-1.1,0.7-1.7,0.9s-1.4,0.3-2.3,0.3c-0.5,0-1-0.1-1.4-0.2
		c-0.4-0.1-0.7-0.2-0.8-0.3l0.4-1.6c0.1,0.1,0.3,0.1,0.7,0.3s0.8,0.2,1.2,0.2c0.6,0,1.1-0.1,1.5-0.2c0.5-0.1,0.9-0.3,1.2-0.6
		c0.4-0.3,0.7-0.7,1-1.1S318,464.2,318.3,463.5z M323.1,441.3l-5.2,4.2l-1-1.2l4.8-4.6L323.1,441.3z"/>
	<path d="M334.9,463.5c-1.2,0-2.3-0.2-3.2-0.6c-0.9-0.4-1.7-0.9-2.3-1.7c-0.6-0.7-1.1-1.6-1.4-2.6c-0.3-1-0.5-2.1-0.5-3.3
		c0-1.2,0.2-2.4,0.5-3.4c0.3-1,0.8-1.9,1.4-2.6c0.6-0.7,1.4-1.3,2.3-1.7c0.9-0.4,1.9-0.6,3-0.6c0.8,0,1.6,0.1,2.4,0.2
		c0.7,0.1,1.3,0.3,1.7,0.5l-0.5,1.7c-0.4-0.2-0.9-0.4-1.4-0.5c-0.5-0.1-1.2-0.2-2-0.2c-1.7,0-3.1,0.6-4,1.7
		c-0.9,1.1-1.3,2.7-1.3,4.8c0,0.9,0.1,1.8,0.3,2.6c0.2,0.8,0.5,1.4,1,2s1,1,1.8,1.3s1.6,0.5,2.6,0.5c0.8,0,1.6-0.1,2.1-0.3
		c0.6-0.2,1-0.4,1.3-0.5l0.4,1.7c-0.4,0.2-0.9,0.4-1.7,0.6C336.5,463.4,335.7,463.5,334.9,463.5z"/>
	<path d="M342.3,463.2V440l2-0.4v8.3c0.6-0.2,1.3-0.4,2-0.6s1.3-0.2,2-0.2c1.2,0,2.2,0.2,3,0.5c0.8,0.3,1.5,0.8,1.9,1.5
		c0.5,0.6,0.8,1.4,1,2.3c0.2,0.9,0.3,1.9,0.3,2.9v8.8h-2V455c0-1.1-0.1-2.1-0.2-2.8c-0.2-0.8-0.4-1.4-0.8-1.9s-0.8-0.8-1.4-1
		c-0.6-0.2-1.3-0.3-2.2-0.3c-0.3,0-0.7,0-1.1,0.1c-0.4,0.1-0.8,0.1-1.1,0.2c-0.3,0.1-0.7,0.1-0.9,0.2s-0.5,0.1-0.5,0.2v13.5H342.3z"
		/>
	<path d="M366.5,463.2V440l2-0.4v8.3c0.6-0.2,1.3-0.4,2-0.6c0.7-0.1,1.3-0.2,2-0.2c1.2,0,2.2,0.2,3,0.5c0.8,0.3,1.5,0.8,1.9,1.5
		c0.5,0.6,0.8,1.4,1,2.3c0.2,0.9,0.3,1.9,0.3,2.9v8.8h-2V455c0-1.1-0.1-2.1-0.2-2.8c-0.2-0.8-0.4-1.4-0.8-1.9
		c-0.4-0.5-0.8-0.8-1.4-1c-0.6-0.2-1.3-0.3-2.2-0.3c-0.3,0-0.7,0-1.1,0.1s-0.8,0.1-1.1,0.2s-0.7,0.1-0.9,0.2
		c-0.3,0.1-0.5,0.1-0.5,0.2v13.5H366.5z"/>
	<path d="M397.1,455.3c0,1.2-0.2,2.4-0.5,3.4c-0.4,1-0.8,1.9-1.5,2.6c-0.6,0.7-1.4,1.3-2.3,1.7s-1.8,0.6-2.9,0.6s-2-0.2-2.9-0.6
		s-1.6-0.9-2.3-1.7s-1.1-1.6-1.5-2.6c-0.4-1-0.5-2.1-0.5-3.4s0.2-2.4,0.5-3.4c0.4-1,0.8-1.9,1.5-2.6s1.4-1.3,2.3-1.7
		c0.9-0.4,1.8-0.6,2.9-0.6s2,0.2,2.9,0.6c0.9,0.4,1.6,1,2.3,1.7c0.6,0.7,1.1,1.6,1.5,2.6C397,453,397.1,454.1,397.1,455.3z
		 M395,455.3c0-2-0.5-3.5-1.4-4.7s-2.1-1.7-3.7-1.7s-2.8,0.6-3.7,1.7c-0.9,1.2-1.4,2.7-1.4,4.7s0.5,3.5,1.4,4.7
		c0.9,1.2,2.1,1.7,3.7,1.7s2.8-0.6,3.7-1.7C394.6,458.9,395,457.3,395,455.3z"/>
	<path d="M413.9,462.7c-0.6,0.2-1.3,0.4-2.2,0.6c-0.9,0.2-2.1,0.3-3.5,0.3c-1.2,0-2.2-0.2-3.1-0.6s-1.7-0.9-2.4-1.6
		c-0.7-0.7-1.2-1.6-1.6-2.6c-0.4-1-0.6-2.2-0.6-3.4c0-1.2,0.2-2.3,0.5-3.3c0.3-1,0.8-1.9,1.4-2.6c0.6-0.7,1.4-1.3,2.2-1.7
		c0.9-0.4,1.9-0.6,3-0.6c1,0,1.9,0.1,2.7,0.4c0.8,0.3,1.3,0.6,1.7,0.8V440l2-0.4V462.7z M411.9,450.3c-0.2-0.1-0.4-0.3-0.7-0.5
		c-0.3-0.2-0.6-0.3-1-0.5c-0.4-0.1-0.8-0.3-1.2-0.3c-0.4-0.1-0.9-0.1-1.3-0.1c-1,0-1.8,0.2-2.4,0.5s-1.2,0.8-1.6,1.4s-0.7,1.3-0.9,2
		c-0.2,0.8-0.3,1.6-0.3,2.5c0,2.1,0.5,3.6,1.5,4.7c1,1.1,2.4,1.7,4.1,1.7c1,0,1.8,0,2.4-0.1c0.6-0.1,1-0.2,1.3-0.3V450.3z"/>
	<path d="M419.1,448c0.6-0.2,1.4-0.3,2.4-0.5s2.2-0.3,3.6-0.3c1.2,0,2.2,0.2,3,0.5s1.4,0.8,1.9,1.5c0.5,0.6,0.8,1.4,1,2.3
		s0.3,1.9,0.3,2.9v8.8h-2V455c0-1.1-0.1-2.1-0.2-2.8c-0.2-0.8-0.4-1.4-0.8-1.9c-0.4-0.5-0.8-0.8-1.4-1c-0.6-0.2-1.3-0.3-2.2-0.3
		c-0.9,0-1.7,0.1-2.4,0.2c-0.7,0.1-1.1,0.2-1.3,0.3v13.8h-2V448z"/>
	<path d="M449.7,455.3c0,1.2-0.2,2.4-0.5,3.4c-0.4,1-0.8,1.9-1.5,2.6c-0.6,0.7-1.4,1.3-2.3,1.7s-1.8,0.6-2.9,0.6s-2-0.2-2.9-0.6
		s-1.6-0.9-2.3-1.7s-1.1-1.6-1.5-2.6c-0.4-1-0.5-2.1-0.5-3.4s0.2-2.4,0.5-3.4c0.4-1,0.8-1.9,1.5-2.6s1.4-1.3,2.3-1.7
		c0.9-0.4,1.8-0.6,2.9-0.6s2,0.2,2.9,0.6c0.9,0.4,1.6,1,2.3,1.7c0.6,0.7,1.1,1.6,1.5,2.6C449.6,453,449.7,454.1,449.7,455.3z
		 M447.6,455.3c0-2-0.5-3.5-1.4-4.7s-2.1-1.7-3.7-1.7s-2.8,0.6-3.7,1.7c-0.9,1.2-1.4,2.7-1.4,4.7s0.5,3.5,1.4,4.7
		c0.9,1.2,2.1,1.7,3.7,1.7s2.8-0.6,3.7-1.7C447.2,458.9,447.6,457.3,447.6,455.3z M439.4,445.4l-0.9-0.9l4-4.5l4,4.5l-0.9,0.9
		l-3.2-2.9L439.4,445.4z"/>
	<path d="M455.9,447.5h6.2v1.7h-6.2v8.3c0,0.9,0.1,1.6,0.2,2.2c0.2,0.6,0.4,1,0.7,1.3c0.3,0.3,0.6,0.5,1,0.6s0.8,0.2,1.3,0.2
		c0.8,0,1.5-0.1,2-0.3c0.5-0.2,0.9-0.4,1.2-0.5l0.5,1.6c-0.3,0.2-0.8,0.4-1.5,0.6c-0.7,0.2-1.5,0.3-2.3,0.3c-1,0-1.8-0.1-2.4-0.4
		c-0.7-0.3-1.2-0.6-1.6-1.2s-0.7-1.2-0.8-1.9c-0.2-0.8-0.2-1.7-0.2-2.7v-14.4l2-0.4V447.5z"/>
	<path d="M475.9,461.8c1.1,0,2.1-0.2,2.8-0.6c0.7-0.4,1.1-1,1.1-1.9c0-0.4-0.1-0.8-0.2-1.1c-0.1-0.3-0.3-0.6-0.7-0.8
		c-0.3-0.2-0.7-0.5-1.2-0.7c-0.5-0.2-1.1-0.5-1.8-0.8c-0.6-0.2-1.1-0.5-1.7-0.7c-0.5-0.3-1-0.5-1.4-0.9c-0.4-0.3-0.7-0.7-1-1.2
		c-0.2-0.5-0.4-1-0.4-1.7c0-1.3,0.5-2.3,1.4-3.1c1-0.8,2.3-1.2,4-1.2c1.1,0,2,0.1,2.7,0.3c0.7,0.2,1.2,0.3,1.5,0.5l-0.5,1.8
		c-0.2-0.1-0.7-0.3-1.2-0.5s-1.4-0.3-2.5-0.3c-0.4,0-0.9,0-1.3,0.1c-0.4,0.1-0.7,0.2-1,0.4c-0.3,0.2-0.5,0.4-0.7,0.7
		c-0.2,0.3-0.3,0.7-0.3,1.1s0.1,0.8,0.2,1.1c0.2,0.3,0.4,0.6,0.7,0.8c0.3,0.2,0.7,0.5,1.2,0.7s1,0.4,1.6,0.7
		c0.6,0.2,1.2,0.5,1.7,0.7c0.6,0.3,1,0.6,1.5,0.9c0.4,0.4,0.8,0.8,1,1.3c0.3,0.5,0.4,1.1,0.4,1.9c0,1.4-0.5,2.5-1.6,3.2
		c-1.1,0.7-2.5,1.1-4.4,1.1c-1.4,0-2.4-0.1-3.2-0.3c-0.7-0.2-1.2-0.4-1.5-0.5l0.5-1.8c0.1,0,0.2,0.1,0.4,0.2s0.5,0.2,0.8,0.3
		s0.8,0.2,1.2,0.3C474.7,461.7,475.3,461.8,475.9,461.8z"/>
	<path d="M499,455.3c0,1.2-0.2,2.4-0.5,3.4c-0.4,1-0.8,1.9-1.5,2.6c-0.6,0.7-1.4,1.3-2.3,1.7s-1.8,0.6-2.9,0.6s-2-0.2-2.9-0.6
		s-1.6-0.9-2.3-1.7s-1.1-1.6-1.5-2.6c-0.4-1-0.5-2.1-0.5-3.4s0.2-2.4,0.5-3.4c0.4-1,0.8-1.9,1.5-2.6s1.4-1.3,2.3-1.7
		c0.9-0.4,1.8-0.6,2.9-0.6s2,0.2,2.9,0.6c0.9,0.4,1.6,1,2.3,1.7c0.6,0.7,1.1,1.6,1.5,2.6C498.9,453,499,454.1,499,455.3z
		 M496.9,455.3c0-2-0.5-3.5-1.4-4.7s-2.1-1.7-3.7-1.7s-2.8,0.6-3.7,1.7c-0.9,1.2-1.4,2.7-1.4,4.7s0.5,3.5,1.4,4.7
		c0.9,1.2,2.1,1.7,3.7,1.7s2.8-0.6,3.7-1.7C496.5,458.9,496.9,457.3,496.9,455.3z"/>
	<path d="M515,461c0.4-0.9,0.9-1.9,1.3-3s0.9-2.3,1.3-3.5c0.4-1.2,0.8-2.4,1.2-3.6c0.4-1.2,0.7-2.4,0.9-3.4h2
		c-0.4,1.4-0.8,2.9-1.2,4.2c-0.4,1.4-0.9,2.8-1.4,4.1s-1,2.6-1.6,3.9c-0.5,1.2-1.1,2.4-1.6,3.5H514c-0.5-1.1-1.1-2.3-1.6-3.5
		s-1-2.5-1.5-3.9c-0.5-1.3-1-2.7-1.4-4.1c-0.4-1.4-0.9-2.8-1.2-4.2h2.1c0.2,1.1,0.5,2.2,0.9,3.4c0.4,1.2,0.7,2.4,1.2,3.6
		s0.8,2.4,1.3,3.5C514.1,459.2,514.5,460.2,515,461z"/>
	<path d="M534.5,449.1c-0.5,0.5-1.1,1.2-1.8,2.2c-0.7,0.9-1.5,2-2.4,3.1c-0.8,1.1-1.7,2.3-2.5,3.6c-0.8,1.2-1.6,2.4-2.2,3.5h9.2v1.7
		h-11.5v-1.4c0.5-1,1.2-2.1,1.9-3.3c0.8-1.2,1.6-2.4,2.4-3.5c0.8-1.2,1.7-2.2,2.4-3.3c0.8-1,1.5-1.9,2-2.5h-8.3v-1.7h10.7V449.1z"/>
	<path d="M551.7,455.3c0,1.2-0.2,2.4-0.5,3.4c-0.4,1-0.8,1.9-1.5,2.6c-0.6,0.7-1.4,1.3-2.3,1.7s-1.8,0.6-2.9,0.6s-2-0.2-2.9-0.6
		s-1.6-0.9-2.3-1.7s-1.1-1.6-1.5-2.6c-0.4-1-0.5-2.1-0.5-3.4s0.2-2.4,0.5-3.4c0.4-1,0.8-1.9,1.5-2.6s1.4-1.3,2.3-1.7
		c0.9-0.4,1.8-0.6,2.9-0.6s2,0.2,2.9,0.6c0.9,0.4,1.6,1,2.3,1.7c0.6,0.7,1.1,1.6,1.5,2.6C551.5,453,551.7,454.1,551.7,455.3z
		 M549.6,455.3c0-2-0.5-3.5-1.4-4.7s-2.1-1.7-3.7-1.7s-2.8,0.6-3.7,1.7c-0.9,1.2-1.4,2.7-1.4,4.7s0.5,3.5,1.4,4.7
		c0.9,1.2,2.1,1.7,3.7,1.7s2.8-0.6,3.7-1.7C549.1,458.9,549.6,457.3,549.6,455.3z"/>
	<path d="M561.3,447.2c0.6,0,1.3,0.1,1.8,0.2c0.6,0.1,1,0.2,1.2,0.3l-0.4,1.7c-0.2-0.1-0.5-0.2-1-0.3c-0.5-0.1-1.1-0.1-2-0.1
		c-0.8,0-1.5,0.1-2,0.2s-0.9,0.2-1,0.3v13.7h-2v-15c0.5-0.2,1.2-0.5,2.1-0.7C559,447.3,560,447.2,561.3,447.2z"/>
	<path d="M580.7,455.3c0,1.2-0.2,2.4-0.5,3.4c-0.4,1-0.8,1.9-1.5,2.6c-0.6,0.7-1.4,1.3-2.3,1.7s-1.8,0.6-2.9,0.6s-2-0.2-2.9-0.6
		s-1.6-0.9-2.3-1.7s-1.1-1.6-1.5-2.6c-0.4-1-0.5-2.1-0.5-3.4s0.2-2.4,0.5-3.4c0.4-1,0.8-1.9,1.5-2.6s1.4-1.3,2.3-1.7
		c0.9-0.4,1.8-0.6,2.9-0.6s2,0.2,2.9,0.6c0.9,0.4,1.6,1,2.3,1.7c0.6,0.7,1.1,1.6,1.5,2.6C580.5,453,580.7,454.1,580.7,455.3z
		 M578.6,455.3c0-2-0.5-3.5-1.4-4.7s-2.1-1.7-3.7-1.7s-2.8,0.6-3.7,1.7c-0.9,1.2-1.4,2.7-1.4,4.7s0.5,3.5,1.4,4.7
		c0.9,1.2,2.1,1.7,3.7,1.7s2.8-0.6,3.7-1.7C578.1,458.9,578.6,457.3,578.6,455.3z"/>
	<path d="M585,448c0.6-0.2,1.4-0.3,2.3-0.5s2.2-0.3,3.7-0.3c2,0,3.4,0.6,4.3,1.7c0.1-0.1,0.3-0.2,0.6-0.4c0.3-0.2,0.7-0.4,1.1-0.6
		c0.4-0.2,1-0.4,1.6-0.5c0.6-0.1,1.3-0.2,2-0.2c1.2,0,2.2,0.2,2.9,0.5c0.7,0.4,1.3,0.8,1.7,1.5c0.4,0.6,0.7,1.4,0.8,2.3
		c0.1,0.9,0.2,1.9,0.2,2.9v8.8h-2V455c0-1,0-1.9-0.1-2.7c-0.1-0.8-0.3-1.4-0.5-1.9c-0.3-0.5-0.7-0.9-1.2-1.1s-1.2-0.4-2-0.4
		c-0.6,0-1.2,0.1-1.7,0.2c-0.5,0.1-0.9,0.2-1.3,0.4s-0.7,0.3-0.9,0.5c-0.2,0.2-0.4,0.3-0.5,0.4c0.2,0.5,0.3,1.1,0.4,1.8
		c0.1,0.7,0.1,1.3,0.1,2.1v8.9h-2V455c0-1,0-1.9-0.1-2.7c-0.1-0.8-0.3-1.4-0.6-1.9c-0.3-0.5-0.7-0.9-1.2-1.1s-1.2-0.4-2-0.4
		c-1,0-1.8,0.1-2.4,0.2c-0.7,0.1-1.1,0.2-1.3,0.3v13.8h-2V448z"/>
	<path d="M613.9,449.1c0,0.5-0.1,0.9-0.4,1.2c-0.3,0.3-0.7,0.5-1.2,0.5c-0.5,0-0.9-0.2-1.2-0.5c-0.3-0.3-0.4-0.7-0.4-1.2
		c0-0.5,0.1-0.9,0.4-1.2c0.3-0.3,0.7-0.5,1.2-0.5c0.5,0,0.9,0.2,1.2,0.5C613.8,448.3,613.9,448.7,613.9,449.1z M613.9,461.9
		c0,0.5-0.1,0.9-0.4,1.2c-0.3,0.3-0.7,0.5-1.2,0.5c-0.5,0-0.9-0.2-1.2-0.5c-0.3-0.3-0.4-0.7-0.4-1.2c0-0.5,0.1-0.9,0.4-1.2
		c0.3-0.3,0.7-0.5,1.2-0.5c0.5,0,0.9,0.2,1.2,0.5C613.8,461,613.9,461.4,613.9,461.9z"/>
</g>
<g>
	<circle class="st0" cx="360.4" cy="494.8" r="4.7"/>
	<circle class="st0" cx="360" cy="543.3" r="4.7"/>
	<circle class="st0" cx="360" cy="591.8" r="4.7"/>
	<circle class="st0" cx="360" cy="642" r="4.7"/>
</g>
<g>
</g>
<g>
</g>
<g>
</g>
<g>
</g>
<g>
</g>
<g>
</g>
<g>
</g>
<g>
</g>
<g>
</g>
<g>
</g>
<g>
</g>
<g>
</g>
<g>
</g>
<g>
</g>
<g>
</g>
</svg>
