<?xml version="1.0" encoding="utf-8"?>
<!-- Generator: Adobe Illustrator 21.0.0, SVG Export Plug-In . SVG Version: 6.00 Build 0)  -->
<svg version="1.1" xmlns="http://www.w3.org/2000/svg" xmlns:xlink="http://www.w3.org/1999/xlink" x="0px" y="0px"
	 viewBox="0 0 1000 1000" style="enable-background:new 0 0 1000 1000;" xml:space="preserve">
<style type="text/css">
	.st0{display:none;}
	.st1{display:inline;}
	.st2{fill:#AC7651;}
	.st3{display:inline;fill:#AC7651;}
</style>
<g id="Layer_1" class="st0">
	<g class="st1">
		<g id="LWPOLYLINE_20_">
			<g>
				<g>
					<path class="st2" d="M517.9,835.2c16.5-17.2,32.9-34.4,49-51.9c16.7-18,33.2-36.1,49.5-54.4c9-10.2,18-20.4,27-30.6
						c-1.2,0.5-2.4,1-3.5,1.5c14,0,28,0,42,0c-1.2-2.8-2.4-5.7-3.5-8.5c-21.1,18.6-42.4,37.1-63.9,55.3
						c-20.6,17.5-41.5,34.8-62.5,51.9c-12.2,10-24.5,19.8-36.8,29.7c2-0.3,4-0.5,6.1-0.8c-7.3-5.1-14.4-10.5-22-15.2
						c-1.3,3-2.6,6.1-3.9,9.1c2.3,0.9-0.9-1.2-0.5-0.5c0.2,0.4,1,0.9,1.4,1.2c1.9,1.7,3.8,3.5,5.7,5.2c3,2.7,5.9,5.3,8.9,8
						c4.8,4.3,11.9-2.8,7.1-7.1c-3.3-3-6.7-6-10-9c-3.1-2.8-5.9-5.9-9.9-7.5c-5.4-2.1-8.5,6.3-3.9,9.1c7.5,4.7,14.7,10.1,22,15.2
						c2,1.4,4.4,0.5,6.1-0.8c21.6-17.3,43.1-34.8,64.4-52.4c20.9-17.3,41.7-34.9,62.3-52.7c12.2-10.5,24.3-21.2,36.4-31.8
						c3.3-2.9,0.6-8.5-3.5-8.5c-7.8,0-15.6,0-23.5,0c-4.9,0-9.9,0-14.8,0c-2.9,0-5.2-0.3-7.5,1.8c-5.5,5-10.1,11.6-15.1,17.2
						c-5.4,6.1-10.7,12.1-16.1,18.2c-19.2,21.5-38.7,42.8-58.4,63.8c-11.8,12.5-23.6,25-35.5,37.4
						C506.4,832.7,513.4,839.8,517.9,835.2z"/>
				</g>
			</g>
		</g>
		<g id="LWPOLYLINE_32_">
			<g>
				<g>
					<path class="st2" d="M558.9,887.4c25.6,0,51.3,0.8,76.9,0c7.9-0.2,15.8-0.8,23.7-1.3c6.4-0.3,6.5-10,0-10c-1.6,0-3.3-0.2-4.9,0
						c-1.2,0.1-1.9,0.4-2.9,0.8c-0.5,0.2-1.1,0.4-1.5,0.7c-1.7,1,1.1-0.3,1.2-0.2c-1-1.1-8.4,0-10.1,0c-6.7,0-13.3,0-20,0
						c-13.7,0-27.5,0-41.2,0c-7.1,0-14.1,0-21.2,0C552.5,877.4,552.5,887.4,558.9,887.4c26.5,0,53.1,0,79.6,0c3.8,0,7.6,0.1,11.4,0
						c2.2,0,4.2-0.4,6.1-1.5c1.5-0.9-2.9,0,0.1,0.2c1.1,0.1,2.3,0,3.4,0c0-3.3,0-6.7,0-10c-26.2,1.4-52.2,1.3-78.4,1.3
						c-7.4,0-14.8,0-22.2,0C552.5,877.4,552.5,887.4,558.9,887.4z"/>
				</g>
			</g>
		</g>
		<g id="LWPOLYLINE_168_">
			<g>
				<g>
					<path class="st2" d="M804.8,129.6c-23.7,0-47.4,0-71.1,0c-6.4,0-6.4,10,0,10c28.7,0,57.3,0,86,0c5.6,0,11.2,0,16.8,0
						c6.4,0,6.4-10,0-10c-26.4,0-52.9,0-79.3,0c-3.8,0-7.7,0-11.5,0c-1.7,0-3.5,0.9-4.3,2.5c-4.6,8.7-9.2,17.4-13.8,26.1
						c-2.4,4.6-4.9,9.2-7.3,13.8c-1.8,3.3-1.7,5.7,0.3,9c9.2,15.6,18.5,31.2,26.9,47.3c8.3,16.1,16.6,32.1,24,48.6
						c2.4,5.4,4.8,10.8,7.2,16.1c1,2.2-0.6-1.6,0.5,1.2c1,2.5,2.1,5,3.1,7.6c3.6,8.6,7,17.2,10.3,26c7.2,19.1,13.4,38.5,19.4,58
						c0.7,2.3,2.6,3.4,4.8,3.7c2.1,0.2,4.2,0.4,6.3,0.6c1.8,0.2,3.4-1.1,4.3-2.5c7.6-11.5,13.8-23.3,17.2-36.7
						c-3.3-0.4-6.5-0.9-9.8-1.3c0,12.4,0,24.7,0,37.1c0,6.2-0.1,12.5,0,18.7c0,0.5,0,1.1,0,1.6c0.1-1.5,0.1-0.9-0.4,0.5
						c-1.2,3.5-2.3,7.1-3.4,10.6c-1.4,4.9,0.4,10.7,1.2,15.7c0.6,4.1,1.2,8.1,1.8,12.2c0.2,1.4,0.4,2.9,0.6,4.3
						c0.2,1.2,0,2.4,0.1,0.4c-0.4,11.4,0,22.9,0,34.3c0,13.4,0,26.9,0,40.3c3.3,0,6.7,0,10,0c-3-24.1-8.1-47.4-15-70.7
						c-0.7-2.2-2.6-3.6-4.8-3.7c-2-0.1-4.1-0.2-6.1-0.2c-1.7-0.1-3.5,1-4.3,2.5c-7.6,14.6-15.9,28.8-25.6,42.1
						c-1.6,2.2-3.3,4.4-4.9,6.6c-0.6,0.8-1.1,1.5-1.7,2.3c0.7-1,0.2-0.3-0.7,0.9c-2.6,3.2-5.1,6.5-7.7,9.7
						c-5.5,6.6-11.2,13.2-17,19.5c-6.2,6.7-12.6,13.2-19.2,19.6c-4.2,4.1-12.4,8.8-12.1,15.2c1.1,19.5,3.5,39.1,5.3,58.5
						c1.7,19.4,3.5,38.7,5.2,58.1c0.2,2.5,1.5,3.9,3.7,4.8c2,0.8,4,1.7,6,2.5c0.8,0.3,1.6,0.6,2.4,1c-2.2-0.9,0.7,0.3,1.3,0.6
						c4.1,1.8,8.2,3.6,12.2,5.5c6.8,3.2,13.4,6.6,19.9,10.2c6.9,3.8,13.6,7.9,20,12.4c1.4,0.9,2.7,1.9,4,2.9c0.4,0.3,3.2,2.4,1.4,1
						c1,0.8,2,1.6,3,2.4c3,2.4,5.8,4.9,8.5,7.5c1.6,1.6,3.2,3.2,4.7,4.9c0.5,0.6,1.1,1.2,1.6,1.8c0.4,0.4,2.8,3.5,1.5,1.8
						c2.7,3.6,4.9,7.4,6.9,11.4c1.9,3.8,8.2,2.9,9.1-1.2c0.7-3,1.4-6,2.1-9c-3.3-0.4-6.5-0.9-9.8-1.3c0,43.8,0,87.5,0,131.3
						c0,6.3,0,12.5,0,18.8c1.7-1.7,3.3-3.3,5-5c-38,0-75.9,0-113.9,0c-40.2,0-80.3,0-120.5,0c-39.3,0-78.6,0-117.9,0
						c-39.4,0-78.7,0-118.1,0c-38.5,0-77,0-115.5,0c-4.4,0-8.8,0-13.2,0c1.6,1.2,3.2,2.4,4.8,3.7c-0.2-0.9-0.3-1.8-0.5-2.7
						c-0.1-0.6-0.8-5-0.6-2.3c0.2,2.5,0.4-0.9,0.5-1.8c0.2-1,0.4-2.1,0.6-3.1c-1.6,1.2-3.2,2.4-4.8,3.7c24,0,47.9,0,71.9,0
						c6.4,0,6.4-10,0-10c-2.4,0-4.8,0-7.3,0c0,3.3,0,6.7,0,10c20.3,0,40.6,0,60.9,0c6.4,0,6.4-10,0-10c-20.3,0-40.6,0-60.9,0
						c-6.4,0-6.4,10,0,10c2.4,0,4.8,0,7.3,0c0-3.3,0-6.7,0-10c-24,0-47.9,0-71.9,0c-2,0-4.4,1.5-4.8,3.7c-0.4,2.4-1.3,5.1-1.3,7.6
						c0,2.5,0.9,5.2,1.3,7.6c0.4,2.1,2.8,3.7,4.8,3.7c37.8,0,75.6,0,113.5,0c39.6,0,79.1,0,118.7,0c40,0,80,0,120,0
						c39.1,0,78.2,0,117.3,0c38.8,0,77.7,0,116.5,0c4.4,0,8.8,0,13.2,0c2.7,0,5-2.3,5-5c0-43.8,0-87.5,0-131.3c0-6.3,0-12.5,0-18.8
						c0-5.5-8.5-6.9-9.8-1.3c-0.7,3-1.4,6-2.1,9c3-0.4,6.1-0.8,9.1-1.2c-14.2-28.6-46-46-73.8-59.3c-8.5-4-17.1-7.7-25.8-11.3
						c1.2,1.6,2.4,3.2,3.7,4.8c-3.1-34.5-6.2-69.1-9.3-103.6c-0.4-4.8-0.9-9.7-1.3-14.5c-0.5,1.2-1,2.4-1.5,3.5
						c27.1-25.5,52.9-52.9,72.8-84.5c5.8-9.3,11.2-18.7,16.2-28.4c-1.4,0.8-2.9,1.7-4.3,2.5c2,0.1,4.1,0.2,6.1,0.2
						c-1.6-1.2-3.2-2.4-4.8-3.7c3.5,11.6,6.7,23.1,9.3,35c1.1,5.2,2.1,10.4,3,15.7c0.3,1.8,0.6,3.6,0.9,5.4c0.1,0.7,0.2,1.4,0.3,2
						c-0.4-2.4-0.1-0.8,0-0.3c0.4,3.4,0.8,6.8,1.3,10.2c0.8,6.2,10,6.6,10,0c0-24.5,0.9-49.2,0-73.7c-0.2-4.1-1.1-8.2-1.7-12.2
						c-0.6-4.1-1.2-8.3-1.9-12.4c-0.1-0.8-0.3-6.7-1.1-7.2c0.7,0.4-0.8,3.4,0.2,2c0.3-0.4,0.4-1.2,0.5-1.7c0.6-2,1.3-4,1.9-6
						c0.7-2.3,1.8-4.6,2-7.1c0.4-4.6,0-9.4,0-14c0-14.5,0-29,0-43.5c0-5.6-8.4-6.9-9.8-1.3c-0.8,3.3-1.7,6.5-2.8,9.7
						c-0.5,1.5-1.1,2.9-1.7,4.4c-0.4,1,0.7-1.4-0.4,0.8c-0.5,1-1,2.1-1.5,3.1c-2.8,5.7-6.2,11.1-9.8,16.4c1.4-0.8,2.9-1.7,4.3-2.5
						c-2.1-0.2-4.2-0.4-6.3-0.6c1.6,1.2,3.2,2.4,4.8,3.7c-8.9-29.1-18.8-57.6-30.4-85.7c-11-26.7-23.5-52.8-37.2-78.1
						c-8.3-15.4-17.2-30.4-26.1-45.5c0,1.7,0,3.4,0,5c7.4-13.9,14.7-27.8,22.1-41.7c-1.4,0.8-2.9,1.7-4.3,2.5c26.4,0,52.9,0,79.3,0
						c3.8,0,7.7,0,11.5,0c0-3.3,0-6.7,0-10c-27.2,0-54.5,0-81.7,0c-7,0-14,0-21,0c0,3.3,0,6.7,0,10c23.7,0,47.4,0,71.1,0
						C811.2,139.6,811.2,129.6,804.8,129.6L804.8,129.6z"/>
				</g>
			</g>
		</g>
		<g id="LWPOLYLINE_169_">
			<g>
				<g>
					<path class="st2" d="M759.3,139.6c23.4,0,46.7,0,70.1,0c6.4,0,6.4-10,0-10c-25.7,0-51.4,0-77.1,0c-3.7,0-7.4,0-11.1,0
						c0,3.3,0,6.7,0,10c25.9-0.2,51.8,0,77.7,0c6.9,0,13.9,0,20.8,0c2.7,0,5-2.3,5-5c0-9.9,0-19.7,0-29.6c0-2.7-2.3-5-5-5
						c-25.2,0-50.4,0-75.6,0c-19.2,0-38.4,0-57.6,0c-21.9,0-43.7,0-65.6,0c-22.4,0-44.8,0-67.2,0c-21.7,0-43.4,0-65.1,0
						c-22.5,0-45,0-67.5,0c-22.6,0-45.1,0-67.7,0c-22.3,0-44.5,0-66.8,0c-22,0-44,0-66.1,0c-21.9,0-43.8,0-65.7,0
						c-4.9,0-9.7,0-14.6,0c-2.7,0-5,2.3-5,5c0,11.9,0,23.9,0,35.8c0,2.7,2.3,5,5,5c10.4,0.1,20.9,0,31.3-0.1
						c-1.6-1.2-3.2-2.4-4.8-3.7c8.4,24.3,17.1,48.6,27.8,72.1c10.9,24,22.2,47.8,35.2,70.8c7.7,13.7,15.7,27.3,23.8,40.8
						c-0.2-1.3-0.3-2.6-0.5-3.9c-3.3,22.2-6.6,44.4-10,66.6c1.2-1.2,2.3-2.3,3.5-3.5c-22.2,3.7-44.4,7.7-66.1,13.5
						c-10.9,2.9-22,6.1-32.2,11.1c-4.6,2.3-12.3,6.1-13,11.8c-0.5,4.3,0,8.9,0,13.2c0,14.8,0,29.6,0,44.5c0,3,3.2,6,6.3,4.8
						c0.6-0.2,1.2-0.5,1.8-0.7c5.9-2.3,3.4-11.9-2.7-9.6c-0.6,0.2-1.2,0.5-1.8,0.7c-5,1.9-4.7,9.9,1.3,9.8
						c19.1-0.3,38.2-0.5,57.3-0.8c7-0.1,14.6,0.5,21.6-0.3c2.4-0.3,3.5-1.5,5-3.1c1.9-2,2.2-2.1,4.1-3.3c3.1-2,6.4-3.7,9.8-5.2
						c4.6-2.1,6.5-2.8,12.1-4.8c2-0.7,4-1.4,6-2c0.5-0.2,1.2-0.3,1.7-0.6c2.8-1.4-0.8,1.2-0.9-0.4c0,0.2,3.8,1,4.2,1.1
						c-1.2-2.1-2.3-4.1-3.5-6.2c-3.6,23.8-7.1,47.6-10.7,71.3c-5.6,37.7-11.3,75.5-16.9,113.2c-1.3,8.7-2.6,17.5-3.9,26.2
						c0.8-1,1.5-2,2.3-3c-26.4,14.4-53.1,30.6-73.1,53.4c-4.9,5.5-9.4,11.4-13,17.8c-2.7,4.8-6.6,11.2-6.8,16.8
						c-0.5,17.8-0.1,35.7-0.2,53.5c-0.1,17.3-0.1,34.6-0.2,51.9c0,3.3,3.2,5.6,6.3,4.8c3-0.7,6-1.4,9-2.2c-2.1-2.1-4.1-4.1-6.2-6.2
						c-1.4,8.4-3.1,16.6-4.5,25c1.6-1.2,3.2-2.4,4.8-3.7c-1.5,0-3.1,0-4.6,0c-2.7,0-5,2.3-5,5c0,4.2,0,8.4,0,12.6c0,2.7,2.3,5,5,5
						c38,0,75.9,0,113.9,0c40.2,0,80.3,0,120.5,0c39.3,0,78.6,0,117.9,0c39.4,0,78.7,0,118.1,0c38.5,0,77,0,115.5,0
						c4.4,0,8.8,0,13.2,0c3.7,0,6.3-4.3,4.3-7.5c-1.3-2.1-2.6-4.2-3.8-6.3c-1.4,2.5-2.9,5-4.3,7.5c24.3-2.1,48.7-4.2,73-6.3
						c2.8-0.2,4.9-2.1,5-5c0.5-15.2,1-30.5,1.5-45.7c0.3-9.9,0.7-19.7,1-29.6c0.1-2.6,0.3-5.2,0.3-7.8c0-2.8-1.1-4.6-3-6.7
						c-9.3-10.6-21.1-19.1-33-26.6c-11-7-22.5-13.5-34.4-18.9c-16.3-7.5-32.5-15-49.2-21.6c-1.6-0.6-3.7,0.1-4.9,1.3
						c-20.3,20.4-41,40.4-62.5,59.5c-21.9,19.4-44.2,38.4-67.1,56.5c-4,3.1-8,6.3-11.9,9.4c-0.9,0.7,1.4-1.1,0.2-0.2
						c-0.8,0.6-1.6,1.2-2.4,1.8c-2.2,1.7-4.4,3.4-6.6,5.1c-3.4,2.6-7.4,4.6-7.4,9.3c0,4.7,0.4,9.4,0.6,14.1c0.1,2.7,2.2,5,5,5
						c25.9,0,51.9,0,77.8,0c25.9,0,51.9,0,77.8,0c14.3,0,28.6,0,43,0c6.4,0,6.4-10,0-10c-13.2,0-26.3,0-39.5,0c-6.4,0-6.4,10,0,10
						c26.2,0,52.4,0,78.5,0c0-3.3,0-6.7,0-10c-43.5,0-87,0-130.5,0c-6.1,0-12.2,0-18.2,0c0,3.3,0,6.7,0,10c40.5,0,81,0,121.6,0
						c10.9,0,21.8,0,32.7,0c0-3.3,0-6.7,0-10c-0.6,0-1.3,0-1.9,0c-6.4,0-6.4,10,0,10c10.2,0,20.3,0,30.5,0c6.4,0,6.4-10,0-10
						c-25.5,0-51,0-76.5,0c1.7,1.7,3.3,3.3,5,5c0-28.1,0-56.3,0-84.4c0-6.4-10-6.4-10,0c0,28.1,0,56.3,0,84.4c0,2.7,2.3,5,5,5
						c25.5,0,51,0,76.5,0c0-3.3,0-6.7,0-10c-10.2,0-20.3,0-30.5,0c0,3.3,0,6.7,0,10c0.6,0,1.3,0,1.9,0c6.4,0,6.4-10,0-10
						c-40.5,0-81,0-121.6,0c-10.9,0-21.8,0-32.7,0c-6.4,0-6.4,10,0,10c43.5,0,87,0,130.5,0c6.1,0,12.2,0,18.2,0c6.4,0,6.4-10,0-10
						c-26.2,0-52.4,0-78.5,0c0,3.3,0,6.7,0,10c13.2,0,26.3,0,39.5,0c0-3.3,0-6.7,0-10c-25.3,0-50.6,0-75.8,0c-26,0-52,0-78,0
						c-14.9,0-29.8,0-44.7,0c1.7,1.7,3.3,3.3,5,5c-0.2-5.1-0.4-10.2-0.6-15.3c-0.8,1.4-1.7,2.9-2.5,4.3c21.6-16.6,43-33.5,63.8-51.1
						c20.4-17.2,40.4-34.8,59.7-53.2c11.5-10.9,22.7-22,33.9-33.3c-1.6,0.4-3.2,0.9-4.9,1.3c3.9,1.6,7.9,3.1,11.8,4.7
						c1.5,0.6,2.9,1.2,4.4,1.8c0.5,0.2,3,1.3,1.7,0.7c-1.2-0.5,0.1,0.1,0.4,0.2c0.8,0.4,1.7,0.8,2.5,1.2c9.8,4.5,19.8,8.9,29.5,13.6
						c15.3,7.4,29.7,16.3,43.6,26c1.8,1.2-0.6-0.5,1.5,1.1c1.1,0.9,2.2,1.7,3.3,2.6c1.7,1.4,3.4,2.8,5,4.2
						c3.6,3.2,6.9,6.7,10.1,10.3c-0.5-1.2-1-2.4-1.5-3.5c-0.9,28.1-1.9,56.3-2.8,84.4c1.7-1.7,3.3-3.3,5-5
						c-24.3,2.1-48.7,4.2-73,6.3c-3.6,0.3-6.4,4.1-4.3,7.5c1.3,2.1,2.6,4.2,3.8,6.3c1.4-2.5,2.9-5,4.3-7.5c-37.8,0-75.6,0-113.5,0
						c-39.6,0-79.1,0-118.7,0c-40,0-80,0-120,0c-39.1,0-78.2,0-117.3,0c-38.8,0-77.7,0-116.5,0c-4.4,0-8.8,0-13.2,0
						c1.7,1.7,3.3,3.3,5,5c0-4.2,0-8.4,0-12.6c-1.7,1.7-3.3,3.3-5,5c1.5,0,3.1,0,4.6,0c2,0,4.5-1.5,4.8-3.7c1.3-8.4,3.1-16.6,4.5-25
						c0.6-3.7-2.2-7.1-6.2-6.2c-3,0.7-6,1.4-9,2.2c2.1,1.6,4.2,3.2,6.3,4.8c0.1-32.6,0.3-65.1,0.4-97.7c0-2.5,0.1-5,0-7.5
						c0-0.3,0.2-1.2,0-1.5c-0.2-0.2,1.1-2.6-0.3,1c-1,2.6,0.7-1,1-1.7c2.8-6.3,5.8-12.1,9.8-17.8c0.3-0.4,1.9-2.7,0.7-1.1
						c0.6-0.9,1.3-1.7,2-2.5c1.2-1.5,2.3-2.8,3.6-4.2c2.2-2.5,4.4-4.9,6.8-7.2c2.7-2.6,5.5-5.1,8.3-7.6c1.1-1,2.2-1.9,3.3-2.8
						c1-0.8,2-1.6,2.9-2.4c1.6-1.4-0.5,0.3,0.7-0.6c11.1-8.6,22.8-16.4,35-23.4c3.3-1.9,6.6-3.8,10-5.6c2.6-1.4,5.5-2.4,6.4-5.5
						c0.8-2.7,0.9-5.8,1.3-8.6c5.4-36,10.7-71.9,16.1-107.9c4.6-30.8,9.3-61.6,13.8-92.4c0.1-0.5,0.2-1.1,0.2-1.6
						c0.4-2.7-0.6-5.4-3.5-6.2c-2.6-0.7-4.9-1.6-7.6-1c-2.2,0.4-4.4,1.4-6.5,2.2c-4.2,1.4-8.3,3-12.4,4.7c-7.8,3.3-16.2,7-21.7,13.7
						c1.2-0.5,2.4-1,3.5-1.5c-26.3,0.4-52.7,0.7-79,1.1c0.4,3.3,0.9,6.5,1.3,9.8c0.6-0.2,1.2-0.5,1.8-0.7c-0.9-3.2-1.8-6.4-2.7-9.6
						c-0.6,0.2-1.2,0.5-1.8,0.7c2.1,1.6,4.2,3.2,6.3,4.8c0-19.2,0-38.5,0-57.7c-0.5,1.2-1,2.4-1.5,3.5c2.4-2.8,3.9-3.8,7.8-5.8
						c0.8-0.4,1.5-0.8,2.3-1.1c0.5-0.2,3.1-1.4,1.5-0.7c1.9-0.8,3.9-1.6,5.9-2.3c6.8-2.5,13.7-4.6,20.7-6.4
						c14-3.8,28.2-6.7,42.4-9.4c8.3-1.6,16.6-3,24.8-4.4c1.5-0.3,3.3-2,3.5-3.5c2.9-19.7,5.9-39.3,8.8-59c0.4-2.5,0.9-5.1,1.1-7.6
						c0.4-4.2-2.9-7.9-5-11.4c-4.6-7.6-9.1-15.2-13.5-22.9c-8.8-15.7-17.4-31.5-25.3-47.6c-3.9-8-7.8-16-11.5-24.2
						c-1.1-2.5-2.3-5-3.4-7.5c-0.4-0.9-0.8-1.9-1.3-2.8c-0.6-1.3-0.5-1-0.1-0.1c-2-4.6-3.9-9.3-5.9-14c-7.5-18-14-36.3-20.4-54.7
						c-0.7-2.1-2.5-3.7-4.8-3.7c-10.4,0.1-20.9,0.2-31.3,0.1c1.7,1.7,3.3,3.3,5,5c0-11.9,0-23.9,0-35.8c-1.7,1.7-3.3,3.3-5,5
						c21.5,0,43,0,64.5,0c22.1,0,44.2,0,66.2,0c22.1,0,44.1,0,66.2,0c22.3,0,44.5,0,66.8,0c22.1,0,44.2,0,66.4,0
						c22.6,0,45.2,0,67.8,0c22,0,44,0,66.1,0c22.3,0,44.6,0,66.9,0c21.3,0,42.6,0,64,0c25.1,0,50.1,0,75.2,0c3.1,0,6.2,0,9.3,0
						c-1.7-1.7-3.3-3.3-5-5c0,9.9,0,19.7,0,29.6c1.7-1.7,3.3-3.3,5-5c-25.6,0-51.1,0-76.7,0c-7.3,0-14.5-0.1-21.8,0
						c-6.4,0.1-6.4,10,0,10c25.7,0,51.4,0,77.1,0c3.7,0,7.4,0,11.1,0c0-3.3,0-6.7,0-10c-23.4,0-46.7,0-70.1,0
						C752.9,129.6,752.9,139.6,759.3,139.6L759.3,139.6z"/>
				</g>
			</g>
		</g>
		<g id="LWPOLYLINE_176_">
			<g>
				<g>
					<path class="st2" d="M661.3,156.3c-12.5,6.5-25.1,12.8-37.8,18.8c-6,2.8-12,5.6-18.1,8.2c-3.1,1.3-6.1,2.7-9.2,4
						c-2.1,0.9-4.1,1.8-6.2,2.6c-0.8,0.3-1.5,0.6-2.3,1c-1.7,0.7,1.3-0.5-0.1,0c-26.4,10.8-52.7,21.4-79,32.6
						c-14.7,6.3-29.4,12.5-44.1,18.8c-5.9,2.5-0.8,11.1,5,8.6c28.4-12.1,56.7-24.2,85.1-36.3c0.5-0.2,3.9-1.6,2.7-1.1
						c-1.3,0.5,0.7-0.3,1-0.4c0.9-0.3,1.8-0.7,2.8-1.1c2.2-0.8,4.4-1.7,6.5-2.5c6.2-2.4,12.3-4.9,18.5-7.4c13-5.3,26-11,38.8-16.9
						c14-6.5,27.8-13.4,41.5-20.5C672.1,161.9,667,153.3,661.3,156.3L661.3,156.3z"/>
				</g>
			</g>
		</g>
		<g id="LWPOLYLINE_178_">
			<g>
				<g>
					<path class="st2" d="M623.5,156.3c-31.5,20.8-64.2,39.5-98.1,56c-17.6,8.5-35.5,16.3-53.1,24.8c-17.1,8.3-33.9,17.2-50.5,26.5
						c-18.3,10.4-36.1,21.7-53.6,33.5c-5.3,3.6-0.3,12.3,5,8.6c31.6-21.4,64.6-40.5,98.8-57.4c16.5-8.2,33.5-15.5,50.1-23.4
						c17.8-8.5,35.3-17.5,52.5-27.1c18.4-10.2,36.3-21.3,53.9-32.9C633.9,161.4,628.9,152.7,623.5,156.3L623.5,156.3z"/>
				</g>
			</g>
		</g>
		<g id="LWPOLYLINE_180_">
			<g>
				<g>
					<path class="st2" d="M807.1,356.9c10.6,0,21.3,0,31.9,0c6.4,0,6.4-10,0-10c-10.6,0-21.3,0-31.9,0
						C800.7,346.9,800.7,356.9,807.1,356.9L807.1,356.9z"/>
				</g>
			</g>
		</g>
		<g id="LWPOLYLINE_181_">
			<g>
				<g>
					<path class="st2" d="M612.9,230.6c8.1,20.1,16.3,40.1,24.4,60.2c12.9,31.8,25.8,63.6,38.8,95.5c3,7.4,6,14.7,9,22.1
						c0.4-1.6,0.9-3.2,1.3-4.9c-22.7,24.9-45.3,49.7-68,74.6c-3.2,3.6-6.5,7.1-9.7,10.7c1.6-0.4,3.2-0.9,4.9-1.3
						c-25.6-7-51.2-13.9-76.8-20.9c-40.6-11-81.2-22.1-121.8-33.1c-9.3-2.5-18.6-5.1-28-7.6c-6.4-1.7-8.5,7.3-2.7,9.6
						c2.9,1.2,5.9,2.4,8.8,3.6c2.7,1.1,5.9,3.2,8.9,2.5c5.3-1.2,4.1-7.9,0-9.6c-3.5-1.5-7.1-2.9-10.6-4.4c-1.7-0.7-3.5-1.5-5.2-2.2
						c-1-0.4-0.8-0.4,0.1,0.1c-0.9-0.4-1.8-0.8-2.7-1.2c-1.1-0.5-2.2-1-3.4-1.5c-1.1-0.5-2.3-1.6-1.1,0c1.6,2,0.5,0.2,0.3-0.3
						c-0.4-1-1-2-1.4-3c-1.1-2.3-2.2-4.6-3.4-6.9c-0.5-1.1-1.3-4.1-2.3-4.7c0.8,0.5,0,3.2,0.7,1.4c0.4-0.9,0.3-2.3,0.4-3.3
						c0.5-3.7,1-7.4,1.5-11.2c1.4-10.3,2.7-20.6,4.1-30.9c0.9-6.7,1.8-13.5,2.7-20.2c-0.8,1.4-1.7,2.9-2.5,4.3
						c15.5-10.1,31.3-19.9,47.4-29.1c8.5-4.8,17.1-9.5,25.8-14.1c1.8-1,3.7-1.9,5.6-2.9c1.2-0.6,2.5-1.2,3.7-1.9
						c1.7-1-0.9,0.3-0.2,0c2.2-1,4.4-1.8,6.6-2.8c38.8-16.2,77.7-32.1,116.6-48.2c19.4-8,38.5-16.8,57.5-25.9c-2.4-1-4.9-2-7.3-3
						c4.6,12.7,11.6,24.6,17.6,36.7c6.5,13,12.9,26.1,19.2,39.2c6,12.6,11.8,25.3,17.6,38c1,2.2,2,4.5,3,6.7
						c0.9,2.1,1.8,4.1,2.7,6.2c0.3,0.6,0.5,1.2,0.8,1.8c-0.1-0.2-0.6-1.5-0.1-0.2c2.6,6.3,5.4,12.7,7.9,19.1
						c5.9,14.8,11.1,29.7,15.8,44.9c0.2-1.3,0.3-2.6,0.5-3.9c-6.1,9.4-12.4,18.7-18.9,27.8c-2.9,4.1-5.9,8.2-9,12.2
						c-1.9,2.6-3.9,5.1-5.9,7.6c-0.3,0.4-2.3,3-1.6,2c0.8-1-0.1,0.1-0.3,0.3c-0.5,0.7-1.1,1.4-1.6,2.1c-7.2,9.1-14.6,18-22.1,26.9
						c-1.3,1.6-2.7,3.1-4,4.6c-1.3,1.4-2.5,2.9-3.8,4.3c-0.5,0.5-1.1,1.1-1.5,1.7c-0.6,0.9-1.6,1,0.2,0.3c2.6-1-0.7,0-1.3,0.2
						c-1.7,0.6-3.4,1.1-5.2,1.7c-3.4,1.1-7,2.1-10.4,3.5c-3.2,1.3,0.2-0.3,0.6,0.5c-0.3-0.5-2.9-1-3.5-1.2
						c-4.1-1.4-8.2-2.8-12.4-4.2c-5.4-1.8-10.8-3.5-16.3-5.1c-6.2-1.9-8.8,7.8-2.7,9.6c5.4,1.6,10.9,3.3,16.3,5.1
						c4.2,1.4,8.5,2.9,12.7,4.3c2.5,0.8,4.2,1.6,6.8,0.8c3.7-1,7.3-2.4,10.9-3.6c2.9-1,6.6-1.6,9.2-3.2c2.8-1.7,5-5.4,7.1-7.8
						c1.7-1.9,3.3-3.8,5-5.8c16.4-19.4,32.2-39.3,46.7-60.2c3.8-5.4,7.4-10.9,11-16.4c2-3,3.2-5,2.2-8.7c-1-3.7-2.3-7.4-3.4-11
						c-3.7-11.2-7.8-22.2-12.2-33.1c-9.8-24.3-20.7-48.1-31.9-71.8c-11-23.2-22.6-46.1-34-69.1c-0.4-0.8-0.9-1.7-1.3-2.5
						c0.8,1.8,0,0-0.2-0.6c-0.3-0.9-0.6-1.8-1-2.7c-1.2-3.2-4.3-4.5-7.3-3c-11.5,5.5-23,11-34.7,16.1c-6.7,2.9-13.4,5.8-20.2,8.7
						c-1.3,0.5,1.2-0.5,0.3-0.1c-0.8,0.3-1.6,0.6-2.4,1c-2.2,0.9-4.3,1.8-6.5,2.7c-2.9,1.2-5.8,2.3-8.7,3.5
						c-27.7,11-55.2,22.8-82.7,34.3c-9.9,4.1-20.1,7.9-29.7,12.9c-11.4,5.9-22.7,12-33.8,18.4c-11.9,6.8-23.6,13.9-35.1,21.3
						c-4.7,3-11.2,5.5-12,11.5c-0.9,6.7-1.8,13.4-2.6,20.1c-1.3,9.7-2.5,19.4-3.8,29.1c-0.7,5.1-2.3,11-2.1,16.2
						c0.1,2.8,2.3,6,3.5,8.4c1.6,3.3,2.9,7.2,5,10.2c2,2.9,6.6,3.9,9.7,5.2c3,1.3,6,2.5,9,3.7c3.1,1.3,6.2,2.6,9.3,3.9
						c0-3.2,0-6.4,0-9.6c2.9-0.7,2.9,0.1,0.4-0.9c-1.8-0.7-3.5-1.4-5.3-2.2c-2.5-1-5-2-7.5-3.1c-0.9,3.2-1.8,6.4-2.7,9.6
						c25.6,7,51.2,13.9,76.8,20.9c40.6,11,81.2,22.1,121.8,33.1c9.3,2.5,18.6,5.1,28,7.6c1.7,0.5,3.7,0,4.9-1.3
						c22.7-24.9,45.3-49.7,68-74.6c3.2-3.6,6.5-7.1,9.7-10.7c1.1-1.2,2-3.2,1.3-4.9c-8.1-20.1-16.3-40.1-24.4-60.2
						c-12.9-31.8-25.8-63.6-38.8-95.5c-3-7.4-6-14.7-9-22.1C620.1,222,610.5,224.6,612.9,230.6L612.9,230.6z"/>
				</g>
			</g>
		</g>
		<g id="LWPOLYLINE_183_">
			<g>
				<g>
					<path class="st2" d="M450.6,114c-0.8,0-1.6,0-2.4,0c-1.3,0-2.6,0.6-3.5,1.5c-0.9,0.9-1.5,2.3-1.5,3.5c0.1,1.3,0.5,2.6,1.5,3.5
						c1,0.9,2.2,1.5,3.5,1.5c0.8,0,1.6,0,2.4,0c1.3,0,2.6-0.6,3.5-1.5c0.9-0.9,1.5-2.3,1.5-3.5c-0.1-1.3-0.5-2.6-1.5-3.5
						C453.1,114.6,451.9,114,450.6,114L450.6,114z"/>
				</g>
			</g>
		</g>
		<g id="LWPOLYLINE_186_">
			<g>
				<g>
					<path class="st2" d="M393,114c-42.9,0-85.9,0-128.8,0c-10.6,0-21.2,0-31.8,0c-6.4,0-6.4,10,0,10c20.6,0,41.2,0,61.7,0
						c-1.7-1.7-3.3-3.3-5-5c0.6,7.4,1.1,14.8,1.7,22.2c0.5,5.9,3,10.8,5.3,16.2c5.6,13.1,11.4,26.2,17.2,39.2
						c10.3,23,21.4,45.7,32.8,68.2c6.6,13.1,13.4,26,20.2,39c1.4-2.5,2.9-5,4.3-7.5c-12.9,0-25.8,0-38.8,0c1.4,0.8,2.9,1.7,4.3,2.5
						c-15.2-22.2-30.3-44.5-44.6-67.3c-15.2-24.3-29.9-48.9-43.9-73.9c-3.7-6.6-7.1-13.4-10.9-20c-1.2-2.1-0.4,0.5-0.4-1
						c0-2.1-0.7-4.5-1-6.6c-0.6-4.1-1.2-8.2-1.9-12.3c-1.6,2.1-3.2,4.2-4.8,6.3c22.7,0,45.5,0,68.2,0c6.4,0,6.4-10,0-10
						c-22.7,0-45.5,0-68.2,0c-3.6,0-5.3,3.2-4.8,6.3c1.1,7.2,1,16,4.4,22.6c3.7,7.2,7.7,14.3,11.7,21.4
						c8.2,14.6,16.5,29.1,25.2,43.4c17.2,28.3,35,56.2,53.7,83.5c2.9,4.2,5.5,8.7,8.7,12.6c2.8,3.4,7.3,2.5,11.4,2.5
						c10.6,0,21.2,0,31.8,0c3.9,0,6.1-4.2,4.3-7.5c-12.3-23.5-24.4-47-36-70.9c-10.7-22-20.9-44.3-30.5-66.8c-2-4.7-4-9.4-6-14.1
						c-0.6-1.4-1.1-3-1.8-4.3c-0.9-1.6,0.4,3.8,0.3,0.5c-0.2-8.1-1.2-16.2-1.9-24.3c-0.2-2.7-2.1-5-5-5c-20.6,0-41.2,0-61.7,0
						c0,3.3,0,6.7,0,10c40.9,0,81.8,0,122.7,0c12.6,0,25.3,0,37.9,0C399.4,124,399.4,114,393,114L393,114z"/>
				</g>
			</g>
		</g>
		<g id="LWPOLYLINE_187_">
			<g>
				<g>
					<path class="st2" d="M497.5,225.8c-0.2,0-0.5,0-0.7,0c-1.3,0-2.6,0.6-3.5,1.5c-0.9,0.9-1.5,2.3-1.5,3.5
						c0.1,1.3,0.5,2.6,1.5,3.5c1,0.9,2.2,1.5,3.5,1.5c0.2,0,0.5,0,0.7,0c1.3,0,2.6-0.6,3.5-1.5c0.9-0.9,1.5-2.3,1.5-3.5
						c-0.1-1.3-0.5-2.6-1.5-3.5C500.1,226.4,498.8,225.8,497.5,225.8L497.5,225.8z"/>
				</g>
			</g>
		</g>
		<g id="LWPOLYLINE_188_">
			<g>
				<g>
					<path class="st2" d="M722.2,405.5c-9.8-1.4-19.6-2.7-29.4-4.1c-6.3-0.9-9,8.8-2.7,9.6c9.8,1.4,19.6,2.7,29.4,4.1
						C725.8,416,728.5,406.4,722.2,405.5L722.2,405.5z"/>
				</g>
			</g>
		</g>
		<g id="LWPOLYLINE_189_">
			<g>
				<g>
					<path class="st2" d="M839.7,495c-0.7,0-1.4,0-2.2,0c-2.7,0-5,2.3-5,5c0,3.4,0.1,6.8,0.1,10.2c1.2-1.6,2.4-3.2,3.7-4.8
						c-10.6,2-21.2,4.1-31.9,6.1c-6,1.1-11.9,2.3-17.9,3.4c-1.1,0.2-2.2,0.5-3.3,0.6c2.9-0.4-1.9-0.2-2.4-0.2c-1.2,0-2.5,0-3.7,0
						c-6.4,0-6.4,10,0,10c10,0,19.3-2.2,29.1-4.1c10.9-2.1,21.9-4.2,32.8-6.3c2.1-0.4,3.7-2.8,3.7-4.8c0-3.4-0.1-6.8-0.1-10.2
						c-1.7,1.7-3.3,3.3-5,5c0.7,0,1.4,0,2.2,0C846.1,505,846.1,495,839.7,495L839.7,495z"/>
				</g>
			</g>
		</g>
		<g id="LWPOLYLINE_191_">
			<g>
				<g>
					<path class="st2" d="M309.9,114c-16.8,0-33.7,0-50.5,0c-6.4,0-6.4,10,0,10c16.8,0,33.7,0,50.5,0C316.3,124,316.3,114,309.9,114
						L309.9,114z"/>
				</g>
			</g>
		</g>
		<g id="LWPOLYLINE_192_">
			<g>
				<g>
					<path class="st2" d="M309,114c-17.2,0-34.4,0-51.5,0c-6.4,0-6.4,10,0,10c17.2,0,34.4,0,51.5,0C315.4,124,315.4,114,309,114
						L309,114z"/>
				</g>
			</g>
		</g>
		<g id="LWPOLYLINE_194_">
			<g>
				<g>
					<path class="st2" d="M249.9,124c15.3,0,30.5,0,45.8,0c6.4,0,6.4-10,0-10c-1.5,0-3.1,0-4.6,0c0,3.3,0,6.7,0,10
						c27.8,0,55.6,0,83.4,0c27.7,0,55.4,0,83.2,0c16,0,31.9,0,47.9,0c0-3.3,0-6.7,0-10c-0.1,0-0.3,0-0.4,0c0,3.3,0,6.7,0,10
						c22,0,44.1,0,66.1,0c21.4,0,42.9,0,64.3,0c13.4,0,26.9,0,40.3,0c6.4,0,6.4-10,0-10c-35.7,0-71.4,0-107,0c-10.3,0-20.6,0-30.9,0
						c-6.4,0-6.4,10,0,10c34.7,0,69.4,0,104.1,0c11.3,0,22.6,0,33.9,0c0-3.3,0-6.7,0-10c-22.6,0-45.2,0-67.8,0
						c-21.6,0-43.2,0-64.9,0c-12.7,0-25.4,0-38.1,0c-6.4,0-6.4,10,0,10c0.1,0,0.3,0,0.4,0c6.4,0,6.4-10,0-10c-28.2,0-56.5,0-84.7,0
						c-27.6,0-55.2,0-82.8,0c-15.7,0-31.3,0-47,0c-6.4,0-6.4,10,0,10c1.5,0,3.1,0,4.6,0c0-3.3,0-6.7,0-10c-15.3,0-30.5,0-45.8,0
						C243.5,114,243.5,124,249.9,124L249.9,124z"/>
				</g>
			</g>
		</g>
		<g id="LWPOLYLINE_195_">
			<g>
				<g>
					<path class="st2" d="M244.1,124c14.5,0,29,0,43.5,0c34.2,0,68.4,0,102.6,0c40,0,80,0,120,0c31.4,0,62.8,0,94.2,0
						c15.4,0,30.9,0,46.3,0c2.8,0,5.7,0,8.5,0c0-3.3,0-6.7,0-10c-15.2,0-30.4,0-45.5,0c-6.4,0-6.4,10,0,10c9.7,0,19.3,0,29,0
						c-1.6-2.1-3.2-4.2-4.8-6.3c-5.5,13.8-11.1,27.7-16.6,41.5c-1.2,3.1,1.9,6.3,4.8,6.3c12.6,0,25.2,0,37.8,0
						c2.3,0,4.1-1.6,4.8-3.7c4.9-13.8,9.8-27.7,14.6-41.5c1.1-3.1-1.8-6.3-4.8-6.3c-24.5,0-48.9,0-73.4,0c-6.4,0-6.4,10,0,10
						c24.5,0,48.9,0,73.4,0c-1.6-2.1-3.2-4.2-4.8-6.3c-4.9,13.8-9.8,27.7-14.6,41.5c1.6-1.2,3.2-2.4,4.8-3.7c-12.6,0-25.2,0-37.8,0
						c1.6,2.1,3.2,4.2,4.8,6.3c5.5-13.8,11.1-27.7,16.6-41.5c1.2-3.1-1.9-6.3-4.8-6.3c-9.7,0-19.3,0-29,0c0,3.3,0,6.7,0,10
						c15.2,0,30.4,0,45.5,0c6.4,0,6.4-10,0-10c-15.7,0-31.3,0-47,0c-29.4,0-58.8,0-88.2,0c-39.7,0-79.4,0-119.2,0
						c-35.6,0-71.3,0-106.9,0c-17.6,0-35.5-0.7-53.1,0c-0.3,0-0.5,0-0.8,0C237.6,114,237.6,124,244.1,124L244.1,124z"/>
				</g>
			</g>
		</g>
		<g id="LWPOLYLINE_196_">
			<g>
				<g>
					<path class="st2" d="M221.5,124c28,0,55.9,0,83.9,0c6.7,0,13.4,0,20.1,0c0-3.3,0-6.7,0-10c-18.9,0-37.9,0-56.8,0
						c-6.4,0-6.4,10,0,10c14.7,0,29.3,0,44,0c6.4,0,6.4-10,0-10c-14.7,0-29.3,0-44,0c0,3.3,0,6.7,0,10c18.9,0,37.9,0,56.8,0
						c6.4,0,6.4-10,0-10c-27.9,0-55.8,0-83.7,0c-6.8,0-13.5,0-20.3,0C215.1,114,215.1,124,221.5,124L221.5,124z"/>
				</g>
			</g>
		</g>
		<g id="LWPOLYLINE_197_">
			<g>
				<g>
					<path class="st2" d="M160.3,110c25.2,0,50.4,0,75.6,0c19.2,0,38.4,0,57.6,0c21.9,0,43.7,0,65.6,0c22.4,0,44.8,0,67.2,0
						c21.7,0,43.4,0,65.1,0c22.5,0,45,0,67.5,0c22.6,0,45.1,0,67.7,0c22.3,0,44.5,0,66.8,0c22,0,44,0,66.1,0c21.9,0,43.8,0,65.7,0
						c4.9,0,9.7,0,14.6,0c6.4,0,6.4-10,0-10c-21.5,0-43,0-64.5,0c-22.1,0-44.2,0-66.2,0c-22.1,0-44.1,0-66.2,0
						c-22.3,0-44.5,0-66.8,0c-22.1,0-44.2,0-66.4,0c-22.6,0-45.2,0-67.8,0c-22,0-44,0-66.1,0c-22.3,0-44.6,0-66.9,0
						c-21.3,0-42.6,0-64,0c-25.1,0-50.1,0-75.2,0c-3.1,0-6.2,0-9.3,0C153.9,100,153.9,110,160.3,110L160.3,110z"/>
				</g>
			</g>
		</g>
		<g id="LWPOLYLINE_198_">
			<g>
				<g>
					<path class="st2" d="M622.4,510.3c3.4,1.1,6.9,2.6,10.4,3.4c3.1,0.7,6.4,0.8,9.6,1.2c6.1,0.7,6-7.9,1.3-9.8
						c-8-3.3-15.9-6.5-23.9-9.8c-4-1.6-7.9-3.6-12-4.9c-3-1-6.2-0.4-9.3-0.2c-2.2,0.1-4.8-0.1-7,0.4c-1.6,0.3,0.3,0.2,0,0.1
						c-1.1-0.3-2.3-0.6-3.4-0.9c-3.8-1.1-7.5-2.1-11.3-3.1c-7.6-2-15.3-4-23-5.9c-15-3.7-30-6.4-44.8-10.9
						c-15.1-4.6-30.1-9.4-45-14.5c-8.3-2.9-16.6-5.8-24.9-8.9c-7.7-2.8-15.4-6.2-23.3-8.5c-6.3-1.8-8.6,7.5-2.7,9.6
						c8.1,3,16.2,5.9,24.3,8.9c6.1,2.2,8.7-7.5,2.7-9.6c-8.1-3-16.2-5.9-24.3-8.9c-0.9,3.2-1.8,6.4-2.7,9.6
						c14.3,4.1,28.2,10.4,42.3,15.3c14.6,5.1,29.3,10,44,14.5c6.6,2,13.3,4.5,20.1,6c8.1,1.8,16.4,3.3,24.5,5.2
						c7.6,1.8,15.3,3.8,22.9,5.8c3.8,1,7.6,2,11.4,3.1c3.9,1.1,8.2,3,12.3,3.2c4.8,0.3,9.7-0.7,14.4-0.8c0.8,0-1.7-0.6-0.5,0
						c0.6,0.3,1.2,0.5,1.8,0.7c2.2,0.9,4.3,1.8,6.5,2.7c9.4,3.9,18.8,7.7,28.2,11.6c0.4-3.3,0.9-6.5,1.3-9.8c-1.5-0.2-3-0.3-4.5-0.5
						c-1-0.1-2-0.2-3-0.3c-1.3-0.2,1.6,0.5,0.2-0.1c-3.2-1.4-6.7-2.2-10.1-3.3C618.9,498.6,616.3,508.3,622.4,510.3L622.4,510.3z"/>
				</g>
			</g>
		</g>
		<g id="LWPOLYLINE_200_">
			<g>
				<g>
					<path class="st2" d="M630.3,581.5c13,0,26.1,0,39.1,0c5.8,0,6.5-8,1.3-9.8c-21.3-7.5-42.8-14.7-64.4-21.3
						c-22.2-6.8-44.5-13-66.9-18.9c-12.1-3.2-24.2-6.2-36.4-8.9c-0.4,3.3-0.9,6.5-1.3,9.8c-1,0-0.3-0.1,1,0.4
						c1.4,0.5,2.8,0.9,4.1,1.4c2.1,0.7,4.1,1.3,6.2,2c4.4,1.4,8.8,2.9,13.2,4.3c8.6,2.9,17.1,5.9,25.6,9c7.9,2.9,15.7,5.8,23.6,8.9
						c4.3,1.7,8.6,3.4,12.9,5.1c2.3,0.9,4.5,1.9,6.8,2.8c0.5,0.2,0.9,0.4,1.4,0.6c0.9,0.4-1.7-0.7-0.4-0.2c1.5,0.6,3.1,1.3,4.6,1.9
						c9.2,3.9,18.3,8,27.3,12.1c-0.8-1.4-1.7-2.9-2.5-4.3c2.8,34.5,5.6,69.1,8.4,103.6c0.4,4.8,0.8,9.7,1.2,14.5
						c0.5,6.4,10.5,6.4,10,0c-2.8-34.5-5.6-69.1-8.4-103.6c-0.4-4.8-0.8-9.7-1.2-14.5c-0.1-1.7-0.8-3.6-2.5-4.3
						c-33.6-15.4-68-29-103-40.9c-4.4-1.5-8.9-3-13.3-4.4c-4.5-1.4-10.2-4.4-14.9-4.4c-5.5,0-6.9,8.6-1.3,9.8
						c22.4,5.1,44.6,11,66.8,17.1c21.7,6,43.2,12.6,64.6,19.5c12.2,4,24.3,8.1,36.4,12.4c0.4-3.3,0.9-6.5,1.3-9.8
						c-13,0-26.1,0-39.1,0C623.9,571.5,623.9,581.5,630.3,581.5L630.3,581.5z"/>
				</g>
			</g>
		</g>
		<g id="LWPOLYLINE_201_">
			<g>
				<g>
					<path class="st2" d="M539.3,545.1c3.9,0,7.9,0,11.8,0c6.4,0,6.4-10,0-10c-3.9,0-7.9,0-11.8,0
						C532.9,535.1,532.9,545.1,539.3,545.1L539.3,545.1z"/>
				</g>
			</g>
		</g>
		<g id="LWPOLYLINE_202_">
			<g>
				<g>
					<path class="st2" d="M486.6,528.8c4,1,8.1,2,12.1,2.9c6.3,1.5,8.8-7.7,2.7-9.6c-33-10.4-65.6-22.1-97.5-35.6
						c-0.4-0.2-0.8-0.3-1.2-0.5c-1.2-0.5,1.6,0.7,0,0c-1.4-0.6-2.9-1.3-4.4-1.9c-1.9-0.8-3.8-1.7-5.7-2.5c-4.7-2.1-9.3-4.2-13.9-6.3
						c-2.5-1.2-6.9-0.5-7.3,3c-3.4,25.2-6.9,50.5-10.3,75.7c-5.1,37.8-10.3,75.5-15.4,113.3c-0.7,5-1.4,9.9-2,14.9
						c-0.4,3.2-1.4,6.5,0.9,9.2c4.7,5.5,11,10.3,16.3,15.2c4.6,4.3,9.3,8.5,14,12.8c21.1,19,42.5,37.7,64.3,56
						c11,9.2,22.1,18.4,33.3,27.5c4.9,4,9.8,8,14.8,11.9c1.8,1.4,3.7,2.8,5.5,4.2c0.3,0.2,1.9,1.7,1.1,0.9c-0.6-0.7,1.2,1.5,1.6,2
						c2.7,3,6.2,4.6,9.7,6.5c1.9,1.1-0.7-0.7,0.7,0.4c0.5,0.4,2.6,2.4,1.4,0.9c1.1,1.4,2,3.1,2.9,4.6c3.5,5.4,12.1,0.4,8.6-5
						c-2.2-3.5-4.2-6.6-7.6-8.9c-1.5-1-3.3-1.8-4.9-2.8c-0.9-0.5-1.9-1-2.7-1.5c-0.5-0.3-0.5-0.5,0.4,0.4c-0.4-0.4-0.8-0.8-1.1-1.2
						c-2.6-3.2-5.9-5.4-9.2-7.9c-0.8-0.6-1.5-1.2-2.3-1.8c-0.8-0.6,1.4,1.1,0.1,0.1c-1.7-1.4-3.5-2.8-5.3-4.2
						c-10.9-8.8-21.8-17.7-32.6-26.7c-22.3-18.6-44.4-37.6-66-57c-12.2-11-24.3-22.1-36.2-33.3c0.4,1.6,0.9,3.2,1.3,4.9
						c3.2-23.5,6.4-47,9.6-70.5c5.1-37.3,10.2-74.5,15.2-111.8c1.2-8.6,2.3-17.2,3.5-25.8c-2.4,1-4.9,2-7.3,3
						c31.7,14.5,64,27.4,97,38.6c9.3,3.2,18.7,6.2,28.1,9.1c0.9-3.2,1.8-6.4,2.7-9.6c-4-1-8.1-2-12.1-2.9
						C483,517.6,480.3,527.3,486.6,528.8L486.6,528.8z"/>
				</g>
			</g>
		</g>
		<g id="LWPOLYLINE_203_">
			<g>
				<g>
					<path class="st2" d="M686.8,694.7c-3.6-34.5-7.2-69-10.8-103.5c-0.5-4.9-1-9.8-1.5-14.7c-0.7-6.3-10.7-6.4-10,0
						c3.6,34.5,7.2,69,10.8,103.5c0.5,4.9,1,9.8,1.5,14.7C677.5,701,687.5,701.1,686.8,694.7L686.8,694.7z"/>
				</g>
			</g>
		</g>
		<g id="LWPOLYLINE_204_">
			<g>
				<g>
					<path class="st2" d="M697,753.6c4,2.5,8,5.1,11.9,7.8c1.8,1.3,3.7,2.5,5.5,3.8c1.3,0.9,2.6,1.9,3.9,2.9c0,0,1.7,1.3,0.6,0.4
						c-1-0.8,1.1,0.8,1.2,1c7.8,6.1,15.4,12.6,22.1,20c0.5,0.6,1,1.2,1.5,1.7c0.4,0.5,3.2,3.8,2,2.3c1.7,2.2,3.2,4.6,4.9,6.8
						c2.5,3.3,5.8,2.7,9.5,2.7c12.9,0,25.8,0,38.7,0c10.9,0,21.9,0,32.8,0c6.4,0,6.4-10,0-10c-25.5,0-51,0-76.5,0
						c1.4,0.8,2.9,1.7,4.3,2.5c-14.5-21.4-35.7-36.7-57.2-50.5C696.6,741.5,691.6,750.1,697,753.6L697,753.6z"/>
				</g>
			</g>
		</g>
		<g id="LWPOLYLINE_205_">
			<g>
				<g>
					<path class="st2" d="M839.7,890c-26.3,0-52.7,0-79,0c-6.4,0-6.4,10,0,10c26.3,0,52.7,0,79,0C846.1,900,846.1,890,839.7,890
						L839.7,890z"/>
				</g>
			</g>
		</g>
		<g id="LWPOLYLINE_206_">
			<g>
				<g>
					<path class="st2" d="M745.3,887.4c24.5,0,49.1,0,73.6,0c6.4,0,6.4-10,0-10c-24.5,0-49.1,0-73.6,0
						C738.9,877.4,738.8,887.4,745.3,887.4L745.3,887.4z"/>
				</g>
			</g>
		</g>
		<g id="LWPOLYLINE_207_">
			<g>
				<g>
					<path class="st2" d="M736.5,887.4c15.9,0,31.9,0,47.8,0c6.4,0,6.4-10,0-10c-15.9,0-31.9,0-47.8,0
						C730,877.4,730,887.4,736.5,887.4L736.5,887.4z"/>
				</g>
			</g>
		</g>
		<g id="LWPOLYLINE_208_">
			<g>
				<g>
					<path class="st2" d="M719.7,887.4c20.5,0,41,0,61.5,0c6.4,0,6.4-10,0-10c-20.5,0-41,0-61.5,0
						C713.2,877.4,713.2,887.4,719.7,887.4L719.7,887.4z"/>
				</g>
			</g>
		</g>
		<g id="LWPOLYLINE_209_">
			<g>
				<g>
					<path class="st2" d="M278.7,877.4c-10-0.2-20-0.4-30-0.7c1.6,1.2,3.2,2.4,4.8,3.7c-2.8-11.6-5.6-23.1-8.4-34.7
						c-0.3-1.3-0.7-2.7-1-4c0.4,2.4,0.1,0.9,0.2,0.1c0.2-1.2,0.1-2.5,0.2-3.8c0.4-7,0.8-13.9,1.1-20.9c0.2-3,0.3-6,0.5-9
						c0-0.7,0-1.4,0.1-2.1c0-0.1,0-0.3,0-0.4c-0.6,2.6,0.5-0.4,0.7-0.9c0.3-0.7,0.5-1.3,0.8-2c-0.9,2,0.1-0.2,0.3-0.4
						c0.5-1,0.9-2.1,1.5-3c1.2-2.1,2.7-4.1,4.1-6.2c1.9-2.9,3.8-5.7,5.6-8.6c0.6-1,1.3-1.9,1.9-2.9c0.2-0.4,0.8-1.1-0.4,0.4
						c0.7-0.9,1.4-1.7,2.1-2.5c3.1-3.8,6.5-7.5,9.9-11.1c7.9-8.1,18.6-14.7,24.2-24.4c-2.9,0-5.8,0-8.6,0c2.2,4.3,4.1,6.3,7.9,9.3
						c2.8,2.2,5.6,4.4,8.5,6.5c5.8,4.4,11.6,8.7,17.6,12.9c12.1,8.6,24.5,16.8,37,24.9c25,16.1,50.5,31.4,76,46.7
						c14.3,8.6,28.7,17,42.1,27c-0.8-1.4-1.7-2.9-2.5-4.3c0.2,5.1,0.4,10.1,0.7,15.2c1.7-1.7,3.3-3.3,5-5c-19.7,0-39.4,0-59.1,0.1
						c-6.4,0-6.4,10,0,10c18.1,0,36.3,0,54.4-0.1c0-3.3,0-6.7,0-10c-28.6,0-57.3,0-85.9,0c-7.9,0-15.7,0-23.6,0c-6.4,0-6.4,10,0,10
						c13.3,0,26.7,0,40,0c6.4,0,6.4-10,0-10c-13.3,0-26.7,0-40,0c0,3.3,0,6.7,0,10c28.3,0,56.6,0,84.8,0c8.2,0,16.5,0,24.7,0
						c6.4,0,6.4-10,0-10c-18.1,0-36.3,0.1-54.4,0.1c0,3.3,0,6.7,0,10c19.7,0,39.4,0,59.1-0.1c2.6,0,5.1-2.3,5-5
						c-0.2-4.7-0.3-9.3-0.6-14c-0.3-4.7-3.9-6.6-7.5-9.2c-6.2-4.5-12.7-8.6-19.2-12.6c-13.6-8.3-27.3-16.4-41-24.6
						c-27-16.3-53.8-32.8-79.8-50.6c-7.5-5.2-14.9-10.4-22.3-15.8c-3.5-2.6-7-5.2-10.4-7.9c-0.4-0.3-0.8-0.6-1.2-1c-1.3-1,1.3,1,0,0
						c-1.1-0.9-2.2-1.9-3.4-2.7c-0.4-0.3-1-0.7-1.4-1.1c-0.6-0.5,0.9,1.3,0.1,0.1c-0.7-1.2-1.3-2.5-1.9-3.8c-1.8-3.4-6.8-3.1-8.6,0
						c-0.7,1.1-1.4,2.3-2,3.5c-0.3,0.6-1.4,1.6-0.1,0.3c-0.5,0.5-1,0.9-1.6,1.3c-2.3,1.9-4.6,3.9-6.9,5.9c-4,3.5-7.8,7.1-11.5,10.8
						c-7.6,7.7-13.8,15.8-19.7,24.8c-2.8,4.3-5.7,8.4-7.8,13c-2,4.4-2.5,7.8-2.8,12.5c-0.4,7.6-0.8,15.2-1.2,22.8
						c-0.2,3.6-0.8,7.4-0.1,10.9c2.6,12.7,6.1,25.3,9.1,38c0.5,2.2,2.7,3.6,4.8,3.7c10,0.2,20,0.4,30,0.7
						C285.2,887.5,285.2,877.5,278.7,877.4L278.7,877.4z"/>
				</g>
			</g>
		</g>
		<g id="LWPOLYLINE_210_">
			<g>
				<g>
					<path class="st2" d="M239.4,890c-26.3,0-52.7,0-79,0c-6.4,0-6.4,10,0,10c26.3,0,52.7,0,79,0C245.8,900,245.8,890,239.4,890
						L239.4,890z"/>
				</g>
			</g>
		</g>
	</g>
</g>
<g id="Layer_3">
	<g id="LWPOLYLINE_19_">
		<g>
			<g>
				<path class="st2" d="M322.7,460.9c-21.8-35.7-42.9-71.7-63.1-108.4c-5.3-9.7-10.5-19.5-15.7-29.3c-0.3,2-0.5,4-0.8,6.1
					c1.6-1.2,3.1-2.5,4.7-3.7c0.9-0.7,1.8-1.4,2.7-2.1c0.3-0.3,0.7-0.5,1-0.8c0.6-0.5-1.3,1-0.5,0.4c3.2-2.4,6.4-4.9,9.6-7.3
					c6.2-4.7,12.5-9.3,18.8-13.9c13.2-9.5,26.5-18.9,40-28c7.3-4.9,14.7-9.8,22-14.6c-1.7,0-3.4,0-5,0c26.7,15.4,53.8,30.1,81.3,44
					c8.1,4.1,16.3,8.1,24.5,12.2c-0.8-1.9-1.5-3.8-2.3-5.6c-6.7,32.4-13.4,64.8-20.2,97.1c-1,4.6-1.9,9.2-2.9,13.8
					c1.2-1.2,2.3-2.3,3.5-3.5c-27.4,10.2-54.6,20.7-81.6,32c-7.7,3.2-15.3,6.5-22.9,9.8c-5.9,2.5-0.8,11.2,5,8.6
					c3.5-1.5,7.1-3,10.6-4.6c-1.5,0.6-0.6,0.3,0.3-0.1c1.1-0.4,2.1-0.9,3.2-1.3c2.1-0.9,4.2-1.8,6.3-2.6c6.7-2.8,13.5-5.6,20.3-8.3
					c12.8-5.2,25.7-10.3,38.6-15.2c7.4-2.8,14.8-5.5,22.1-8.3c5-1.9,4.8-6.7,5.8-11.3c3.9-18.9,7.9-37.8,11.8-56.8
					c3.2-15.6,6.5-31.1,9.7-46.7c0.4-2.1-0.2-4.6-2.3-5.6c-28.1-13.9-56-28.2-83.4-43.5c-7.5-4.2-15-8.5-22.4-12.7
					c-1.5-0.9-3.6-1-5,0c-26.8,17.7-53.3,35.9-79,55.1c-7.2,5.4-14.3,10.9-21.4,16.5c-1.8,1.4-1.7,4.3-0.8,6.1
					c19.7,37,40.3,73.5,61.7,109.6c5.6,9.4,11.3,18.7,17,28C317.5,471.5,326.1,466.4,322.7,460.9z"/>
			</g>
		</g>
	</g>
	<g id="LWPOLYLINE_30_">
		<g>
			<g>
				<path class="st2" d="M762,149.5c21.3,0,42.7,0,64,0c0-3.3,0-6.7,0-10c-27.4,0-54.8,0-82.2,0c-3.9,0-7.9,0-11.8,0
					c-6.4,0-6.4,10,0,10c15.5,0,31,0,46.5,0c-1.6-2.1-3.2-4.2-4.8-6.3c-3.4,14.2-6.9,28.4-10.3,42.6c-2.2,9.1-4.4,18.2-6.6,27.4
					c-1.1,4.4-3.9,10.5-0.8,14.5c4.8,6.4,10.6,12.3,15.7,18.5c-0.5-1.2-1-2.4-1.5-3.5c-0.4,3.2-0.7,6.5-1.1,9.7
					c1.2-1.6,2.4-3.2,3.7-4.8c-2.6,0.4-5.4,0.6-8,1.3c-2.6,0.8-3.7,3.2-4.7,4.4c-1,1.3-2.1,1.8-4.2,3c-0.8,0.5-1.7,0.9-2.5,1.3
					c-0.7,0.3-1.3,0.6-2,0.9c1.2-0.5,0.1,0-0.5,0.2c-7.9,3.3-16.2,5.5-24.5,7.7c1.9,0.8,3.8,1.5,5.6,2.3
					c-4.4-7.3-8.7-14.6-13.1-21.9c-3.1-5.2-6.3-10.5-9.4-15.7c-1.5-2.5-3.2-7.3-5.5-9.2c-0.8-0.7-0.1,3.3,0.6,1.6
					c0.4-0.9,0.3-2.5,0.4-3.5c0.5-4.4,0.9-8.7,1.4-13.1c1.3-12.5,2.6-25.1,3.9-37.6c0.9-8.2,1.7-16.5,2.6-24.7c-1.7,1.7-3.3,3.3-5,5
					c36.8,0,73.5,0,110.3,0c9.1,0,18.2,0,27.3,0c0-3.3,0-6.7,0-10c-27.8,0-55.5,0-83.3,0C755.5,139.5,755.5,149.5,762,149.5
					c27.8,0,55.5,0,83.3,0c6.4,0,6.4-10,0-10c-35.2,0-70.3,0-105.5,0c-10.7,0-21.4,0-32.1,0c-2.9,0-4.7,2.3-5,5
					c-2,19.6-4.1,39.3-6.1,58.9c-0.5,4.9-1,9.8-1.5,14.7c-0.2,1.9-0.7,4-0.6,5.9c0.2,2.9,2.6,5.8,4.1,8.2c3,5,5.9,10,8.9,14.9
					c5.3,8.9,10.6,17.7,15.9,26.6c1.1,1.9,3.5,2.9,5.6,2.3c7.5-2,15-4,22.3-6.8c7.3-2.8,16.1-6.2,19.1-14.1
					c-1.2,1.2-2.3,2.3-3.5,3.5c2.8-0.5,5.7-0.9,8.5-1.4c2.3-0.4,3.5-2.8,3.7-4.8c0.3-3.1,1.2-6.5,1-9.6c-0.2-3.3-3.6-6.3-5.6-8.7
					c-3.8-4.6-7.7-9.1-11.6-13.6c0.4,1.6,0.9,3.2,1.3,4.9c6.4-26.5,12.8-53,19.2-79.5c0.8-3.1-1.5-6.3-4.8-6.3c-15.5,0-31,0-46.5,0
					c0,3.3,0,6.7,0,10c27.4,0,54.8,0,82.2,0c3.9,0,7.9,0,11.8,0c6.4,0,6.4-10,0-10c-21.3,0-42.7,0-64,0
					C755.5,139.5,755.5,149.5,762,149.5z"/>
			</g>
		</g>
	</g>
	<g id="LWPOLYLINE_31_">
		<g>
			<g>
				<path class="st2" d="M471.3,530.3c24.6,8.5,49.2,17.1,73.8,25.6c17.5,6.1,35,12.1,52.5,18.2c9.3,3.2,18.7,7.3,28.3,9.8
					c5,1.3,11,0.4,16.1,0.4c8,0,16,0,24.1,0c2.7,0,5-2.3,5-5c0-0.6,0-1.3,0-1.9c0-2.2-1.6-4.2-3.7-4.8
					c-45.1-12.5-90.2-25-135.2-37.6c-18-5-35.9-10.9-54.1-15c-5.8-1.3-10.6,0.8-15.8,2.7c-11.8,4.3-23.7,8.7-35.5,13
					c-23.8,8.7-47.6,17.5-71.5,26.2c-5.1,1.9-4.6,9.8,1.3,9.8c9.3,0,18.6,0,27.9,0c2.8,0,5.3,0.3,7.9-0.8c1.9-0.8,3.8-1.9,5.6-2.8
					c19.7-9.8,39.3-19.5,59-29.3c6-3,12.1-6,18.1-9c5.8-2.9,0.7-11.5-5-8.6c-15,7.5-30,14.9-45,22.4c-9.5,4.7-19,9.5-28.6,14.2
					c-2.6,1.3-5.3,2.5-7.8,3.9c-0.2,0.1-1.4,0.5-1.4,0.7c0.1-0.4,3.3-0.3,2-0.7c-0.6-0.2-1.5,0-2.1,0c-10.2,0-20.4,0-30.6,0
					c0.4,3.3,0.9,6.5,1.3,9.8c20.1-7.4,40.2-14.7,60.4-22.1c13.1-4.8,26.1-9.6,39.2-14.4c4-1.4,7.9-2.9,11.9-4.3
					c0.8-0.3,1.6-0.6,2.4-0.9c0.5-0.2,1.1-0.2-0.7,0c0.8-0.1,1.6-0.1,2.4-0.1c0.6,0,4,0.2,1.3-0.3c4.5,0.8,9,2.5,13.4,3.7
					c10.9,3,21.9,6.1,32.8,9.1c29.4,8.2,58.8,16.3,88.2,24.5c18.6,5.2,37.1,10.3,55.7,15.5c-1.2-1.6-2.4-3.2-3.7-4.8
					c0,0.6,0,1.3,0,1.9c1.7-1.7,3.3-3.3,5-5c-6.7,0-13.4,0-20.2,0c-4.3,0-8.6,0-12.9,0c-1.3,0-2.6-0.1-3.9,0
					c-1.4,0.1-1.4-0.3-0.1,0.2c-8-2.8-16-5.6-24-8.3c-34.3-11.9-68.7-23.8-103-35.7c-9.4-3.2-18.7-6.5-28.1-9.7
					C467.8,518.5,465.2,528.2,471.3,530.3z"/>
			</g>
		</g>
	</g>
	<g id="LWPOLYLINE_104_">
		<g>
			<g>
				<path class="st2" d="M765.6,105c26.6,0,53.1,0,79.7,0c6.4,0,6.4-10,0-10c-26.6,0-53.1,0-79.7,0C759.1,95,759.1,105,765.6,105
					L765.6,105z"/>
			</g>
		</g>
	</g>
	<g id="LWPOLYLINE_110_">
		<g>
			<g>
				<path class="st2" d="M765.5,149.5c26.6,0,53.1,0,79.7,0c2.7,0,5-2.3,5-5c0-14.8,0-29.7,0-44.5c0-2.7-2.3-5-5-5
					c-21.1,0-42.2,0-63.3,0c-22.9,0-45.8,0-68.7,0c-22.5,0-45.1,0-67.6,0c-23.1,0-46.2,0-69.4,0c-22.6,0-45.3,0-67.9,0
					c-23.3,0-46.6,0-70,0c-22.5,0-45.1,0-67.6,0c-22.1,0-44.2,0-66.2,0c-21.8,0-43.7,0-65.5,0c-24.8,0-49.7,0-74.5,0
					c-3.2,0-6.4,0-9.6,0c-6.4,0-6.4,10,0,10c25.6,0,51.1,0,76.7,0c18.8,0,37.6,0,56.4,0c22.1,0,44.2,0,66.3,0c22.9,0,45.8,0,68.8,0
					c22.7,0,45.3,0,68,0c22.7,0,45.5,0,68.2,0c22.8,0,45.5,0,68.3,0c23.3,0,46.7,0,70,0c22.5,0,45,0,67.6,0c22.3,0,44.6,0,66.9,0
					c4.5,0,8.9,0,13.4,0c-1.7-1.7-3.3-3.3-5-5c0,14.8,0,29.7,0,44.5c1.7-1.7,3.3-3.3,5-5c-26.6,0-53.1,0-79.7,0
					C759.1,139.5,759.1,149.5,765.5,149.5L765.5,149.5z"/>
			</g>
		</g>
	</g>
	<g id="LWPOLYLINE_111_">
		<g>
			<g>
				<path class="st2" d="M765.1,149.5c26.5,0,53,0,79.5,0c6.4,0,6.4-10,0-10c-26.5,0-53,0-79.5,0
					C758.7,139.5,758.7,149.5,765.1,149.5L765.1,149.5z"/>
			</g>
		</g>
	</g>
	<g id="LWPOLYLINE_112_">
		<g>
			<g>
				<path class="st2" d="M764.2,149.5c26.4,0,52.8,0,79.3,0c6.4,0,6.4-10,0-10c-26.4,0-52.8,0-79.3,0
					C757.8,139.5,757.8,149.5,764.2,149.5L764.2,149.5z"/>
			</g>
		</g>
	</g>
	<g id="LWPOLYLINE_113_">
		<g>
			<g>
				<path class="st2" d="M762.8,149.5c26.3,0,52.6,0,78.8,0c6.4,0,6.4-10,0-10c-26.3,0-52.6,0-78.8,0
					C756.3,139.5,756.3,149.5,762.8,149.5L762.8,149.5z"/>
			</g>
		</g>
	</g>
	<g id="LWPOLYLINE_114_">
		<g>
			<g>
				<path class="st2" d="M761.9,149.5c26.2,0,52.4,0,78.6,0c6.4,0,6.4-10,0-10c-26.2,0-52.4,0-78.6,0
					C755.4,139.5,755.4,149.5,761.9,149.5L761.9,149.5z"/>
			</g>
		</g>
	</g>
	<g id="LWPOLYLINE_115_">
		<g>
			<g>
				<path class="st2" d="M760.8,149.5c26.1,0,52.2,0,78.2,0c6.4,0,6.4-10,0-10c-26.1,0-52.2,0-78.2,0
					C754.4,139.5,754.4,149.5,760.8,149.5L760.8,149.5z"/>
			</g>
		</g>
	</g>
	<g id="LWPOLYLINE_116_">
		<g>
			<g>
				<path class="st2" d="M751.8,149.5c25.2,0,50.4,0,75.5,0c6.4,0,6.4-10,0-10c-25.2,0-50.4,0-75.5,0
					C745.4,139.5,745.4,149.5,751.8,149.5L751.8,149.5z"/>
			</g>
		</g>
	</g>
	<g id="LWPOLYLINE_118_">
		<g>
			<g>
				<path class="st2" d="M743.5,149.5c23.4,0,46.9,0,70.3,0c6.4,0,6.4-10,0-10c-23.4,0-46.9,0-70.3,0
					C737,139.5,737,149.5,743.5,149.5L743.5,149.5z"/>
			</g>
		</g>
	</g>
	<g id="LWPOLYLINE_119_">
		<g>
			<g>
				<path class="st2" d="M732.7,149.5c23.3,0,46.5,0,69.8,0c6.4,0,6.4-10,0-10c-23.3,0-46.5,0-69.8,0
					C726.2,139.5,726.2,149.5,732.7,149.5L732.7,149.5z"/>
			</g>
		</g>
	</g>
	<g id="LWPOLYLINE_121_">
		<g>
			<g>
				<path class="st2" d="M845.7,260.7c2.1-1.8,3.9-3.8,4.3-6.6c-3.3-0.4-6.5-0.9-9.8-1.3c0,22.5,0,45,0,67.5c0,11.2,0,22.5,0,33.7
					c0,1,0,1.9,0,2.9c0,0.5-0.2,0.3,0.1-0.5c0.3-0.7-1.6,1.7-0.8,1.1c-4.2,3.2-6.3,3.5-11.2,5.2c-10.6,3.6-21.7,5.9-32.7,8.1
					c-2.3,0.5-3.5,2.7-3.7,4.8c-3.2,40.2-6.5,80.4-9.7,120.6c-0.5,5.7-0.9,11.5-1.4,17.2c-0.3,3.6,3.4,5.3,6.3,4.8
					c19.8-3.1,39.6-6.2,59.4-9.4c-2.1-1.6-4.2-3.2-6.3-4.8c0,13.1,0,26.3,0,39.4c0,31.5,0,63.1,0,94.6c0,38.1,0,76.3,0,114.4
					c0,32.8,0,65.7,0,98.5c0,10.9,0,21.8,0,32.7c0,4.9-0.8,10.7,0,15.6c0,0.2,0,0.5,0,0.7c1.7-1.7,3.3-3.3,5-5
					c-25.6,0-51.1,0-76.7,0c-18.8,0-37.6,0-56.5,0c-22.2,0-44.4,0-66.6,0c-23.1,0-46.2,0-69.3,0c-22.4,0-44.8,0-67.3,0
					c-23.2,0-46.3,0-69.5,0c-22.7,0-45.3,0-68,0c-22.2,0-44.5,0-66.7,0c-21.8,0-43.6,0-65.5,0c-25,0-50,0-74.9,0c-3.2,0-6.4,0-9.6,0
					c1.7,1.7,3.3,3.3,5,5c0-24,0-48,0-71.9c-1.7,1.7-3.3,3.3-5,5c6.5,0,12.9,0,19.4,0c2.1,0,4.4-1.5,4.8-3.7
					c4.5-22.8,9.2-45.4,14.6-68c2.3-9.8,4.9-19.4,7.5-29c1.8-6.6,3.7-13.2,5.4-19.8c1.1-4.3-0.5-8-1.6-12.2
					c-1.2-4.4-2.4-8.8-3.6-13.2c-0.6-2.3-1-5.5-2.4-7.4c-1.9-2.4-6.6-3.3-9.3-4.3c-3.1-1.2-6.3-2.4-9.4-3.5c1,0.8,2,1.5,3,2.3
					c-3.1-6.4-6.1-12.8-9.2-19.3c-2.2-4.7-9.2-2.1-9.3,2.5c-0.3,18-1.3,35.7-3.3,53.6c-0.1,1-0.3,2.1-0.4,3.1
					c-0.2,1.8,0.3-1.7,0,0.1c-0.4,2.9-0.9,5.9-1.3,8.8c-0.6,4.1-1.3,8.2-2.1,12.3c-1.5,8.3-3.2,16.6-5.2,24.9c-1,4.2-3.4,9.5-2.3,14
					c1.3,5.3,7.1,6.3,10.6,2.4c1.8-2.1,1.9-5,0-7.1c-0.3-0.3-0.7-0.7-1-1c0.5,1.2,1,2.4,1.5,3.5c-0.1-33.3-0.1-66.6-0.2-99.9
					c-0.1-53-0.2-106.1-0.3-159.1c0-12.1,0-24.2-0.1-36.3c-3.3,0.4-6.5,0.9-9.8,1.3c0.5,3.6,1,7.3,1.7,10.9c0.4,2.1,1.1,4.4,1.2,6.6
					c-0.1-1.9-0.3,0.3-0.4,1.2c-0.1,1.1-0.3,2.1-0.4,3.2c1.7-1.7,3.3-3.3,5-5c-1,0-1.9,0-2.9,0c-5.6,0-6.8,8.4-1.3,9.8
					c0.9,0.2,1.9,0.5,2.8,0.7c-1.2-1.2-2.3-2.3-3.5-3.5c0.5,1.3,1.1,2.6,1.6,4c0.3,0.7,0.5,1.6,0.9,2.3c0.8,1.5,0-0.9,0.2-0.1
					c0.7,3.2,0.7,6.7,1.1,10c0.5,4.9,1.6,9.8,1.8,14.7c0.3,5.6-0.8,10,1.4,15.1c2.3,5.6,4.7,11.2,7,16.9c2.4,5.9,12.1,3.3,9.6-2.7
					c-2.5-6-5.1-12.1-7.6-18.1c-0.3-0.8-1-3.6-0.8-1c-0.2-1.6,0.1-3.4,0.1-5.1c0.1-2.6,0.1-5.1-0.2-7.7c-0.8-6.6-1.6-13.3-2.3-19.9
					c-0.3-3.1-1.1-5.4-2.3-8.3c-1.7-4-3.1-5.8-7.4-6.9c-0.4,3.3-0.9,6.5-1.3,9.8c1,0,1.9,0,2.9,0c2.9,0,4.7-2.3,5-5
					c1-8.2-1.3-16.3-2.5-24.5c-0.8-5.7-9.8-4.2-9.8,1.3c0.1,33.9,0.1,67.9,0.2,101.8c0.1,53.4,0.2,106.8,0.3,160.2
					c0,8.4,0,16.8,0,25.3c0,4.6-0.9,9,2.5,12.6c0-2.4,0-4.7,0-7.1c-0.7,0.8-0.5,0.1,0,0.1c1.3,0,6.9,2.9,6.3,2.8
					c-0.2,0,0.2-1.9-0.2,0c0.2-0.9,0.5-1.8,0.7-2.7c1-3.9,2-7.8,2.9-11.7c2-8.7,3.7-17.5,5.2-26.3c2.6-15.1,4.3-30.5,5.3-45.8
					c0.6-9.5,0.8-18.9,0.9-28.4c-3.1,0.8-6.2,1.7-9.3,2.5c2.9,6.2,5.3,13.4,9.1,19c1.8,2.6,5.6,3.4,8.4,4.5
					c3.6,1.4,7.2,2.7,10.8,4.1c-1.2-1.2-2.3-2.3-3.5-3.5c1.3,4.7,2.6,9.5,3.9,14.2c0.8,3.1,1.7,6.1,2.5,9.2c0.2,0.7,0.3,1.8,0.7,2.5
					c0.9,1.4,0.1-1.7,0.1-1.7c-0.8,0.9-1,3.7-1.3,4.8c-0.8,3-1.6,5.9-2.4,8.9c-1.8,6.5-3.6,13-5.4,19.5
					c-4.4,16.2-8.4,32.6-11.7,49.1c-2.4,12-4.8,24-7.1,36c1.6-1.2,3.2-2.4,4.8-3.7c-6.5,0-12.9,0-19.4,0c-2.7,0-5,2.3-5,5
					c0,24,0,48,0,71.9c0,2.7,2.3,5,5,5c25.6,0,51.1,0,76.7,0c18.8,0,37.6,0,56.5,0c22.2,0,44.4,0,66.6,0c23.1,0,46.2,0,69.3,0
					c22.4,0,44.8,0,67.3,0c23.2,0,46.3,0,69.5,0c22.7,0,45.3,0,68,0c22.2,0,44.5,0,66.7,0c21.8,0,43.6,0,65.5,0c25,0,50,0,75,0
					c3.2,0,6.4,0,9.6,0c2.7,0,5-2.3,5-5c0-13.1,0-26.3,0-39.4c0-31.5,0-63.1,0-94.6c0-38.1,0-76.3,0-114.4c0-32.8,0-65.7,0-98.5
					c0-16,0.7-32.2,0-48.2c0-0.2,0-0.5,0-0.7c0-3.5-3.2-5.3-6.3-4.8c-19.8,3.1-39.6,6.2-59.4,9.4c2.1,1.6,4.2,3.2,6.3,4.8
					c3.2-40.2,6.5-80.4,9.7-120.6c0.5-5.7,0.9-11.5,1.4-17.2c-1.2,1.6-2.4,3.2-3.7,4.8c9.9-2,19.9-4.1,29.6-7.1
					c8.1-2.5,21.8-6.2,22.4-16.5c0.5-9.1,0-18.3,0-27.4c0-15.8,0-31.5,0-47.3c0-9.8,0-19.6,0-29.5c0-5.4-9-7.1-9.8-1.3
					c-0.2,1.3,0.8-0.4-0.1,0.8c-0.4,0.6-1.1,1-1.6,1.4C833.7,257.7,840.8,264.8,845.7,260.7L845.7,260.7z"/>
			</g>
		</g>
	</g>
	<g id="LWPOLYLINE_125_">
		<g>
			<g>
				<path class="st2" d="M699.4,229c19.9,0,39.9,0,59.8,0c6.4,0,6.4-10,0-10c-19.9,0-39.9,0-59.8,0C692.9,219,692.9,229,699.4,229
					L699.4,229z"/>
			</g>
		</g>
	</g>
	<g id="LWPOLYLINE_126_">
		<g>
			<g>
				<path class="st2" d="M636.2,206.9c-32.4,7.7-64.9,15.3-97.3,22.9c-8.9,2.1-17.7,4.1-26.7,5.7c0.9,3.2,1.8,6.4,2.7,9.6
					c4.9-1.4,9.8-2.8,14.8-3.8c-0.9-3.2-1.8-6.4-2.7-9.6c-3,1.1-6,2.2-9.1,2.9c-2.2,0.4-4.5,1.1-6.7,1.3c-0.7,0.1-0.5,0.1,0.6-0.1
					c-0.5-0.1-1-0.1-1.5-0.2c-0.8-0.2-1.8-0.2-2.6-0.3c1.2,0.5,2.4,1,3.5,1.5c-1.2-1-2.4-2.1-3.6-3.1c-2,2.6-4,5.2-6.1,7.9
					c2.3,1.2,4.5,2.4,6.8,3.6c0.8-3.1,1.7-6.2,2.5-9.3c-0.8,0-1.7,0-2.5,0c0.4,3.3,0.9,6.5,1.3,9.8c16.4-3.8,32.5-9.2,48.6-14.1
					c8.2-2.5,16.4-5,24.6-7.5c4.6-1.4,9.1-2.8,13.7-4.2c1.5-0.5,3-0.9,4.5-1.4c1.4-0.4,2.9-0.8,4.3-1.3c0.4-0.2,0.9-0.3,1.4-0.4
					c0.9-0.2-1.8,0.2-0.7,0.1c10.4-0.6,21,0,31.4,0c2.1,0,4.4-1.5,4.8-3.7c5.1-26.5,10.2-53,15.3-79.6c0.6-3.1-1.4-6.3-4.8-6.3
					c-26.5,0-52.9,0-79.4,0c-44.9,0-89.9,0-134.8,0c-11.2,0-22.3,0-33.5,0c-2.9,0-4.7,2.3-5,5c-2.1,17.6-4.3,35.2-6.4,52.9
					c-0.3,2.7,2.6,5,5,5c7.8,0,15.6,0,23.4,0c2,0,4.5-1.5,4.8-3.7c2.4-17.6,4.9-35.2,7.3-52.9c0.4-3.1-1.2-6.3-4.8-6.3
					c-3.6,0-7.1,0-10.7,0c0,3.3,0,6.7,0,10c29.4,0,58.8,0,88.2,0c28.7,0,57.4,0,86.1,0c16.5,0,33.1,0,49.6,0c0-3.3,0-6.7,0-10
					c-11.1,0.1-22.2,0-33.3,0c0,3.3,0,6.7,0,10c0.1,0,0.2,0,0.4,0c6.4,0,6.4-10,0-10c-27.6,0-55.2,0-82.8,0c-27.2,0-54.4,0-81.6,0
					c-14.8,0-29.6,0-44.4,0c-6.4,0-6.4,10,0,10c27.1,0,54.2,0,81.3,0c27.3,0,54.5,0,81.8,0c15.2,0,30.4,0,45.6,0c0-3.3,0-6.7,0-10
					c-0.1,0-0.2,0-0.4,0c-6.4,0-6.4,10,0,10c11.1,0,22.2,0.1,33.3,0c6.4,0,6.4-10,0-10c-28.8,0-57.6,0-86.4,0c-29,0-58,0-87.1,0
					c-16.8,0-33.6,0-50.4,0c-6.4,0-6.4,10,0,10c3.6,0,7.1,0,10.7,0c-1.6-2.1-3.2-4.2-4.8-6.3c-2.4,17.6-4.9,35.2-7.3,52.9
					c1.6-1.2,3.2-2.4,4.8-3.7c-7.8,0-15.6,0-23.4,0c1.7,1.7,3.3,3.3,5,5c2.1-17.6,4.3-35.2,6.4-52.9c-1.7,1.7-3.3,3.3-5,5
					c30,0,60.1,0,90.1,0c40.7,0,81.5,0,122.2,0c11.8,0,23.5,0,35.3,0c-1.6-2.1-3.2-4.2-4.8-6.3c-5.1,26.5-10.2,53-15.3,79.6
					c1.6-1.2,3.2-2.4,4.8-3.7c-10,0-19.9-0.2-29.9,0c-7.2,0.1-14.9,3.8-21.8,5.9c-17,5.2-34,10.4-51,15.6
					c-9.2,2.8-18.4,5.6-27.7,7.7c-5.5,1.3-4.3,9.8,1.3,9.8c0.8,0,1.7,0,2.5,0c4.8,0,7-7,2.5-9.3c-2.3-1.2-4.5-2.4-6.8-3.6
					c-4.8-2.5-10.6,4-6.1,7.9c2.3,2,4.1,4,7.1,4.6c2.4,0.5,4.6,0.5,7,0c5.2-1,9.9-2.2,15-4c6.1-2.2,3.7-10.9-2.7-9.6
					c-5,1-9.9,2.4-14.8,3.8c-6.3,1.8-3.6,10.7,2.7,9.6c32.6-5.7,64.8-14.6,96.9-22.2c9-2.1,18.1-4.3,27.1-6.4
					C645.1,215.1,642.4,205.5,636.2,206.9L636.2,206.9z"/>
			</g>
		</g>
	</g>
	<g id="LWPOLYLINE_127_">
		<g>
			<g>
				<path class="st2" d="M850.2,357.3c0-30.3,0-60.6,0-90.9c0-4.4,0-8.8,0-13.2c0-2.7-2.3-5-5-5c-26.6,0.1-53.1,0.2-79.7,0.3
					c-6.4,0-6.4,10,0,10c26.6-0.1,53.1-0.2,79.7-0.3c-1.7-1.7-3.3-3.3-5-5c0,30.3,0,60.6,0,90.9c0,4.4,0,8.8,0,13.2
					C840.2,363.7,850.2,363.8,850.2,357.3L850.2,357.3z"/>
			</g>
		</g>
	</g>
	<g id="LWPOLYLINE_135_">
		<g>
			<g>
				<path class="st2" d="M728.2,331.1c-11.3-11-22.5-22-33.8-33c-4.7-4.6-9.1-9.7-14.1-13.8c-4.2-3.5-13.4-1.9-18.5-2
					c-8.8-0.2-17.7-0.3-26.5-0.5c-6.4-0.1-6.4,9.9,0,10c13.7,0.2,27.4,0.5,41.2,0.7c-1.2-0.5-2.4-1-3.5-1.5
					c16.1,15.7,32.1,31.4,48.2,47C725.7,342.7,732.8,335.6,728.2,331.1L728.2,331.1z"/>
			</g>
		</g>
	</g>
	<g id="LWPOLYLINE_138_">
		<g>
			<g>
				<path class="st2" d="M401,137.2c29.8,0,59.5,0,89.3,0c29.4,0,58.8,0,88.3,0c16.5,0,33,0,49.4,0c-1.6-2.1-3.2-4.2-4.8-6.3
					c-7.4,26.5-14.8,53-22.2,79.6c-1.7,6.2,7.9,8.9,9.6,2.7c7.4-26.5,14.8-53,22.2-79.6c0.9-3.1-1.6-6.3-4.8-6.3
					c-30,0-60.1,0-90.1,0c-29.4,0-58.8,0-88.2,0c-16.2,0-32.5,0-48.7,0C394.5,127.2,394.5,137.2,401,137.2L401,137.2z"/>
			</g>
		</g>
	</g>
	<g id="LWPOLYLINE_145_">
		<g>
			<g>
				<path class="st2" d="M419.6,189.4c20.5,13.2,41,26.4,61.5,39.6c6.2,4,12.4,7.8,18.7,11.7c1.7-2.9,3.4-5.8,5-8.6
					c-4.2-2.5-8-4.6-12.6-6.3c-5.3-2-8.9,6.7-3.9,9.1c1.7,0.8,3.3,1.6,5,2.4c0.6,0.3,2.1,1.4,2.8,1.4c0.6,0-1.9-2.4-0.5-0.2
					c2.6-2,5.2-4,7.9-6.1c-1-0.9-2-1.9-3-2.8c-2,2.6-4,5.2-6.1,7.9c1.2,0.8,2.4,1.5,3.6,2.3c1.7-2.9,3.4-5.8,5-8.6
					c-26-12.8-51.9-25.7-77.9-38.5c-8-4-16-7.9-24-11.9c-5.7-2.8-10.8,5.8-5,8.6c26.1,12.9,52.2,25.8,78.3,38.8
					c7.8,3.9,15.7,7.7,23.5,11.6c5.7,2.8,10.5-5.2,5-8.6c-1.2-0.8-2.4-1.5-3.6-2.3c-4.8-3-10.3,4-6.1,7.9c1,0.9,2,1.9,3,2.8
					c4,3.7,10.9-1.1,7.9-6.1c-2.4-3.9-6.9-5.2-10.9-7.2c-1.3,3-2.6,6.1-3.9,9.1c0.9,0.3,1.9,0.7,2.8,1c0.6,0.2,1.2,0.4,1.7,0.6
					c-0.7-0.3-1.1-0.5-0.2,0c2,1.2,4,2.4,5.9,3.6c5.5,3.3,10.5-5.3,5-8.6c-20.8-12.8-41.2-26.2-61.7-39.4c-6.2-4-12.3-7.9-18.5-11.9
					C419.2,177.2,414.2,185.9,419.6,189.4L419.6,189.4z"/>
			</g>
		</g>
	</g>
	<g id="LWPOLYLINE_146_">
		<g>
			<g>
				<path class="st2" d="M234.4,95c-26.6,0-53.1,0-79.7,0c-6.4,0-6.4,10,0,10c26.6,0,53.1,0,79.7,0C240.9,105,240.9,95,234.4,95
					L234.4,95z"/>
			</g>
		</g>
	</g>
	<g id="LWPOLYLINE_147_">
		<g>
			<g>
				<path class="st2" d="M279.6,133.2c-13.6,0-27.3,0-40.9,0c0,3.3,0,6.7,0,10c2.7,0,5.5,0,8.2,0c6.4,0,6.4-10,0-10
					c-21.1,0-42.2,0-63.3,0c-6.4,0-6.4,10,0,10c21.1,0,42.2,0,63.3,0c0-3.3,0-6.7,0-10c-2.7,0-5.5,0-8.2,0c-6.4,0-6.4,10,0,10
					c13.6,0,27.3,0,40.9,0C286,143.2,286.1,133.2,279.6,133.2L279.6,133.2z"/>
			</g>
		</g>
	</g>
	<g id="LWPOLYLINE_149_">
		<g>
			<g>
				<path class="st2" d="M267.7,133.2c-23.2,0-46.5,0-69.7,0c-6.4,0-6.4,10,0,10c23.2,0,46.5,0,69.7,0
					C274.2,143.2,274.2,133.2,267.7,133.2L267.7,133.2z"/>
			</g>
		</g>
	</g>
	<g id="LWPOLYLINE_150_">
		<g>
			<g>
				<path class="st2" d="M247.9,133.2c-25.3,0-50.6,0-76,0c-3.9,0-7.7,0-11.6,0c-6.4,0-6.4,10,0,10c30,0,60.1,0,90.1,0
					c8.7,0,17.3,0,26,0c6.4,0,6.4-10,0-10c-30.5,0-61,0-91.4,0c-8.2,0-16.4,0-24.7,0c0,3.3,0,6.7,0,10c25.3,0,50.5,0,75.8,0
					c3.9,0,7.9,0,11.8,0C254.4,143.2,254.4,133.2,247.9,133.2L247.9,133.2z"/>
			</g>
		</g>
	</g>
	<g id="LWPOLYLINE_151_">
		<g>
			<g>
				<path class="st2" d="M241.5,133.2c-25.8,0-51.7,0-77.5,0c-6.4,0-6.4,10,0,10c25.8,0,51.7,0,77.5,0
					C248,143.2,248,133.2,241.5,133.2L241.5,133.2z"/>
			</g>
		</g>
	</g>
	<g id="LWPOLYLINE_152_">
		<g>
			<g>
				<path class="st2" d="M239.2,133.2c-26.1,0-52.2,0-78.2,0c-6.4,0-6.4,10,0,10c26.1,0,52.2,0,78.2,0
					C245.6,143.2,245.6,133.2,239.2,133.2L239.2,133.2z"/>
			</g>
		</g>
	</g>
	<g id="LWPOLYLINE_154_">
		<g>
			<g>
				<path class="st2" d="M781.5,525.7c3,6.5,6,12.9,9,19.4c1.2,2.7,1.9,4.9,4.4,6.5c2.6,1.7,5.8,2.9,8.5,4.3
					c5.4,2.8,10.6,6,15.6,9.4c1.2,0.8,2.4,1.7,3.5,2.6c1,0.7-0.9-0.8,0.7,0.5c0.8,0.6,1.6,1.2,2.3,1.9c2.2,1.9,4.3,3.9,6.3,6
					c2.6,2.7,7.4,1.4,8.4-2.2c6-23.4,9.5-46.6,10.1-70.8c-3.3,0-6.7,0-10,0c0,13.1,0,26.2,0,39.4c0,31.5,0,63,0,94.5
					c0,38.3,0,76.6,0,114.9c0,33,0,66,0,99c0,10.9,0,21.8,0,32.6c0,4.9-0.8,10.7,0,15.5c0,0.2,0,0.5,0,0.7c1.7-1.7,3.3-3.3,5-5
					c-21,0-42.1,0-63.1,0c-22.8,0-45.6,0-68.4,0c-22.6,0-45.2,0-67.7,0c-22.8,0-45.6,0-68.4,0c-22.7,0-45.3,0-68,0c-23,0-46,0-69,0
					c-22.8,0-45.6,0-68.4,0c-23.4,0-46.9,0-70.3,0c-22.4,0-44.8,0-67.3,0c-22.1,0-44.3,0-66.4,0c-4.5,0-8.9,0-13.4,0
					c1.7,1.7,3.3,3.3,5,5c0-24,0-48,0-71.9c0-6.4-10-6.4-10,0c0,24,0,48,0,71.9c0,2.7,2.3,5,5,5c21,0,42.1,0,63.1,0
					c22.8,0,45.6,0,68.4,0c22.6,0,45.2,0,67.7,0c22.8,0,45.6,0,68.4,0c22.7,0,45.3,0,68,0c23,0,46,0,69,0c22.8,0,45.6,0,68.4,0
					c23.4,0,46.9,0,70.3,0c22.4,0,44.8,0,67.3,0c22.1,0,44.3,0,66.4,0c4.5,0,8.9,0,13.4,0c2.7,0,5-2.3,5-5c0-13.1,0-26.2,0-39.4
					c0-31.5,0-63,0-94.5c0-38.3,0-76.6,0-114.9c0-33,0-66,0-99c0-16,0.7-32.2,0-48.2c0-0.2,0-0.5,0-0.7c0-6.4-9.8-6.4-10,0
					c-0.1,6-0.3,11.9-0.7,17.9c-0.2,2.5-0.4,4.9-0.6,7.3c-0.2,2-0.5,4-0.7,6c-0.1,0.8-0.2,1.6-0.3,2.4c-0.2,1.5,0.2-1.4,0-0.3
					c-1.9,11.8-4.4,23.4-7.4,35c2.8-0.7,5.6-1.5,8.4-2.2c-8.4-8.6-18.3-15.5-28.9-21.3c-2.8-1.5-5.7-3-8.6-4.4c0,0-1.8-1-1.8-0.9
					c3.3-2.7,1.4,3.4,1.3,1c-0.1-1.1-1.3-2.8-1.7-3.7c-3-6.5-6-12.9-9-19.4C787.4,514.8,778.8,519.9,781.5,525.7L781.5,525.7z"/>
			</g>
		</g>
	</g>
	<g id="LWPOLYLINE_155_">
		<g>
			<g>
				<path class="st2" d="M666.1,466.8c2.3-26.8,4.5-53.5,6.8-80.3c1.3-15.1,2.5-30.1,3.8-45.2c0.2-2.4,0.8-5.1,0.6-7.5
					c-0.3-4.3-6.2-9.6-8.7-12.7c-9.9-12.6-19.9-25.2-29.8-37.9c-1-1.3-3.4-1.8-4.9-1.3c-12.1,4.2-24.1,8.4-36.2,12.6
					c-13.4,4.7-27.3,8.7-40.4,14.1c-3.9,1.6-4.1,4.2-4.8,7.8c-1.2,5.9-2.4,11.9-3.5,17.8c-3.7,18.3-7.3,36.7-11,55
					c-2.4,12.2-4.9,24.4-7.3,36.6c-0.5,2.7,0.8,5.3,3.5,6.2c19.4,6.1,38.8,12.2,58.1,18.3c30.7,9.7,61.4,19.4,92.2,29.1
					c7.1,2.2,14.2,4.5,21.3,6.7c3.4,1.1,6-1.8,6.3-4.8c5.1-42.8,10.1-85.7,15.2-128.5c0.7-6.1,1.4-12.2,2.2-18.3c0.3-2.7-2.5-5-5-5
					c-17.5,0-35.1,0-52.6,0c-6.4,0-6.4,10,0,10c17.5,0,35.1,0,52.6,0c-1.7-1.7-3.3-3.3-5-5c-5.1,42.8-10.1,85.7-15.2,128.5
					c-0.7,6.1-1.4,12.2-2.2,18.3c2.1-1.6,4.2-3.2,6.3-4.8c-19.4-6.1-38.8-12.2-58.1-18.3c-30.7-9.7-61.4-19.4-92.2-29.1
					c-7.1-2.2-14.2-4.5-21.3-6.7c1.2,2.1,2.3,4.1,3.5,6.2c6.6-33.1,13.2-66.3,19.8-99.4c0.9-4.7,1.9-9.5,2.8-14.2
					c-1.2,1.2-2.3,2.3-3.5,3.5c25.7-8.9,51.4-17.9,77-26.8c-1.6-0.4-3.2-0.9-4.9-1.3c12.4,15.7,24.7,31.4,37.1,47
					c-0.5-1.2-1-2.4-1.5-3.5c-3.3,38.9-6.6,77.7-9.8,116.6c-0.5,5.4-0.9,10.9-1.4,16.3C655.6,473.3,665.6,473.2,666.1,466.8
					L666.1,466.8z"/>
			</g>
		</g>
	</g>
	<g id="LWPOLYLINE_160_">
		<g>
			<g>
				<path class="st2" d="M299.7,320.8c-20,0-40.1,0-60.1,0c-6.4,0-6.4,10,0,10c20,0,40.1,0,60.1,0
					C306.2,330.8,306.2,320.8,299.7,320.8L299.7,320.8z"/>
			</g>
		</g>
	</g>
	<g id="LWPOLYLINE_162_">
		<g>
			<g>
				<path class="st2" d="M155,248.9c18.4,0,36.7,0,55.1,0c6.4,0,6.4-10,0-10c-18.4,0-36.7,0-55.1,0
					C148.6,238.9,148.6,248.9,155,248.9L155,248.9z"/>
			</g>
		</g>
	</g>
	<g id="LWPOLYLINE_163_">
		<g>
			<g>
				<path class="st2" d="M662.5,582.8c6.3,8,12.6,16,18.9,24c1.2-2.8,2.4-5.7,3.5-8.5c-13.9,0-28.2-1-42.1,0
					c-3.2,0.2-4.9,2.2-7.2,4.2c-3.9,3.5-7.9,6.9-11.8,10.4c-27.6,24.4-55.2,48.7-82.8,73.1c-7.8,6.8-15.5,13.7-23.3,20.5
					c-4.2,3.7,1.3,10.9,6.1,7.9c18.5-11.8,36.9-23.7,55.4-35.5c29.4-18.9,58.8-37.7,88.2-56.6c6.7-4.3,13.4-8.6,20.2-12.9
					c5.4-3.5,0.4-12.1-5-8.6c-18.5,11.8-36.9,23.7-55.4,35.5c-29.4,18.9-58.8,37.7-88.2,56.6c-6.7,4.3-13.4,8.6-20.2,12.9
					c2,2.6,4,5.2,6.1,7.9c35.4-31.2,70.7-62.4,106.1-93.6c5-4.4,9.9-8.7,14.9-13.1c-1.2,0.5-2.4,1-3.5,1.5c14.2,0,28.5,0,42.7,0
					c4.7,0,6.1-5.3,3.5-8.5c-6.3-8-12.6-16-18.9-24C665.6,570.6,658.6,577.8,662.5,582.8L662.5,582.8z"/>
			</g>
		</g>
	</g>
	<g id="LWPOLYLINE_164_">
		<g>
			<g>
				<path class="st2" d="M623.4,581.7c4.9,8,9.7,16,14.6,24c3.3,5.5,12,0.5,8.6-5c-4.9-8-9.7-16-14.6-24
					C628.7,571.2,620.1,576.2,623.4,581.7L623.4,581.7z"/>
			</g>
		</g>
	</g>
	<g id="LWPOLYLINE_165_">
		<g>
			<g>
				<path class="st2" d="M744.2,688.4c1.7,10,3.3,20,5,30.1c1.1,6.9,2.3,13.8,3.4,20.7c0.4,2.2,0.7,4.4,1.1,6.6c0.2,1.3,0,4,0.3,1.5
					c-1,7.8-1,15.9-1.5,23.8c-1,14.7-1.9,29.5-2.9,44.2c-0.6,9.4-1.2,18.8-1.8,28.3c-0.2,2.7,2.4,5,5,5c25.3,0,50.6,0,75.8,0
					c2.9,0,4.8-2.3,5-5c2.6-31,5.2-62,7.8-93c0.3-3.3-0.2-5.8-0.9-9c-2-9-3.9-18-5.9-27.1c-1.8-8.5-3.7-16.9-5.5-25.4
					c-0.6-2.6-0.7-4.4-3-6.2c-2.6-2.1-5.7-3.8-8.6-5.5c-13.2-8-27.3-14.3-41.4-20.4c-1.9-0.8-4.5-1-6.1,0.8
					c-14.1,16.2-28.8,31.7-44.5,46.3c-7.3,6.8-14.8,13.4-22.5,19.8c-4,3.3-8.1,6.7-12.2,10c-2.5,2-5,4-7.5,6
					c0.9-0.7,0.4-0.3-0.8,0.6c-1.7,1.3-3.3,2.5-5,3.8c-9.4,7.2-19.1,14.1-28.8,20.9c-2.4,1.7-3,4.2-1.8,6.8
					c11.1,24.7,22.1,49.5,33.2,74.2c0.7,1.6,2.7,2.5,4.3,2.5c38.4,0,76.8,0,115.2,0c9.2,0,18.5,0,27.7,0c6.4,0,6.4-10,0-10
					c-38,0-76,0-114,0c-11.1,0-22.2,0-33.3,0c0,3.3,0,6.7,0,10c37.9,0,75.8,0,113.7,0c9.2,0,18.3,0,27.5,0c6.4,0,6.4-10,0-10
					c-38.2,0-76.4,0-114.7,0c-11,0-22,0-33.1,0c-6.4,0-6.4,10,0,10c23.1,0,46.1,0,69.2,0c6.4,0,12.8,0,19.1,0c6.4,0,6.4-10,0-10
					c-14.3,0-28.6,0-43,0c0,3.3,0,6.7,0,10c26.4,0,52.9,0,79.3,0c6.4,0,6.4-10,0-10c-26.4,0-52.9,0-79.3,0c-6.4,0-6.4,10,0,10
					c14.3,0,28.6,0,43,0c0-3.3,0-6.7,0-10c-23,0-45.9,0-68.9,0c-6.5,0-13,0-19.4,0c0,3.3,0,6.7,0,10c40,0,80,0,120.1,0
					c9.2,0,18.4,0,27.7,0c0-3.3,0-6.7,0-10c-36.8,0-73.6,0-110.4,0c-10.3,0-20.5,0-30.8,0c-6.4,0-6.4,10,0,10c38.4,0,76.8,0,115.2,0
					c10.7,0,21.5,0,32.2,0c0-3.3,0-6.7,0-10c-37.5,0-75,0-112.5,0c-10.1,0-20.3,0-30.4,0c1.4,0.8,2.9,1.7,4.3,2.5
					c-11.1-24.7-22.1-49.5-33.2-74.2c-0.6,2.3-1.2,4.6-1.8,6.8c34.8-24.5,68.2-50.8,98-81.2c8.8-8.9,17.1-18.2,25.3-27.7
					c-2,0.3-4,0.5-6.1,0.8c17.3,7.4,34.3,15.5,50,25.9c-0.8-1-1.5-2-2.3-3c2.2,10,4.3,20,6.5,30.1c1.5,7,3,13.9,4.5,20.9
					c0.5,2.2,0.9,4.3,1.4,6.5c0.3,1.3,0.1,3.8,0.4,1.4c-1.1,7.8-1.3,15.9-2,23.8c-1.2,14.7-2.5,29.5-3.7,44.2
					c-0.8,9.4-1.6,18.8-2.4,28.3c1.7-1.7,3.3-3.3,5-5c-25.3,0-50.6,0-75.8,0c1.7,1.7,3.3,3.3,5,5c1.5-22.7,2.9-45.3,4.4-68
					c0.6-9.2,1.9-18.6,1.8-27.8c-0.1-8.5-2.8-17.6-4.2-26c-2-12-4-23.9-6-35.9C752.8,679.4,743.1,682.1,744.2,688.4L744.2,688.4z"/>
			</g>
		</g>
	</g>
	<g id="LWPOLYLINE_166_">
		<g>
			<g>
				<path class="st2" d="M357.5,446c-6.8-15-13.8-30-20.4-45.1c-3.5-7.9-7.1-15.9-10.5-23.8c-2.2-5-4.3-10-6.4-15
					c-1-2.4-2.1-4.9-3.1-7.3c-0.4-0.9-0.8-1.9-1.2-2.8c-0.1-0.3-0.9-2.1-0.3-0.7c0.6,1.4-0.2-0.4-0.3-0.7c-0.4-1-0.9-2.1-1.3-3.1
					c-1.3-3.1-2.5-6.1-3.8-9.2c-1.9-4.5-3.7-9.1-5.6-13.6c-0.4,1.6-0.9,3.2-1.3,4.9c15.6-15.8,31.7-31.2,48.2-46.1
					c4.5-4,9-8,13.5-12c4.8-4.3-2.3-11.3-7.1-7.1c-16.1,14.4-32.1,28.8-47.5,43.9c-4.8,4.7-9.5,9.4-14.2,14.2
					c-1.1,1.2-1.9,3.3-1.3,4.9c12.9,31.4,26.1,62.7,40.2,93.6c4.6,10.1,9.2,20.2,13.7,30.2C351.5,456.9,360.1,451.8,357.5,446
					L357.5,446z"/>
			</g>
		</g>
	</g>
	<g id="LWPOLYLINE_167_">
		<g>
			<g>
				<path class="st2" d="M758.7,752.5c25.9,0,51.7,0,77.6,0c6.4,0,6.4-10,0-10c-25.9,0-51.7,0-77.6,0
					C752.3,742.5,752.3,752.5,758.7,752.5L758.7,752.5z"/>
			</g>
		</g>
	</g>
	<g id="LWPOLYLINE_170_">
		<g>
			<g>
				<path class="st2" d="M845.2,895c-26.6,0-53.1,0-79.7,0c-6.4,0-6.4,10,0,10c26.6,0,53.1,0,79.7,0C851.7,905,851.7,895,845.2,895
					L845.2,895z"/>
			</g>
		</g>
	</g>
	<g id="LWPOLYLINE_171_">
		<g>
			<g>
				<path class="st2" d="M740.5,848.4c24.1,0,48.1,0,72.2,0c6.4,0,6.4-10,0-10c-24.1,0-48.1,0-72.2,0
					C734.1,838.4,734.1,848.4,740.5,848.4L740.5,848.4z"/>
			</g>
		</g>
	</g>
	<g id="LWPOLYLINE_172_">
		<g>
			<g>
				<path class="st2" d="M514,713.4c1.4,0,2.8,0,4.2,0c2.6,0,5.1-2.3,5-5c-0.1-2.7-2.2-5-5-5c-1.4,0-2.8,0-4.2,0c-2.6,0-5.1,2.3-5,5
					C509.1,711.1,511.2,713.4,514,713.4L514,713.4z"/>
			</g>
		</g>
	</g>
	<g id="LWPOLYLINE_173_">
		<g>
			<g>
				<path class="st2" d="M735.3,848.4c23.5,0,47.1,0,70.6,0c6.4,0,6.4-10,0-10c-23.5,0-47.1,0-70.6,0
					C728.9,838.4,728.9,848.4,735.3,848.4L735.3,848.4z"/>
			</g>
		</g>
	</g>
	<g id="LWPOLYLINE_174_">
		<g>
			<g>
				<path class="st2" d="M723.1,848.4c22.3,0,44.6,0,66.9,0c6.4,0,6.4-10,0-10c-22.3,0-44.6,0-66.9,0
					C716.6,838.4,716.6,848.4,723.1,848.4L723.1,848.4z"/>
			</g>
		</g>
	</g>
	<g id="LWPOLYLINE_175_">
		<g>
			<g>
				<path class="st2" d="M214.8,542.2c-17,0-34.1,0-51.1,0.1c1.7,1.7,3.3,3.3,5,5c-2.9-24.5-5.9-48.9-8.7-73.4
					c-0.1-0.9-0.2-1.8-0.2-2.6c-0.1-1.3,0.1-0.4,0-0.4c-0.5-0.1-5.1,2.1-6,2.3c0.1,0-1-0.4-0.5-0.4c0.1,0,0.5,0.5,0.6,0.6
					c2.4-2.4,4.7-4.7,7.1-7.1c-0.1-0.1-0.2-0.1-0.3-0.2c-1.2,2.8-2.4,5.7-3.5,8.5c19.2-0.2,38.3-0.3,57.5-0.5c6.4-0.1,6.4-10.1,0-10
					c-19.2,0.2-38.3,0.3-57.5,0.5c-4.1,0-7,5.6-3.5,8.5c0.1,0.1,0.2,0.1,0.3,0.2c4.9,4.1,11.5-2.3,7.1-7.1c-4.5-4.9-10.7-2-11,4.3
					c-0.2,2.9,0.5,6,0.8,8.9c2.1,17.4,4.1,34.8,6.2,52.2c0.6,5.2,1.2,10.4,1.9,15.7c0.3,2.7,2,5,5,5c17,0,34.1,0,51.1-0.1
					C221.2,552.2,221.2,542.2,214.8,542.2L214.8,542.2z"/>
			</g>
		</g>
	</g>
	<g id="LWPOLYLINE_177_">
		<g>
			<g>
				<path class="st2" d="M374.4,665.3c-2.7-7.3-5.5-14.5-8.2-21.8c-0.4-1.1-0.8-3.2-1.5-4c-0.9-1-0.8,2.4-0.1,1.6
					c1.1-1.2,1.7-4.1,2.3-5.5c7-17.2,14.1-34.5,21.1-51.7c2.2-5.3,4.3-10.6,6.5-15.9c2.4-6-7.2-8.5-9.6-2.7
					c-5.6,13.6-11.1,27.3-16.7,40.9c-3.4,8.4-6.9,16.9-10.3,25.3c-1.6,4-3.9,7.4-2.4,11.7c2.9,8.3,6.2,16.5,9.4,24.8
					C367,673.9,376.7,671.3,374.4,665.3L374.4,665.3z"/>
			</g>
		</g>
	</g>
	<g id="LWPOLYLINE_179_">
		<g>
			<g>
				<path class="st2" d="M329.1,672.7c21.4,4.7,42.9,9.4,64.3,14.2c34.4,7.6,68.7,15.1,103.1,22.7c7.8,1.7,15.7,3.5,23.5,5.2
					c6.3,1.4,8.9-7.9,2.7-9.6c-24.5-7-49-14-73.5-20.9c-17.3-4.9-34.6-9.8-51.8-14.8c-8.6-2.5-17.4-5.7-26.2-7.5
					c-5.6-1.1-12-0.2-17.7-0.2c-7.7,0-15.4,0-23,0c1.4,0.8,2.9,1.7,4.3,2.5c-4.3-8.8-8.7-17.6-13-26.4c0,1.7,0,3.4,0,5
					c13-24.5,26.1-49.1,39.1-73.6c3-5.7-5.6-10.7-8.6-5c-7.3,13.7-14.6,27.5-21.9,41.2c-4.5,8.5-9,17-13.5,25.4
					c-1.1,2.1-2.4,4.2-3.4,6.4c-1.2,2.7-0.8,4.6,0.4,7.1c4,8.3,8.2,16.6,12.2,24.9c0.8,1.5,2.7,2.5,4.3,2.5c13,0,26-0.1,39,0
					c-2.3,0-0.7-0.1,0.3,0.3c1.5,0.5,3,0.9,4.5,1.3c5.4,1.5,10.7,3.1,16.1,4.6c33.9,9.7,67.8,19.3,101.7,29c9.3,2.7,18.7,5.3,28,8
					c0.9-3.2,1.8-6.4,2.7-9.6c-21.4-4.7-42.9-9.4-64.3-14.2c-34.4-7.6-68.7-15.1-103.1-22.7c-7.8-1.7-15.7-3.5-23.5-5.2
					C325.5,661.7,322.8,671.3,329.1,672.7L329.1,672.7z"/>
			</g>
		</g>
	</g>
	<g id="LWPOLYLINE_182_">
		<g>
			<g>
				<path class="st2" d="M352,744.2c-14.8,0-29.6,0-44.4,0c-1.6,0-3.6,0.9-4.3,2.5c-13,30.1-26,60.2-38.5,90.5
					c-4,9.8-8.1,19.6-12.1,29.4c-2.4,5.9,7.2,8.5,9.6,2.7c3.4-8.4,6.9-16.7,10.3-25.1c1.8-4.3,3.6-8.6,5.3-12.9
					c0.7-1.7,0.3-0.9,0.1-0.4c0.5-1.3,1.1-2.6,1.6-3.9c6.6-15.5,13.1-31.1,19.8-46.6c4.1-9.6,8.3-19.1,12.4-28.7
					c-1.4,0.8-2.9,1.7-4.3,2.5c14.8,0,29.6,0,44.4,0C358.4,754.2,358.4,744.2,352,744.2L352,744.2z"/>
			</g>
		</g>
	</g>
	<g id="LWPOLYLINE_184_">
		<g>
			<g>
				<path class="st2" d="M495,862.9c-0.5,0-1,0-1.5,0c-1.3,0-2.6,0.6-3.5,1.5c-0.9,0.9-1.5,2.3-1.5,3.5c0.1,1.3,0.5,2.6,1.5,3.5
					c1,0.9,2.2,1.5,3.5,1.5c0.5,0,1,0,1.5,0c1.3,0,2.6-0.6,3.5-1.5c0.9-0.9,1.5-2.3,1.5-3.5c-0.1-1.3-0.5-2.6-1.5-3.5
					C497.6,863.4,496.3,862.9,495,862.9L495,862.9z"/>
			</g>
		</g>
	</g>
	<g id="LWPOLYLINE_185_">
		<g>
			<g>
				<path class="st2" d="M467.5,862.9c-40.8,0-81.6,0-122.4,0c-13.3,0-26.6,0-40,0c0,3.3,0,6.7,0,10c13.1,0,26.3,0,39.4,0
					c0-3.3,0-6.7,0-10c-22.9,0-45.9,0-68.8,0c-6.1,0-12.1,0-18.2,0c-6.4,0-6.4,10,0,10c34.5,0,69,0,103.5,0c35.4,0,70.7,0,106.1,0
					c20.2,0,40.4,0,60.6,0c3,0,6-3.2,4.8-6.3c-9.7-24.7-19.5-49.5-29.2-74.2c-1.6,2.1-3.2,4.2-4.8,6.3c0.1,0,0.1,0,0.2,0
					c5.7,0,6.7-8.2,1.3-9.8c-38.4-11.4-76.9-22.3-115.1-34.1c-10.6-3.3-21.1-6.8-31.6-10.4c-2.6-0.9-5.4,1-6.2,3.5
					c-11.2,34.6-22.5,69.3-33.7,103.9c-1.6,4.9-3.2,9.9-4.8,14.8c-1,3.1,1.7,6.3,4.8,6.3c27.3,0,54.6,0,81.9,0c28,0,56,0,84.1,0
					c15.6,0,31.2,0,46.8,0c6.4,0,6.4-10,0-10c-27.1,0-54.3,0-81.4,0c-43.2,0-86.4,0-129.6,0c-9.8,0-19.7,0-29.5,0
					c-6.4,0-6.4,10,0,10c27.1,0,54.3,0,81.4,0c43.2,0,86.4,0,129.6,0c9.8,0,19.7,0,29.5,0c0-3.3,0-6.7,0-10c-27.6,0-55.2,0-82.8,0
					c-27.7,0-55.5,0-83.2,0c-15.6,0-31.2,0-46.7,0c1.6,2.1,3.2,4.2,4.8,6.3c11.2-34.6,22.5-69.3,33.7-103.9
					c1.6-4.9,3.2-9.9,4.8-14.8c-2.1,1.2-4.1,2.3-6.2,3.5c41.1,13.7,82.7,25.5,124.2,37.8c7.5,2.2,15,4.4,22.5,6.7
					c0.4-3.3,0.9-6.5,1.3-9.8c-0.1,0-0.1,0-0.2,0c-3,0-6,3.2-4.8,6.3c9.7,24.7,19.5,49.5,29.2,74.2c1.6-2.1,3.2-4.2,4.8-6.3
					c-35.4,0-70.7,0-106.1,0c-33.7,0-67.4,0-101.1,0c-21,0-42,0-63,0c0,3.3,0,6.7,0,10c22.3,0,44.6,0,66.9,0c6.7,0,13.4,0,20.1,0
					c6.4,0,6.4-10,0-10c-13.1,0-26.3,0-39.4,0c-6.4,0-6.4,10,0,10c43.1,0,86.2,0,129.3,0c11,0,22,0,33,0
					C473.9,872.9,473.9,862.9,467.5,862.9L467.5,862.9z"/>
			</g>
		</g>
	</g>
	<g id="LWPOLYLINE_190_">
		<g>
			<g>
				<path class="st2" d="M168,733.7c1.8-8.8,3.5-17.6,5.3-26.4c1.3-6.3-7.6-8.8-9.6-2.7c-2.5,7.8-3.3,15.9-4.4,24
					c-1,6.9-2.6,13.8-3.9,20.7c-1.2,6.2,8,9,9.6,2.7c3.3-12.4,5.1-25.1,6.9-37.8c1.7-12.2,3.1-24.6,3.6-36.9c0.1-3.3,0-6.7,0-10
					c0-3.5,0.6-7.4-0.8-10.7c-2.1-4.9-9.7-4.7-9.8,1.3c-0.3,14.5-0.8,28.9-2.3,43.3c-0.4,4.4-1.1,8.8-1.5,13.2
					c-0.2,1.8,0.2-1.4,0-0.1c-0.1,0.8-0.2,1.7-0.4,2.5c-0.4,2.6-0.8,5.2-1.2,7.8c-1,6.6-2.1,13.2-3.5,19.8c-1.9,8.7-3.9,17.3-6,25.9
					c3.3,0.4,6.5,0.9,9.8,1.3c0-34,0-68,0.1-102.1c0-54.1,0.1-108.3,0.1-162.4c0-12.3,0-24.6,0-36.9c-3.3,0.4-6.5,0.9-9.8,1.3
					c2.9,18.9,5.9,37.8,8.8,56.7c1.4,9.2,2.9,18.4,4.3,27.6c0.4,2.7,1.7,4.3,3.5,6.5c3.5,4.2,5.6,6.9,10.6,9.1
					c9,3.9,18.2,7.3,27.4,10.5c2.7,0.9,5.3-1.1,6.2-3.5c6-17.6,12.1-35.2,18.1-52.9c2.3-6.7,5.7-13.8,7.1-20.8
					c0.7-3.5-2-7.2-3.5-10.1c-2.5-5-5-9.9-7.5-14.9c-3.7-7.5-6.9-15.2-10.5-22.7c-0.2-0.5-0.4-0.9-0.6-1.4c0.4,0.8,0.6,1.4,0.2,0.4
					c-0.9-2.1-1.7-4.2-2.6-6.3c-2-4.9-4.1-9.8-6.1-14.8c-6.2-15.3-11.6-31.1-16.5-46.9c-1.2-4-2.3-8.1-3.5-12.1
					c-1.1-3.8-1.9-12.3-5.6-14.6c-1.9-1.2-4.6-1.6-6.7-2.3c-1.1-0.4-2.1-0.8-3.1-1.2c-0.5-0.2-1.1-0.4-1.6-0.6
					c-1.6-0.7,1,0.5-0.7-0.3c-2.1-1-4.2-2-6.1-3.4c1.1,0.8-0.9-0.8-1.3-1.2c-0.9-1.1-0.4-0.3-0.8-1.8c-1.4-5.5-9.8-4.3-9.8,1.3
					c0,0.5,0,1.1,0,1.6c3.3,0,6.7,0,10,0c0-31.3,0-62.5,0-93.8c0-4.4,0-8.9,0-13.3c-2.5,1.4-5,2.9-7.5,4.3
					c6.6,3.5,12.7,7.1,19.8,9.7c6.9,2.5,13.9,4.5,20.9,6.4c1.6,0.4,3.7,0,4.9-1.3c13.4-15.7,27.9-30.2,43.7-43.4
					c4.4-3.7,9-7.3,13.5-10.9c1-0.8,2.1-1.6,3.1-2.4c1.4-1.1-1.3,1,0.8-0.6c2.7-2,5.4-4,8.1-6c4-2.9,11.4-6.1,12.3-11.3
					c0.7-4,0.7-8.2,1-12.2c1.1-13.5,2.2-27.1,3.2-40.6c0.2-2.7-2.5-5-5-5c-33.9,0-67.8,0-101.8,0c-7.3,0-14.6,0.1-21.9-0.1
					c1.7,1.7,3.3,3.3,5,5c0-12.7,0.1-25.4,0.1-38.1c0-2.7-2.3-5-5-5c-0.1,0-0.1,0-0.2,0c-6.4,0-6.4,10,0,10c21.2,0,42.3,0,63.5,0
					c23,0,45.9,0,68.9,0c22.7,0,45.4,0,68.1,0c23,0,46,0,69,0c22.6,0,45.2,0,67.9,0c23.2,0,46.3,0,69.5,0c22.6,0,45.3,0,67.9,0
					c22.1,0,44.2,0,66.3,0c21.7,0,43.5,0,65.2,0c24.9,0,49.7,0,74.6,0c3.2,0,6.4,0,9.6,0c-1.7-1.7-3.3-3.3-5-5c0,14.8,0,29.7,0,44.5
					c1.7-1.7,3.3-3.3,5-5c-36,0-72.1,0-108.1,0c-9.8,0-19.6,0-29.5,0c-6.4,0-6.4,10,0,10c36.5,0,73,0,109.6,0c9.3,0,18.7,0,28,0
					c2.7,0,5-2.3,5-5c0-14.8,0-29.7,0-44.5c0-2.7-2.3-5-5-5c-25.5,0-51,0-76.5,0c-18.8,0-37.7,0-56.5,0c-22.1,0-44.2,0-66.3,0
					c-22.8,0-45.5,0-68.3,0c-22.8,0-45.6,0-68.4,0c-22.7,0-45.4,0-68.1,0c-22.8,0-45.6,0-68.4,0c-23.3,0-46.5,0-69.8,0
					c-22.3,0-44.7,0-67,0c-22.3,0-44.7,0-67,0c-4.7,0-9.3,0-14,0c-6.4,0-6.4,10,0,10c0.1,0,0.1,0,0.2,0c-1.7-1.7-3.3-3.3-5-5
					c0,12.7-0.1,25.4-0.1,38.1c0,2.8,2.3,4.9,5,5c31.9,0.8,63.9,0.1,95.9,0.1c9.2,0,18.5,0,27.7,0c-1.7-1.7-3.3-3.3-5-5
					c-1.4,17.6-2.8,35.2-4.2,52.9c0.8-1.4,1.7-2.9,2.5-4.3c-23.3,16.4-45.5,33.9-65.4,54.3c-5.5,5.6-10.6,11.5-15.7,17.4
					c1.6-0.4,3.2-0.9,4.9-1.3c-6.8-1.8-13.5-3.7-20.1-6.1c-1.8-0.6-3.5-1.3-5.2-2c-0.8-0.3-0.6-0.2,0.1,0c-0.4-0.2-0.9-0.4-1.3-0.6
					c-0.7-0.3-1.4-0.6-2.1-1c-3.3-1.6-6.3-3.7-9.6-5.4c-3.3-1.7-7.5,0.4-7.5,4.3c0,31.3,0,62.5,0,93.8c0,4.4,0,8.9,0,13.3
					c0,6.4,9.9,6.4,10,0c0-0.5,0-1.1,0-1.6c-3.3,0.4-6.5,0.9-9.8,1.3c2.8,10.7,16.7,14.4,26,17.3c-1.2-1.2-2.3-2.3-3.5-3.5
					c5.2,18.1,10.5,36.2,17,53.9c7.2,19.4,15.1,38.3,23.7,57.1c4.3,9.4,9.1,18.6,13.8,27.8c-0.2-1.3-0.3-2.6-0.5-3.9
					c-8.4,24.6-16.8,49.2-25.2,73.9c2.1-1.2,4.1-2.3,6.2-3.5c-7.8-2.7-15.5-5.6-23.1-8.7c-0.6-0.3-3.2-1.4-2.5-1.1
					c0.7,0.3-2.2-0.9-2.7-1.2c-1.3-0.7-0.1,0.1,0.1,0.3c-0.3-0.3-0.6-0.7-0.9-1c-0.8-1.1-1.8-2.2-2.7-3.3c-0.9-1.1-1.7-2.2-2.7-3.3
					c-2.1-2.2,0.8,0.8,0.4,1.1c0.1-0.1-0.3-1.5-0.3-1.7c-0.6-8.7-2.7-17.5-4.1-26.1c-1.9-12.1-3.8-24.1-5.6-36.2
					c-1.2-7.5-2.3-14.9-3.5-22.4c-0.9-5.7-9.8-4.2-9.8,1.3c0,34,0,68-0.1,102.1c0,54.1-0.1,108.3-0.1,162.4c0,12.3,0,24.6,0,36.9
					c0,5.6,8.5,6.9,9.8,1.3c7.1-29,12.6-58.5,14.2-88.4c0.5-8.9,0.8-17.8,1-26.7c-3.3,0.4-6.5,0.9-9.8,1.3c0.8,1.8,0.5-0.7,0.4,1.5
					c0,2,0,4,0,6.1c0,3.4,0.1,6.8,0,10.2c-0.2,5.6-0.7,11.2-1.3,16.7c-0.3,3.5-0.7,6.9-1.1,10.4c-0.2,1.7-0.4,3.4-0.5,5.1
					c-0.1,1.1,0-0.1,0.1-0.6c-0.1,0.5-0.1,1.1-0.2,1.6c-0.8,6-1.6,12-2.6,18c-1.2,7.2-2.6,14.1-4.4,21.2c3.2,0.9,6.4,1.8,9.6,2.7
					c1.3-6.9,2.9-13.7,3.9-20.7c1.2-8.1,1.9-16.2,4.4-24c-3.2-0.9-6.4-1.8-9.6-2.7c-1.8,8.8-3.5,17.6-5.3,26.4
					C157.1,737.3,166.8,740,168,733.7L168,733.7z"/>
			</g>
		</g>
	</g>
	<g id="LWPOLYLINE_193_">
		<g>
			<g>
				<path class="st2" d="M159.9,772.5c0-0.1-0.1-0.2-0.1-0.2c-1.6,2.1-3.2,4.2-4.8,6.3c9.5,0.1,19.1,0.2,28.6,0.3
					c6.4,0.1,6.4-9.9,0-10c-9.5-0.1-19.1-0.2-28.6-0.3c-2.9,0-6.1,3.3-4.8,6.3c0,0.1,0.1,0.2,0.1,0.2
					C152.7,781,162.4,778.4,159.9,772.5L159.9,772.5z"/>
			</g>
		</g>
	</g>
	<g id="LWPOLYLINE_199_">
		<g>
			<g>
				<path class="st2" d="M154.8,905c26.6,0,53.1,0,79.7,0c6.4,0,6.4-10,0-10c-26.6,0-53.1,0-79.7,0C148.3,895,148.3,905,154.8,905
					L154.8,905z"/>
			</g>
		</g>
	</g>
</g>
<g id="Layer_2" class="st0">
	<rect x="900" y="900" class="st3" width="100" height="100"/>
	<rect y="0" class="st3" width="100" height="100"/>
</g>
</svg>
