<?xml version="1.0" encoding="utf-8"?>
<!-- Generator: Adobe Illustrator 21.0.0, SVG Export Plug-In . SVG Version: 6.00 Build 0)  -->
<svg version="1.1" xmlns="http://www.w3.org/2000/svg" xmlns:xlink="http://www.w3.org/1999/xlink" x="0px" y="0px"
	 viewBox="0 0 1000 1000" style="enable-background:new 0 0 1000 1000;" xml:space="preserve">
<style type="text/css">
	.st0{fill:#AC7651;}
	.st1{display:none;}
	.st2{display:inline;fill:#AC7651;}
</style>
<g id="Layer_1">
	<g>
		<g id="LWPOLYLINE_20_">
			<g>
				<g>
					<path class="st0" d="M517.9,835.2c16.5-17.2,32.9-34.4,49-51.9c16.7-18,33.2-36.1,49.5-54.4c9-10.2,18-20.4,27-30.6
						c-1.2,0.5-2.4,1-3.5,1.5c14,0,28,0,42,0c-1.2-2.8-2.4-5.7-3.5-8.5c-21.1,18.6-42.4,37.1-63.9,55.3
						c-20.6,17.5-41.5,34.8-62.5,51.9c-12.2,10-24.5,19.8-36.8,29.7c2-0.3,4-0.5,6.1-0.8c-7.3-5.1-14.4-10.5-22-15.2
						c-1.3,3-2.6,6.1-3.9,9.1c2.3,0.9-0.9-1.2-0.5-0.5c0.2,0.4,1,0.9,1.4,1.2c1.9,1.7,3.8,3.5,5.7,5.2c3,2.7,5.9,5.3,8.9,8
						c4.8,4.3,11.9-2.8,7.1-7.1c-3.3-3-6.7-6-10-9c-3.1-2.8-5.9-5.9-9.9-7.5c-5.4-2.1-8.5,6.3-3.9,9.1c7.5,4.7,14.7,10.1,22,15.2
						c2,1.4,4.4,0.5,6.1-0.8c21.6-17.3,43.1-34.8,64.4-52.4c20.9-17.3,41.7-34.9,62.3-52.7c12.2-10.5,24.3-21.2,36.4-31.8
						c3.3-2.9,0.6-8.5-3.5-8.5c-7.8,0-15.6,0-23.5,0c-4.9,0-9.9,0-14.8,0c-2.9,0-5.2-0.3-7.5,1.8c-5.5,5-10.1,11.6-15.1,17.2
						c-5.4,6.1-10.7,12.1-16.1,18.2c-19.2,21.5-38.7,42.8-58.4,63.8c-11.8,12.5-23.6,25-35.5,37.4
						C506.4,832.7,513.4,839.8,517.9,835.2z"/>
				</g>
			</g>
		</g>
		<g id="LWPOLYLINE_32_">
			<g>
				<g>
					<path class="st0" d="M558.9,887.4c25.6,0,51.3,0.8,76.9,0c7.9-0.2,15.8-0.8,23.7-1.3c6.4-0.3,6.5-10,0-10c-1.6,0-3.3-0.2-4.9,0
						c-1.2,0.1-1.9,0.4-2.9,0.8c-0.5,0.2-1.1,0.4-1.5,0.7c-1.7,1,1.1-0.3,1.2-0.2c-1-1.1-8.4,0-10.1,0c-6.7,0-13.3,0-20,0
						c-13.7,0-27.5,0-41.2,0c-7.1,0-14.1,0-21.2,0C552.5,877.4,552.5,887.4,558.9,887.4c26.5,0,53.1,0,79.6,0c3.8,0,7.6,0.1,11.4,0
						c2.2,0,4.2-0.4,6.1-1.5c1.5-0.9-2.9,0,0.1,0.2c1.1,0.1,2.3,0,3.4,0c0-3.3,0-6.7,0-10c-26.2,1.4-52.2,1.3-78.4,1.3
						c-7.4,0-14.8,0-22.2,0C552.5,877.4,552.5,887.4,558.9,887.4z"/>
				</g>
			</g>
		</g>
		<g id="LWPOLYLINE_168_">
			<g>
				<g>
					<path class="st0" d="M804.8,129.6c-23.7,0-47.4,0-71.1,0c-6.4,0-6.4,10,0,10c28.7,0,57.3,0,86,0c5.6,0,11.2,0,16.8,0
						c6.4,0,6.4-10,0-10c-26.4,0-52.9,0-79.3,0c-3.8,0-7.7,0-11.5,0c-1.7,0-3.5,0.9-4.3,2.5c-4.6,8.7-9.2,17.4-13.8,26.1
						c-2.4,4.6-4.9,9.2-7.3,13.8c-1.8,3.3-1.7,5.7,0.3,9c9.2,15.6,18.5,31.2,26.9,47.3c8.3,16.1,16.6,32.1,24,48.6
						c2.4,5.4,4.8,10.8,7.2,16.1c1,2.2-0.6-1.6,0.5,1.2c1,2.5,2.1,5,3.1,7.6c3.6,8.6,7,17.2,10.3,26c7.2,19.1,13.4,38.5,19.4,58
						c0.7,2.3,2.6,3.4,4.8,3.7c2.1,0.2,4.2,0.4,6.3,0.6c1.8,0.2,3.4-1.1,4.3-2.5c7.6-11.5,13.8-23.3,17.2-36.7
						c-3.3-0.4-6.5-0.9-9.8-1.3c0,12.4,0,24.7,0,37.1c0,6.2-0.1,12.5,0,18.7c0,0.5,0,1.1,0,1.6c0.1-1.5,0.1-0.9-0.4,0.5
						c-1.2,3.5-2.3,7.1-3.4,10.6c-1.4,4.9,0.4,10.7,1.2,15.7c0.6,4.1,1.2,8.1,1.8,12.2c0.2,1.4,0.4,2.9,0.6,4.3
						c0.2,1.2,0,2.4,0.1,0.4c-0.4,11.4,0,22.9,0,34.3c0,13.4,0,26.9,0,40.3c3.3,0,6.7,0,10,0c-3-24.1-8.1-47.4-15-70.7
						c-0.7-2.2-2.6-3.6-4.8-3.7c-2-0.1-4.1-0.2-6.1-0.2c-1.7-0.1-3.5,1-4.3,2.5c-7.6,14.6-15.9,28.8-25.6,42.1
						c-1.6,2.2-3.3,4.4-4.9,6.6c-0.6,0.8-1.1,1.5-1.7,2.3c0.7-1,0.2-0.3-0.7,0.9c-2.6,3.2-5.1,6.5-7.7,9.7
						c-5.5,6.6-11.2,13.2-17,19.5c-6.2,6.7-12.6,13.2-19.2,19.6c-4.2,4.1-12.4,8.8-12.1,15.2c1.1,19.5,3.5,39.1,5.3,58.5
						c1.7,19.4,3.5,38.7,5.2,58.1c0.2,2.5,1.5,3.9,3.7,4.8c2,0.8,4,1.7,6,2.5c0.8,0.3,1.6,0.6,2.4,1c-2.2-0.9,0.7,0.3,1.3,0.6
						c4.1,1.8,8.2,3.6,12.2,5.5c6.8,3.2,13.4,6.6,19.9,10.2c6.9,3.8,13.6,7.9,20,12.4c1.4,0.9,2.7,1.9,4,2.9c0.4,0.3,3.2,2.4,1.4,1
						c1,0.8,2,1.6,3,2.4c3,2.4,5.8,4.9,8.5,7.5c1.6,1.6,3.2,3.2,4.7,4.9c0.5,0.6,1.1,1.2,1.6,1.8c0.4,0.4,2.8,3.5,1.5,1.8
						c2.7,3.6,4.9,7.4,6.9,11.4c1.9,3.8,8.2,2.9,9.1-1.2c0.7-3,1.4-6,2.1-9c-3.3-0.4-6.5-0.9-9.8-1.3c0,43.8,0,87.5,0,131.3
						c0,6.3,0,12.5,0,18.8c1.7-1.7,3.3-3.3,5-5c-38,0-75.9,0-113.9,0c-40.2,0-80.3,0-120.5,0c-39.3,0-78.6,0-117.9,0
						c-39.4,0-78.7,0-118.1,0c-38.5,0-77,0-115.5,0c-4.4,0-8.8,0-13.2,0c1.6,1.2,3.2,2.4,4.8,3.7c-0.2-0.9-0.3-1.8-0.5-2.7
						c-0.1-0.6-0.8-5-0.6-2.3c0.2,2.5,0.4-0.9,0.5-1.8c0.2-1,0.4-2.1,0.6-3.1c-1.6,1.2-3.2,2.4-4.8,3.7c24,0,47.9,0,71.9,0
						c6.4,0,6.4-10,0-10c-2.4,0-4.8,0-7.3,0c0,3.3,0,6.7,0,10c20.3,0,40.6,0,60.9,0c6.4,0,6.4-10,0-10c-20.3,0-40.6,0-60.9,0
						c-6.4,0-6.4,10,0,10c2.4,0,4.8,0,7.3,0c0-3.3,0-6.7,0-10c-24,0-47.9,0-71.9,0c-2,0-4.4,1.5-4.8,3.7c-0.4,2.4-1.3,5.1-1.3,7.6
						c0,2.5,0.9,5.2,1.3,7.6c0.4,2.1,2.8,3.7,4.8,3.7c37.8,0,75.6,0,113.5,0c39.6,0,79.1,0,118.7,0c40,0,80,0,120,0
						c39.1,0,78.2,0,117.3,0c38.8,0,77.7,0,116.5,0c4.4,0,8.8,0,13.2,0c2.7,0,5-2.3,5-5c0-43.8,0-87.5,0-131.3c0-6.3,0-12.5,0-18.8
						c0-5.5-8.5-6.9-9.8-1.3c-0.7,3-1.4,6-2.1,9c3-0.4,6.1-0.8,9.1-1.2c-14.2-28.6-46-46-73.8-59.3c-8.5-4-17.1-7.7-25.8-11.3
						c1.2,1.6,2.4,3.2,3.7,4.8c-3.1-34.5-6.2-69.1-9.3-103.6c-0.4-4.8-0.9-9.7-1.3-14.5c-0.5,1.2-1,2.4-1.5,3.5
						c27.1-25.5,52.9-52.9,72.8-84.5c5.8-9.3,11.2-18.7,16.2-28.4c-1.4,0.8-2.9,1.7-4.3,2.5c2,0.1,4.1,0.2,6.1,0.2
						c-1.6-1.2-3.2-2.4-4.8-3.7c3.5,11.6,6.7,23.1,9.3,35c1.1,5.2,2.1,10.4,3,15.7c0.3,1.8,0.6,3.6,0.9,5.4c0.1,0.7,0.2,1.4,0.3,2
						c-0.4-2.4-0.1-0.8,0-0.3c0.4,3.4,0.8,6.8,1.3,10.2c0.8,6.2,10,6.6,10,0c0-24.5,0.9-49.2,0-73.7c-0.2-4.1-1.1-8.2-1.7-12.2
						c-0.6-4.1-1.2-8.3-1.9-12.4c-0.1-0.8-0.3-6.7-1.1-7.2c0.7,0.4-0.8,3.4,0.2,2c0.3-0.4,0.4-1.2,0.5-1.7c0.6-2,1.3-4,1.9-6
						c0.7-2.3,1.8-4.6,2-7.1c0.4-4.6,0-9.4,0-14c0-14.5,0-29,0-43.5c0-5.6-8.4-6.9-9.8-1.3c-0.8,3.3-1.7,6.5-2.8,9.7
						c-0.5,1.5-1.1,2.9-1.7,4.4c-0.4,1,0.7-1.4-0.4,0.8c-0.5,1-1,2.1-1.5,3.1c-2.8,5.7-6.2,11.1-9.8,16.4c1.4-0.8,2.9-1.7,4.3-2.5
						c-2.1-0.2-4.2-0.4-6.3-0.6c1.6,1.2,3.2,2.4,4.8,3.7c-8.9-29.1-18.8-57.6-30.4-85.7c-11-26.7-23.5-52.8-37.2-78.1
						c-8.3-15.4-17.2-30.4-26.1-45.5c0,1.7,0,3.4,0,5c7.4-13.9,14.7-27.8,22.1-41.7c-1.4,0.8-2.9,1.7-4.3,2.5c26.4,0,52.9,0,79.3,0
						c3.8,0,7.7,0,11.5,0c0-3.3,0-6.7,0-10c-27.2,0-54.5,0-81.7,0c-7,0-14,0-21,0c0,3.3,0,6.7,0,10c23.7,0,47.4,0,71.1,0
						C811.2,139.6,811.2,129.6,804.8,129.6L804.8,129.6z"/>
				</g>
			</g>
		</g>
		<g id="LWPOLYLINE_169_">
			<g>
				<g>
					<path class="st0" d="M759.3,139.6c23.4,0,46.7,0,70.1,0c6.4,0,6.4-10,0-10c-25.7,0-51.4,0-77.1,0c-3.7,0-7.4,0-11.1,0
						c0,3.3,0,6.7,0,10c25.9-0.2,51.8,0,77.7,0c6.9,0,13.9,0,20.8,0c2.7,0,5-2.3,5-5c0-9.9,0-19.7,0-29.6c0-2.7-2.3-5-5-5
						c-25.2,0-50.4,0-75.6,0c-19.2,0-38.4,0-57.6,0c-21.9,0-43.7,0-65.6,0c-22.4,0-44.8,0-67.2,0c-21.7,0-43.4,0-65.1,0
						c-22.5,0-45,0-67.5,0c-22.6,0-45.1,0-67.7,0c-22.3,0-44.5,0-66.8,0c-22,0-44,0-66.1,0c-21.9,0-43.8,0-65.7,0
						c-4.9,0-9.7,0-14.6,0c-2.7,0-5,2.3-5,5c0,11.9,0,23.9,0,35.8c0,2.7,2.3,5,5,5c10.4,0.1,20.9,0,31.3-0.1
						c-1.6-1.2-3.2-2.4-4.8-3.7c8.4,24.3,17.1,48.6,27.8,72.1c10.9,24,22.2,47.8,35.2,70.8c7.7,13.7,15.7,27.3,23.8,40.8
						c-0.2-1.3-0.3-2.6-0.5-3.9c-3.3,22.2-6.6,44.4-10,66.6c1.2-1.2,2.3-2.3,3.5-3.5c-22.2,3.7-44.4,7.7-66.1,13.5
						c-10.9,2.9-22,6.1-32.2,11.1c-4.6,2.3-12.3,6.1-13,11.8c-0.5,4.3,0,8.9,0,13.2c0,14.8,0,29.6,0,44.5c0,3,3.2,6,6.3,4.8
						c0.6-0.2,1.2-0.5,1.8-0.7c5.9-2.3,3.4-11.9-2.7-9.6c-0.6,0.2-1.2,0.5-1.8,0.7c-5,1.9-4.7,9.9,1.3,9.8
						c19.1-0.3,38.2-0.5,57.3-0.8c7-0.1,14.6,0.5,21.6-0.3c2.4-0.3,3.5-1.5,5-3.1c1.9-2,2.2-2.1,4.1-3.3c3.1-2,6.4-3.7,9.8-5.2
						c4.6-2.1,6.5-2.8,12.1-4.8c2-0.7,4-1.4,6-2c0.5-0.2,1.2-0.3,1.7-0.6c2.8-1.4-0.8,1.2-0.9-0.4c0,0.2,3.8,1,4.2,1.1
						c-1.2-2.1-2.3-4.1-3.5-6.2c-3.6,23.8-7.1,47.6-10.7,71.3c-5.6,37.7-11.3,75.5-16.9,113.2c-1.3,8.7-2.6,17.5-3.9,26.2
						c0.8-1,1.5-2,2.3-3c-26.4,14.4-53.1,30.6-73.1,53.4c-4.9,5.5-9.4,11.4-13,17.8c-2.7,4.8-6.6,11.2-6.8,16.8
						c-0.5,17.8-0.1,35.7-0.2,53.5c-0.1,17.3-0.1,34.6-0.2,51.9c0,3.3,3.2,5.6,6.3,4.8c3-0.7,6-1.4,9-2.2c-2.1-2.1-4.1-4.1-6.2-6.2
						c-1.4,8.4-3.1,16.6-4.5,25c1.6-1.2,3.2-2.4,4.8-3.7c-1.5,0-3.1,0-4.6,0c-2.7,0-5,2.3-5,5c0,4.2,0,8.4,0,12.6c0,2.7,2.3,5,5,5
						c38,0,75.9,0,113.9,0c40.2,0,80.3,0,120.5,0c39.3,0,78.6,0,117.9,0c39.4,0,78.7,0,118.1,0c38.5,0,77,0,115.5,0
						c4.4,0,8.8,0,13.2,0c3.7,0,6.3-4.3,4.3-7.5c-1.3-2.1-2.6-4.2-3.8-6.3c-1.4,2.5-2.9,5-4.3,7.5c24.3-2.1,48.7-4.2,73-6.3
						c2.8-0.2,4.9-2.1,5-5c0.5-15.2,1-30.5,1.5-45.7c0.3-9.9,0.7-19.7,1-29.6c0.1-2.6,0.3-5.2,0.3-7.8c0-2.8-1.1-4.6-3-6.7
						c-9.3-10.6-21.1-19.1-33-26.6c-11-7-22.5-13.5-34.4-18.9c-16.3-7.5-32.5-15-49.2-21.6c-1.6-0.6-3.7,0.1-4.9,1.3
						c-20.3,20.4-41,40.4-62.5,59.5c-21.9,19.4-44.2,38.4-67.1,56.5c-4,3.1-8,6.3-11.9,9.4c-0.9,0.7,1.4-1.1,0.2-0.2
						c-0.8,0.6-1.6,1.2-2.4,1.8c-2.2,1.7-4.4,3.4-6.6,5.1c-3.4,2.6-7.4,4.6-7.4,9.3c0,4.7,0.4,9.4,0.6,14.1c0.1,2.7,2.2,5,5,5
						c25.9,0,51.9,0,77.8,0c25.9,0,51.9,0,77.8,0c14.3,0,28.6,0,43,0c6.4,0,6.4-10,0-10c-13.2,0-26.3,0-39.5,0c-6.4,0-6.4,10,0,10
						c26.2,0,52.4,0,78.5,0c0-3.3,0-6.7,0-10c-43.5,0-87,0-130.5,0c-6.1,0-12.2,0-18.2,0c0,3.3,0,6.7,0,10c40.5,0,81,0,121.6,0
						c10.9,0,21.8,0,32.7,0c0-3.3,0-6.7,0-10c-0.6,0-1.3,0-1.9,0c-6.4,0-6.4,10,0,10c10.2,0,20.3,0,30.5,0c6.4,0,6.4-10,0-10
						c-25.5,0-51,0-76.5,0c1.7,1.7,3.3,3.3,5,5c0-28.1,0-56.3,0-84.4c0-6.4-10-6.4-10,0c0,28.1,0,56.3,0,84.4c0,2.7,2.3,5,5,5
						c25.5,0,51,0,76.5,0c0-3.3,0-6.7,0-10c-10.2,0-20.3,0-30.5,0c0,3.3,0,6.7,0,10c0.6,0,1.3,0,1.9,0c6.4,0,6.4-10,0-10
						c-40.5,0-81,0-121.6,0c-10.9,0-21.8,0-32.7,0c-6.4,0-6.4,10,0,10c43.5,0,87,0,130.5,0c6.1,0,12.2,0,18.2,0c6.4,0,6.4-10,0-10
						c-26.2,0-52.4,0-78.5,0c0,3.3,0,6.7,0,10c13.2,0,26.3,0,39.5,0c0-3.3,0-6.7,0-10c-25.3,0-50.6,0-75.8,0c-26,0-52,0-78,0
						c-14.9,0-29.8,0-44.7,0c1.7,1.7,3.3,3.3,5,5c-0.2-5.1-0.4-10.2-0.6-15.3c-0.8,1.4-1.7,2.9-2.5,4.3c21.6-16.6,43-33.5,63.8-51.1
						c20.4-17.2,40.4-34.8,59.7-53.2c11.5-10.9,22.7-22,33.9-33.3c-1.6,0.4-3.2,0.9-4.9,1.3c3.9,1.6,7.9,3.1,11.8,4.7
						c1.5,0.6,2.9,1.2,4.4,1.8c0.5,0.2,3,1.3,1.7,0.7c-1.2-0.5,0.1,0.1,0.4,0.2c0.8,0.4,1.7,0.8,2.5,1.2c9.8,4.5,19.8,8.9,29.5,13.6
						c15.3,7.4,29.7,16.3,43.6,26c1.8,1.2-0.6-0.5,1.5,1.1c1.1,0.9,2.2,1.7,3.3,2.6c1.7,1.4,3.4,2.8,5,4.2
						c3.6,3.2,6.9,6.7,10.1,10.3c-0.5-1.2-1-2.4-1.5-3.5c-0.9,28.1-1.9,56.3-2.8,84.4c1.7-1.7,3.3-3.3,5-5
						c-24.3,2.1-48.7,4.2-73,6.3c-3.6,0.3-6.4,4.1-4.3,7.5c1.3,2.1,2.6,4.2,3.8,6.3c1.4-2.5,2.9-5,4.3-7.5c-37.8,0-75.6,0-113.5,0
						c-39.6,0-79.1,0-118.7,0c-40,0-80,0-120,0c-39.1,0-78.2,0-117.3,0c-38.8,0-77.7,0-116.5,0c-4.4,0-8.8,0-13.2,0
						c1.7,1.7,3.3,3.3,5,5c0-4.2,0-8.4,0-12.6c-1.7,1.7-3.3,3.3-5,5c1.5,0,3.1,0,4.6,0c2,0,4.5-1.5,4.8-3.7c1.3-8.4,3.1-16.6,4.5-25
						c0.6-3.7-2.2-7.1-6.2-6.2c-3,0.7-6,1.4-9,2.2c2.1,1.6,4.2,3.2,6.3,4.8c0.1-32.6,0.3-65.1,0.4-97.7c0-2.5,0.1-5,0-7.5
						c0-0.3,0.2-1.2,0-1.5c-0.2-0.2,1.1-2.6-0.3,1c-1,2.6,0.7-1,1-1.7c2.8-6.3,5.8-12.1,9.8-17.8c0.3-0.4,1.9-2.7,0.7-1.1
						c0.6-0.9,1.3-1.7,2-2.5c1.2-1.5,2.3-2.8,3.6-4.2c2.2-2.5,4.4-4.9,6.8-7.2c2.7-2.6,5.5-5.1,8.3-7.6c1.1-1,2.2-1.9,3.3-2.8
						c1-0.8,2-1.6,2.9-2.4c1.6-1.4-0.5,0.3,0.7-0.6c11.1-8.6,22.8-16.4,35-23.4c3.3-1.9,6.6-3.8,10-5.6c2.6-1.4,5.5-2.4,6.4-5.5
						c0.8-2.7,0.9-5.8,1.3-8.6c5.4-36,10.7-71.9,16.1-107.9c4.6-30.8,9.3-61.6,13.8-92.4c0.1-0.5,0.2-1.1,0.2-1.6
						c0.4-2.7-0.6-5.4-3.5-6.2c-2.6-0.7-4.9-1.6-7.6-1c-2.2,0.4-4.4,1.4-6.5,2.2c-4.2,1.4-8.3,3-12.4,4.7c-7.8,3.3-16.2,7-21.7,13.7
						c1.2-0.5,2.4-1,3.5-1.5c-26.3,0.4-52.7,0.7-79,1.1c0.4,3.3,0.9,6.5,1.3,9.8c0.6-0.2,1.2-0.5,1.8-0.7c-0.9-3.2-1.8-6.4-2.7-9.6
						c-0.6,0.2-1.2,0.5-1.8,0.7c2.1,1.6,4.2,3.2,6.3,4.8c0-19.2,0-38.5,0-57.7c-0.5,1.2-1,2.4-1.5,3.5c2.4-2.8,3.9-3.8,7.8-5.8
						c0.8-0.4,1.5-0.8,2.3-1.1c0.5-0.2,3.1-1.4,1.5-0.7c1.9-0.8,3.9-1.6,5.9-2.3c6.8-2.5,13.7-4.6,20.7-6.4
						c14-3.8,28.2-6.7,42.4-9.4c8.3-1.6,16.6-3,24.8-4.4c1.5-0.3,3.3-2,3.5-3.5c2.9-19.7,5.9-39.3,8.8-59c0.4-2.5,0.9-5.1,1.1-7.6
						c0.4-4.2-2.9-7.9-5-11.4c-4.6-7.6-9.1-15.2-13.5-22.9c-8.8-15.7-17.4-31.5-25.3-47.6c-3.9-8-7.8-16-11.5-24.2
						c-1.1-2.5-2.3-5-3.4-7.5c-0.4-0.9-0.8-1.9-1.3-2.8c-0.6-1.3-0.5-1-0.1-0.1c-2-4.6-3.9-9.3-5.9-14c-7.5-18-14-36.3-20.4-54.7
						c-0.7-2.1-2.5-3.7-4.8-3.7c-10.4,0.1-20.9,0.2-31.3,0.1c1.7,1.7,3.3,3.3,5,5c0-11.9,0-23.9,0-35.8c-1.7,1.7-3.3,3.3-5,5
						c21.5,0,43,0,64.5,0c22.1,0,44.2,0,66.2,0c22.1,0,44.1,0,66.2,0c22.3,0,44.5,0,66.8,0c22.1,0,44.2,0,66.4,0
						c22.6,0,45.2,0,67.8,0c22,0,44,0,66.1,0c22.3,0,44.6,0,66.9,0c21.3,0,42.6,0,64,0c25.1,0,50.1,0,75.2,0c3.1,0,6.2,0,9.3,0
						c-1.7-1.7-3.3-3.3-5-5c0,9.9,0,19.7,0,29.6c1.7-1.7,3.3-3.3,5-5c-25.6,0-51.1,0-76.7,0c-7.3,0-14.5-0.1-21.8,0
						c-6.4,0.1-6.4,10,0,10c25.7,0,51.4,0,77.1,0c3.7,0,7.4,0,11.1,0c0-3.3,0-6.7,0-10c-23.4,0-46.7,0-70.1,0
						C752.9,129.6,752.9,139.6,759.3,139.6L759.3,139.6z"/>
				</g>
			</g>
		</g>
		<g id="LWPOLYLINE_176_">
			<g>
				<g>
					<path class="st0" d="M661.3,156.3c-12.5,6.5-25.1,12.8-37.8,18.8c-6,2.8-12,5.6-18.1,8.2c-3.1,1.3-6.1,2.7-9.2,4
						c-2.1,0.9-4.1,1.8-6.2,2.6c-0.8,0.3-1.5,0.6-2.3,1c-1.7,0.7,1.3-0.5-0.1,0c-26.4,10.8-52.7,21.4-79,32.6
						c-14.7,6.3-29.4,12.5-44.1,18.8c-5.9,2.5-0.8,11.1,5,8.6c28.4-12.1,56.7-24.2,85.1-36.3c0.5-0.2,3.9-1.6,2.7-1.1
						c-1.3,0.5,0.7-0.3,1-0.4c0.9-0.3,1.8-0.7,2.8-1.1c2.2-0.8,4.4-1.7,6.5-2.5c6.2-2.4,12.3-4.9,18.5-7.4c13-5.3,26-11,38.8-16.9
						c14-6.5,27.8-13.4,41.5-20.5C672.1,161.9,667,153.3,661.3,156.3L661.3,156.3z"/>
				</g>
			</g>
		</g>
		<g id="LWPOLYLINE_178_">
			<g>
				<g>
					<path class="st0" d="M623.5,156.3c-31.5,20.8-64.2,39.5-98.1,56c-17.6,8.5-35.5,16.3-53.1,24.8c-17.1,8.3-33.9,17.2-50.5,26.5
						c-18.3,10.4-36.1,21.7-53.6,33.5c-5.3,3.6-0.3,12.3,5,8.6c31.6-21.4,64.6-40.5,98.8-57.4c16.5-8.2,33.5-15.5,50.1-23.4
						c17.8-8.5,35.3-17.5,52.5-27.1c18.4-10.2,36.3-21.3,53.9-32.9C633.9,161.4,628.9,152.7,623.5,156.3L623.5,156.3z"/>
				</g>
			</g>
		</g>
		<g id="LWPOLYLINE_180_">
			<g>
				<g>
					<path class="st0" d="M807.1,356.9c10.6,0,21.3,0,31.9,0c6.4,0,6.4-10,0-10c-10.6,0-21.3,0-31.9,0
						C800.7,346.9,800.7,356.9,807.1,356.9L807.1,356.9z"/>
				</g>
			</g>
		</g>
		<g id="LWPOLYLINE_181_">
			<g>
				<g>
					<path class="st0" d="M612.9,230.6c8.1,20.1,16.3,40.1,24.4,60.2c12.9,31.8,25.8,63.6,38.8,95.5c3,7.4,6,14.7,9,22.1
						c0.4-1.6,0.9-3.2,1.3-4.9c-22.7,24.9-45.3,49.7-68,74.6c-3.2,3.6-6.5,7.1-9.7,10.7c1.6-0.4,3.2-0.9,4.9-1.3
						c-25.6-7-51.2-13.9-76.8-20.9c-40.6-11-81.2-22.1-121.8-33.1c-9.3-2.5-18.6-5.1-28-7.6c-6.4-1.7-8.5,7.3-2.7,9.6
						c2.9,1.2,5.9,2.4,8.8,3.6c2.7,1.1,5.9,3.2,8.9,2.5c5.3-1.2,4.1-7.9,0-9.6c-3.5-1.5-7.1-2.9-10.6-4.4c-1.7-0.7-3.5-1.5-5.2-2.2
						c-1-0.4-0.8-0.4,0.1,0.1c-0.9-0.4-1.8-0.8-2.7-1.2c-1.1-0.5-2.2-1-3.4-1.5c-1.1-0.5-2.3-1.6-1.1,0c1.6,2,0.5,0.2,0.3-0.3
						c-0.4-1-1-2-1.4-3c-1.1-2.3-2.2-4.6-3.4-6.9c-0.5-1.1-1.3-4.1-2.3-4.7c0.8,0.5,0,3.2,0.7,1.4c0.4-0.9,0.3-2.3,0.4-3.3
						c0.5-3.7,1-7.4,1.5-11.2c1.4-10.3,2.7-20.6,4.1-30.9c0.9-6.7,1.8-13.5,2.7-20.2c-0.8,1.4-1.7,2.9-2.5,4.3
						c15.5-10.1,31.3-19.9,47.4-29.1c8.5-4.8,17.1-9.5,25.8-14.1c1.8-1,3.7-1.9,5.6-2.9c1.2-0.6,2.5-1.2,3.7-1.9
						c1.7-1-0.9,0.3-0.2,0c2.2-1,4.4-1.8,6.6-2.8c38.8-16.2,77.7-32.1,116.6-48.2c19.4-8,38.5-16.8,57.5-25.9c-2.4-1-4.9-2-7.3-3
						c4.6,12.7,11.6,24.6,17.6,36.7c6.5,13,12.9,26.1,19.2,39.2c6,12.6,11.8,25.3,17.6,38c1,2.2,2,4.5,3,6.7
						c0.9,2.1,1.8,4.1,2.7,6.2c0.3,0.6,0.5,1.2,0.8,1.8c-0.1-0.2-0.6-1.5-0.1-0.2c2.6,6.3,5.4,12.7,7.9,19.1
						c5.9,14.8,11.1,29.7,15.8,44.9c0.2-1.3,0.3-2.6,0.5-3.9c-6.1,9.4-12.4,18.7-18.9,27.8c-2.9,4.1-5.9,8.2-9,12.2
						c-1.9,2.6-3.9,5.1-5.9,7.6c-0.3,0.4-2.3,3-1.6,2c0.8-1-0.1,0.1-0.3,0.3c-0.5,0.7-1.1,1.4-1.6,2.1c-7.2,9.1-14.6,18-22.1,26.9
						c-1.3,1.6-2.7,3.1-4,4.6c-1.3,1.4-2.5,2.9-3.8,4.3c-0.5,0.5-1.1,1.1-1.5,1.7c-0.6,0.9-1.6,1,0.2,0.3c2.6-1-0.7,0-1.3,0.2
						c-1.7,0.6-3.4,1.1-5.2,1.7c-3.4,1.1-7,2.1-10.4,3.5c-3.2,1.3,0.2-0.3,0.6,0.5c-0.3-0.5-2.9-1-3.5-1.2
						c-4.1-1.4-8.2-2.8-12.4-4.2c-5.4-1.8-10.8-3.5-16.3-5.1c-6.2-1.9-8.8,7.8-2.7,9.6c5.4,1.6,10.9,3.3,16.3,5.1
						c4.2,1.4,8.5,2.9,12.7,4.3c2.5,0.8,4.2,1.6,6.8,0.8c3.7-1,7.3-2.4,10.9-3.6c2.9-1,6.6-1.6,9.2-3.2c2.8-1.7,5-5.4,7.1-7.8
						c1.7-1.9,3.3-3.8,5-5.8c16.4-19.4,32.2-39.3,46.7-60.2c3.8-5.4,7.4-10.9,11-16.4c2-3,3.2-5,2.2-8.7c-1-3.7-2.3-7.4-3.4-11
						c-3.7-11.2-7.8-22.2-12.2-33.1c-9.8-24.3-20.7-48.1-31.9-71.8c-11-23.2-22.6-46.1-34-69.1c-0.4-0.8-0.9-1.7-1.3-2.5
						c0.8,1.8,0,0-0.2-0.6c-0.3-0.9-0.6-1.8-1-2.7c-1.2-3.2-4.3-4.5-7.3-3c-11.5,5.5-23,11-34.7,16.1c-6.7,2.9-13.4,5.8-20.2,8.7
						c-1.3,0.5,1.2-0.5,0.3-0.1c-0.8,0.3-1.6,0.6-2.4,1c-2.2,0.9-4.3,1.8-6.5,2.7c-2.9,1.2-5.8,2.3-8.7,3.5
						c-27.7,11-55.2,22.8-82.7,34.3c-9.9,4.1-20.1,7.9-29.7,12.9c-11.4,5.9-22.7,12-33.8,18.4c-11.9,6.8-23.6,13.9-35.1,21.3
						c-4.7,3-11.2,5.5-12,11.5c-0.9,6.7-1.8,13.4-2.6,20.1c-1.3,9.7-2.5,19.4-3.8,29.1c-0.7,5.1-2.3,11-2.1,16.2
						c0.1,2.8,2.3,6,3.5,8.4c1.6,3.3,2.9,7.2,5,10.2c2,2.9,6.6,3.9,9.7,5.2c3,1.3,6,2.5,9,3.7c3.1,1.3,6.2,2.6,9.3,3.9
						c0-3.2,0-6.4,0-9.6c2.9-0.7,2.9,0.1,0.4-0.9c-1.8-0.7-3.5-1.4-5.3-2.2c-2.5-1-5-2-7.5-3.1c-0.9,3.2-1.8,6.4-2.7,9.6
						c25.6,7,51.2,13.9,76.8,20.9c40.6,11,81.2,22.1,121.8,33.1c9.3,2.5,18.6,5.1,28,7.6c1.7,0.5,3.7,0,4.9-1.3
						c22.7-24.9,45.3-49.7,68-74.6c3.2-3.6,6.5-7.1,9.7-10.7c1.1-1.2,2-3.2,1.3-4.9c-8.1-20.1-16.3-40.1-24.4-60.2
						c-12.9-31.8-25.8-63.6-38.8-95.5c-3-7.4-6-14.7-9-22.1C620.1,222,610.5,224.6,612.9,230.6L612.9,230.6z"/>
				</g>
			</g>
		</g>
		<g id="LWPOLYLINE_183_">
			<g>
				<g>
					<path class="st0" d="M450.6,114c-0.8,0-1.6,0-2.4,0c-1.3,0-2.6,0.6-3.5,1.5c-0.9,0.9-1.5,2.3-1.5,3.5c0.1,1.3,0.5,2.6,1.5,3.5
						c1,0.9,2.2,1.5,3.5,1.5c0.8,0,1.6,0,2.4,0c1.3,0,2.6-0.6,3.5-1.5c0.9-0.9,1.5-2.3,1.5-3.5c-0.1-1.3-0.5-2.6-1.5-3.5
						C453.1,114.6,451.9,114,450.6,114L450.6,114z"/>
				</g>
			</g>
		</g>
		<g id="LWPOLYLINE_186_">
			<g>
				<g>
					<path class="st0" d="M393,114c-42.9,0-85.9,0-128.8,0c-10.6,0-21.2,0-31.8,0c-6.4,0-6.4,10,0,10c20.6,0,41.2,0,61.7,0
						c-1.7-1.7-3.3-3.3-5-5c0.6,7.4,1.1,14.8,1.7,22.2c0.5,5.9,3,10.8,5.3,16.2c5.6,13.1,11.4,26.2,17.2,39.2
						c10.3,23,21.4,45.7,32.8,68.2c6.6,13.1,13.4,26,20.2,39c1.4-2.5,2.9-5,4.3-7.5c-12.9,0-25.8,0-38.8,0c1.4,0.8,2.9,1.7,4.3,2.5
						c-15.2-22.2-30.3-44.5-44.6-67.3c-15.2-24.3-29.9-48.9-43.9-73.9c-3.7-6.6-7.1-13.4-10.9-20c-1.2-2.1-0.4,0.5-0.4-1
						c0-2.1-0.7-4.5-1-6.6c-0.6-4.1-1.2-8.2-1.9-12.3c-1.6,2.1-3.2,4.2-4.8,6.3c22.7,0,45.5,0,68.2,0c6.4,0,6.4-10,0-10
						c-22.7,0-45.5,0-68.2,0c-3.6,0-5.3,3.2-4.8,6.3c1.1,7.2,1,16,4.4,22.6c3.7,7.2,7.7,14.3,11.7,21.4
						c8.2,14.6,16.5,29.1,25.2,43.4c17.2,28.3,35,56.2,53.7,83.5c2.9,4.2,5.5,8.7,8.7,12.6c2.8,3.4,7.3,2.5,11.4,2.5
						c10.6,0,21.2,0,31.8,0c3.9,0,6.1-4.2,4.3-7.5c-12.3-23.5-24.4-47-36-70.9c-10.7-22-20.9-44.3-30.5-66.8c-2-4.7-4-9.4-6-14.1
						c-0.6-1.4-1.1-3-1.8-4.3c-0.9-1.6,0.4,3.8,0.3,0.5c-0.2-8.1-1.2-16.2-1.9-24.3c-0.2-2.7-2.1-5-5-5c-20.6,0-41.2,0-61.7,0
						c0,3.3,0,6.7,0,10c40.9,0,81.8,0,122.7,0c12.6,0,25.3,0,37.9,0C399.4,124,399.4,114,393,114L393,114z"/>
				</g>
			</g>
		</g>
		<g id="LWPOLYLINE_187_">
			<g>
				<g>
					<path class="st0" d="M497.5,225.8c-0.2,0-0.5,0-0.7,0c-1.3,0-2.6,0.6-3.5,1.5c-0.9,0.9-1.5,2.3-1.5,3.5
						c0.1,1.3,0.5,2.6,1.5,3.5c1,0.9,2.2,1.5,3.5,1.5c0.2,0,0.5,0,0.7,0c1.3,0,2.6-0.6,3.5-1.5c0.9-0.9,1.5-2.3,1.5-3.5
						c-0.1-1.3-0.5-2.6-1.5-3.5C500.1,226.4,498.8,225.8,497.5,225.8L497.5,225.8z"/>
				</g>
			</g>
		</g>
		<g id="LWPOLYLINE_188_">
			<g>
				<g>
					<path class="st0" d="M722.2,405.5c-9.8-1.4-19.6-2.7-29.4-4.1c-6.3-0.9-9,8.8-2.7,9.6c9.8,1.4,19.6,2.7,29.4,4.1
						C725.8,416,728.5,406.4,722.2,405.5L722.2,405.5z"/>
				</g>
			</g>
		</g>
		<g id="LWPOLYLINE_189_">
			<g>
				<g>
					<path class="st0" d="M839.7,495c-0.7,0-1.4,0-2.2,0c-2.7,0-5,2.3-5,5c0,3.4,0.1,6.8,0.1,10.2c1.2-1.6,2.4-3.2,3.7-4.8
						c-10.6,2-21.2,4.1-31.9,6.1c-6,1.1-11.9,2.3-17.9,3.4c-1.1,0.2-2.2,0.5-3.3,0.6c2.9-0.4-1.9-0.2-2.4-0.2c-1.2,0-2.5,0-3.7,0
						c-6.4,0-6.4,10,0,10c10,0,19.3-2.2,29.1-4.1c10.9-2.1,21.9-4.2,32.8-6.3c2.1-0.4,3.7-2.8,3.7-4.8c0-3.4-0.1-6.8-0.1-10.2
						c-1.7,1.7-3.3,3.3-5,5c0.7,0,1.4,0,2.2,0C846.1,505,846.1,495,839.7,495L839.7,495z"/>
				</g>
			</g>
		</g>
		<g id="LWPOLYLINE_191_">
			<g>
				<g>
					<path class="st0" d="M309.9,114c-16.8,0-33.7,0-50.5,0c-6.4,0-6.4,10,0,10c16.8,0,33.7,0,50.5,0C316.3,124,316.3,114,309.9,114
						L309.9,114z"/>
				</g>
			</g>
		</g>
		<g id="LWPOLYLINE_192_">
			<g>
				<g>
					<path class="st0" d="M309,114c-17.2,0-34.4,0-51.5,0c-6.4,0-6.4,10,0,10c17.2,0,34.4,0,51.5,0C315.4,124,315.4,114,309,114
						L309,114z"/>
				</g>
			</g>
		</g>
		<g id="LWPOLYLINE_194_">
			<g>
				<g>
					<path class="st0" d="M249.9,124c15.3,0,30.5,0,45.8,0c6.4,0,6.4-10,0-10c-1.5,0-3.1,0-4.6,0c0,3.3,0,6.7,0,10
						c27.8,0,55.6,0,83.4,0c27.7,0,55.4,0,83.2,0c16,0,31.9,0,47.9,0c0-3.3,0-6.7,0-10c-0.1,0-0.3,0-0.4,0c0,3.3,0,6.7,0,10
						c22,0,44.1,0,66.1,0c21.4,0,42.9,0,64.3,0c13.4,0,26.9,0,40.3,0c6.4,0,6.4-10,0-10c-35.7,0-71.4,0-107,0c-10.3,0-20.6,0-30.9,0
						c-6.4,0-6.4,10,0,10c34.7,0,69.4,0,104.1,0c11.3,0,22.6,0,33.9,0c0-3.3,0-6.7,0-10c-22.6,0-45.2,0-67.8,0
						c-21.6,0-43.2,0-64.9,0c-12.7,0-25.4,0-38.1,0c-6.4,0-6.4,10,0,10c0.1,0,0.3,0,0.4,0c6.4,0,6.4-10,0-10c-28.2,0-56.5,0-84.7,0
						c-27.6,0-55.2,0-82.8,0c-15.7,0-31.3,0-47,0c-6.4,0-6.4,10,0,10c1.5,0,3.1,0,4.6,0c0-3.3,0-6.7,0-10c-15.3,0-30.5,0-45.8,0
						C243.5,114,243.5,124,249.9,124L249.9,124z"/>
				</g>
			</g>
		</g>
		<g id="LWPOLYLINE_195_">
			<g>
				<g>
					<path class="st0" d="M244.1,124c14.5,0,29,0,43.5,0c34.2,0,68.4,0,102.6,0c40,0,80,0,120,0c31.4,0,62.8,0,94.2,0
						c15.4,0,30.9,0,46.3,0c2.8,0,5.7,0,8.5,0c0-3.3,0-6.7,0-10c-15.2,0-30.4,0-45.5,0c-6.4,0-6.4,10,0,10c9.7,0,19.3,0,29,0
						c-1.6-2.1-3.2-4.2-4.8-6.3c-5.5,13.8-11.1,27.7-16.6,41.5c-1.2,3.1,1.9,6.3,4.8,6.3c12.6,0,25.2,0,37.8,0
						c2.3,0,4.1-1.6,4.8-3.7c4.9-13.8,9.8-27.7,14.6-41.5c1.1-3.1-1.8-6.3-4.8-6.3c-24.5,0-48.9,0-73.4,0c-6.4,0-6.4,10,0,10
						c24.5,0,48.9,0,73.4,0c-1.6-2.1-3.2-4.2-4.8-6.3c-4.9,13.8-9.8,27.7-14.6,41.5c1.6-1.2,3.2-2.4,4.8-3.7c-12.6,0-25.2,0-37.8,0
						c1.6,2.1,3.2,4.2,4.8,6.3c5.5-13.8,11.1-27.7,16.6-41.5c1.2-3.1-1.9-6.3-4.8-6.3c-9.7,0-19.3,0-29,0c0,3.3,0,6.7,0,10
						c15.2,0,30.4,0,45.5,0c6.4,0,6.4-10,0-10c-15.7,0-31.3,0-47,0c-29.4,0-58.8,0-88.2,0c-39.7,0-79.4,0-119.2,0
						c-35.6,0-71.3,0-106.9,0c-17.6,0-35.5-0.7-53.1,0c-0.3,0-0.5,0-0.8,0C237.6,114,237.6,124,244.1,124L244.1,124z"/>
				</g>
			</g>
		</g>
		<g id="LWPOLYLINE_196_">
			<g>
				<g>
					<path class="st0" d="M221.5,124c28,0,55.9,0,83.9,0c6.7,0,13.4,0,20.1,0c0-3.3,0-6.7,0-10c-18.9,0-37.9,0-56.8,0
						c-6.4,0-6.4,10,0,10c14.7,0,29.3,0,44,0c6.4,0,6.4-10,0-10c-14.7,0-29.3,0-44,0c0,3.3,0,6.7,0,10c18.9,0,37.9,0,56.8,0
						c6.4,0,6.4-10,0-10c-27.9,0-55.8,0-83.7,0c-6.8,0-13.5,0-20.3,0C215.1,114,215.1,124,221.5,124L221.5,124z"/>
				</g>
			</g>
		</g>
		<g id="LWPOLYLINE_197_">
			<g>
				<g>
					<path class="st0" d="M160.3,110c25.2,0,50.4,0,75.6,0c19.2,0,38.4,0,57.6,0c21.9,0,43.7,0,65.6,0c22.4,0,44.8,0,67.2,0
						c21.7,0,43.4,0,65.1,0c22.5,0,45,0,67.5,0c22.6,0,45.1,0,67.7,0c22.3,0,44.5,0,66.8,0c22,0,44,0,66.1,0c21.9,0,43.8,0,65.7,0
						c4.9,0,9.7,0,14.6,0c6.4,0,6.4-10,0-10c-21.5,0-43,0-64.5,0c-22.1,0-44.2,0-66.2,0c-22.1,0-44.1,0-66.2,0
						c-22.3,0-44.5,0-66.8,0c-22.1,0-44.2,0-66.4,0c-22.6,0-45.2,0-67.8,0c-22,0-44,0-66.1,0c-22.3,0-44.6,0-66.9,0
						c-21.3,0-42.6,0-64,0c-25.1,0-50.1,0-75.2,0c-3.1,0-6.2,0-9.3,0C153.9,100,153.9,110,160.3,110L160.3,110z"/>
				</g>
			</g>
		</g>
		<g id="LWPOLYLINE_198_">
			<g>
				<g>
					<path class="st0" d="M622.4,510.3c3.4,1.1,6.9,2.6,10.4,3.4c3.1,0.7,6.4,0.8,9.6,1.2c6.1,0.7,6-7.9,1.3-9.8
						c-8-3.3-15.9-6.5-23.9-9.8c-4-1.6-7.9-3.6-12-4.9c-3-1-6.2-0.4-9.3-0.2c-2.2,0.1-4.8-0.1-7,0.4c-1.6,0.3,0.3,0.2,0,0.1
						c-1.1-0.3-2.3-0.6-3.4-0.9c-3.8-1.1-7.5-2.1-11.3-3.1c-7.6-2-15.3-4-23-5.9c-15-3.7-30-6.4-44.8-10.9
						c-15.1-4.6-30.1-9.4-45-14.5c-8.3-2.9-16.6-5.8-24.9-8.9c-7.7-2.8-15.4-6.2-23.3-8.5c-6.3-1.8-8.6,7.5-2.7,9.6
						c8.1,3,16.2,5.9,24.3,8.9c6.1,2.2,8.7-7.5,2.7-9.6c-8.1-3-16.2-5.9-24.3-8.9c-0.9,3.2-1.8,6.4-2.7,9.6
						c14.3,4.1,28.2,10.4,42.3,15.3c14.6,5.1,29.3,10,44,14.5c6.6,2,13.3,4.5,20.1,6c8.1,1.8,16.4,3.3,24.5,5.2
						c7.6,1.8,15.3,3.8,22.9,5.8c3.8,1,7.6,2,11.4,3.1c3.9,1.1,8.2,3,12.3,3.2c4.8,0.3,9.7-0.7,14.4-0.8c0.8,0-1.7-0.6-0.5,0
						c0.6,0.3,1.2,0.5,1.8,0.7c2.2,0.9,4.3,1.8,6.5,2.7c9.4,3.9,18.8,7.7,28.2,11.6c0.4-3.3,0.9-6.5,1.3-9.8c-1.5-0.2-3-0.3-4.5-0.5
						c-1-0.1-2-0.2-3-0.3c-1.3-0.2,1.6,0.5,0.2-0.1c-3.2-1.4-6.7-2.2-10.1-3.3C618.9,498.6,616.3,508.3,622.4,510.3L622.4,510.3z"/>
				</g>
			</g>
		</g>
		<g id="LWPOLYLINE_200_">
			<g>
				<g>
					<path class="st0" d="M630.3,581.5c13,0,26.1,0,39.1,0c5.8,0,6.5-8,1.3-9.8c-21.3-7.5-42.8-14.7-64.4-21.3
						c-22.2-6.8-44.5-13-66.9-18.9c-12.1-3.2-24.2-6.2-36.4-8.9c-0.4,3.3-0.9,6.5-1.3,9.8c-1,0-0.3-0.1,1,0.4
						c1.4,0.5,2.8,0.9,4.1,1.4c2.1,0.7,4.1,1.3,6.2,2c4.4,1.4,8.8,2.9,13.2,4.3c8.6,2.9,17.1,5.9,25.6,9c7.9,2.9,15.7,5.8,23.6,8.9
						c4.3,1.7,8.6,3.4,12.9,5.1c2.3,0.9,4.5,1.9,6.8,2.8c0.5,0.2,0.9,0.4,1.4,0.6c0.9,0.4-1.7-0.7-0.4-0.2c1.5,0.6,3.1,1.3,4.6,1.9
						c9.2,3.9,18.3,8,27.3,12.1c-0.8-1.4-1.7-2.9-2.5-4.3c2.8,34.5,5.6,69.1,8.4,103.6c0.4,4.8,0.8,9.7,1.2,14.5
						c0.5,6.4,10.5,6.4,10,0c-2.8-34.5-5.6-69.1-8.4-103.6c-0.4-4.8-0.8-9.7-1.2-14.5c-0.1-1.7-0.8-3.6-2.5-4.3
						c-33.6-15.4-68-29-103-40.9c-4.4-1.5-8.9-3-13.3-4.4c-4.5-1.4-10.2-4.4-14.9-4.4c-5.5,0-6.9,8.6-1.3,9.8
						c22.4,5.1,44.6,11,66.8,17.1c21.7,6,43.2,12.6,64.6,19.5c12.2,4,24.3,8.1,36.4,12.4c0.4-3.3,0.9-6.5,1.3-9.8
						c-13,0-26.1,0-39.1,0C623.9,571.5,623.9,581.5,630.3,581.5L630.3,581.5z"/>
				</g>
			</g>
		</g>
		<g id="LWPOLYLINE_201_">
			<g>
				<g>
					<path class="st0" d="M539.3,545.1c3.9,0,7.9,0,11.8,0c6.4,0,6.4-10,0-10c-3.9,0-7.9,0-11.8,0
						C532.9,535.1,532.9,545.1,539.3,545.1L539.3,545.1z"/>
				</g>
			</g>
		</g>
		<g id="LWPOLYLINE_202_">
			<g>
				<g>
					<path class="st0" d="M486.6,528.8c4,1,8.1,2,12.1,2.9c6.3,1.5,8.8-7.7,2.7-9.6c-33-10.4-65.6-22.1-97.5-35.6
						c-0.4-0.2-0.8-0.3-1.2-0.5c-1.2-0.5,1.6,0.7,0,0c-1.4-0.6-2.9-1.3-4.4-1.9c-1.9-0.8-3.8-1.7-5.7-2.5c-4.7-2.1-9.3-4.2-13.9-6.3
						c-2.5-1.2-6.9-0.5-7.3,3c-3.4,25.2-6.9,50.5-10.3,75.7c-5.1,37.8-10.3,75.5-15.4,113.3c-0.7,5-1.4,9.9-2,14.9
						c-0.4,3.2-1.4,6.5,0.9,9.2c4.7,5.5,11,10.3,16.3,15.2c4.6,4.3,9.3,8.5,14,12.8c21.1,19,42.5,37.7,64.3,56
						c11,9.2,22.1,18.4,33.3,27.5c4.9,4,9.8,8,14.8,11.9c1.8,1.4,3.7,2.8,5.5,4.2c0.3,0.2,1.9,1.7,1.1,0.9c-0.6-0.7,1.2,1.5,1.6,2
						c2.7,3,6.2,4.6,9.7,6.5c1.9,1.1-0.7-0.7,0.7,0.4c0.5,0.4,2.6,2.4,1.4,0.9c1.1,1.4,2,3.1,2.9,4.6c3.5,5.4,12.1,0.4,8.6-5
						c-2.2-3.5-4.2-6.6-7.6-8.9c-1.5-1-3.3-1.8-4.9-2.8c-0.9-0.5-1.9-1-2.7-1.5c-0.5-0.3-0.5-0.5,0.4,0.4c-0.4-0.4-0.8-0.8-1.1-1.2
						c-2.6-3.2-5.9-5.4-9.2-7.9c-0.8-0.6-1.5-1.2-2.3-1.8c-0.8-0.6,1.4,1.1,0.1,0.1c-1.7-1.4-3.5-2.8-5.3-4.2
						c-10.9-8.8-21.8-17.7-32.6-26.7c-22.3-18.6-44.4-37.6-66-57c-12.2-11-24.3-22.1-36.2-33.3c0.4,1.6,0.9,3.2,1.3,4.9
						c3.2-23.5,6.4-47,9.6-70.5c5.1-37.3,10.2-74.5,15.2-111.8c1.2-8.6,2.3-17.2,3.5-25.8c-2.4,1-4.9,2-7.3,3
						c31.7,14.5,64,27.4,97,38.6c9.3,3.2,18.7,6.2,28.1,9.1c0.9-3.2,1.8-6.4,2.7-9.6c-4-1-8.1-2-12.1-2.9
						C483,517.6,480.3,527.3,486.6,528.8L486.6,528.8z"/>
				</g>
			</g>
		</g>
		<g id="LWPOLYLINE_203_">
			<g>
				<g>
					<path class="st0" d="M686.8,694.7c-3.6-34.5-7.2-69-10.8-103.5c-0.5-4.9-1-9.8-1.5-14.7c-0.7-6.3-10.7-6.4-10,0
						c3.6,34.5,7.2,69,10.8,103.5c0.5,4.9,1,9.8,1.5,14.7C677.5,701,687.5,701.1,686.8,694.7L686.8,694.7z"/>
				</g>
			</g>
		</g>
		<g id="LWPOLYLINE_204_">
			<g>
				<g>
					<path class="st0" d="M697,753.6c4,2.5,8,5.1,11.9,7.8c1.8,1.3,3.7,2.5,5.5,3.8c1.3,0.9,2.6,1.9,3.9,2.9c0,0,1.7,1.3,0.6,0.4
						c-1-0.8,1.1,0.8,1.2,1c7.8,6.1,15.4,12.6,22.1,20c0.5,0.6,1,1.2,1.5,1.7c0.4,0.5,3.2,3.8,2,2.3c1.7,2.2,3.2,4.6,4.9,6.8
						c2.5,3.3,5.8,2.7,9.5,2.7c12.9,0,25.8,0,38.7,0c10.9,0,21.9,0,32.8,0c6.4,0,6.4-10,0-10c-25.5,0-51,0-76.5,0
						c1.4,0.8,2.9,1.7,4.3,2.5c-14.5-21.4-35.7-36.7-57.2-50.5C696.6,741.5,691.6,750.1,697,753.6L697,753.6z"/>
				</g>
			</g>
		</g>
		<g id="LWPOLYLINE_205_">
			<g>
				<g>
					<path class="st0" d="M839.7,890c-26.3,0-52.7,0-79,0c-6.4,0-6.4,10,0,10c26.3,0,52.7,0,79,0C846.1,900,846.1,890,839.7,890
						L839.7,890z"/>
				</g>
			</g>
		</g>
		<g id="LWPOLYLINE_206_">
			<g>
				<g>
					<path class="st0" d="M745.3,887.4c24.5,0,49.1,0,73.6,0c6.4,0,6.4-10,0-10c-24.5,0-49.1,0-73.6,0
						C738.9,877.4,738.8,887.4,745.3,887.4L745.3,887.4z"/>
				</g>
			</g>
		</g>
		<g id="LWPOLYLINE_207_">
			<g>
				<g>
					<path class="st0" d="M736.5,887.4c15.9,0,31.9,0,47.8,0c6.4,0,6.4-10,0-10c-15.9,0-31.9,0-47.8,0
						C730,877.4,730,887.4,736.5,887.4L736.5,887.4z"/>
				</g>
			</g>
		</g>
		<g id="LWPOLYLINE_208_">
			<g>
				<g>
					<path class="st0" d="M719.7,887.4c20.5,0,41,0,61.5,0c6.4,0,6.4-10,0-10c-20.5,0-41,0-61.5,0
						C713.2,877.4,713.2,887.4,719.7,887.4L719.7,887.4z"/>
				</g>
			</g>
		</g>
		<g id="LWPOLYLINE_209_">
			<g>
				<g>
					<path class="st0" d="M278.7,877.4c-10-0.2-20-0.4-30-0.7c1.6,1.2,3.2,2.4,4.8,3.7c-2.8-11.6-5.6-23.1-8.4-34.7
						c-0.3-1.3-0.7-2.7-1-4c0.4,2.4,0.1,0.9,0.2,0.1c0.2-1.2,0.1-2.5,0.2-3.8c0.4-7,0.8-13.9,1.1-20.9c0.2-3,0.3-6,0.5-9
						c0-0.7,0-1.4,0.1-2.1c0-0.1,0-0.3,0-0.4c-0.6,2.6,0.5-0.4,0.7-0.9c0.3-0.7,0.5-1.3,0.8-2c-0.9,2,0.1-0.2,0.3-0.4
						c0.5-1,0.9-2.1,1.5-3c1.2-2.1,2.7-4.1,4.1-6.2c1.9-2.9,3.8-5.7,5.6-8.6c0.6-1,1.3-1.9,1.9-2.9c0.2-0.4,0.8-1.1-0.4,0.4
						c0.7-0.9,1.4-1.7,2.1-2.5c3.1-3.8,6.5-7.5,9.9-11.1c7.9-8.1,18.6-14.7,24.2-24.4c-2.9,0-5.8,0-8.6,0c2.2,4.3,4.1,6.3,7.9,9.3
						c2.8,2.2,5.6,4.4,8.5,6.5c5.8,4.4,11.6,8.7,17.6,12.9c12.1,8.6,24.5,16.8,37,24.9c25,16.1,50.5,31.4,76,46.7
						c14.3,8.6,28.7,17,42.1,27c-0.8-1.4-1.7-2.9-2.5-4.3c0.2,5.1,0.4,10.1,0.7,15.2c1.7-1.7,3.3-3.3,5-5c-19.7,0-39.4,0-59.1,0.1
						c-6.4,0-6.4,10,0,10c18.1,0,36.3,0,54.4-0.1c0-3.3,0-6.7,0-10c-28.6,0-57.3,0-85.9,0c-7.9,0-15.7,0-23.6,0c-6.4,0-6.4,10,0,10
						c13.3,0,26.7,0,40,0c6.4,0,6.4-10,0-10c-13.3,0-26.7,0-40,0c0,3.3,0,6.7,0,10c28.3,0,56.6,0,84.8,0c8.2,0,16.5,0,24.7,0
						c6.4,0,6.4-10,0-10c-18.1,0-36.3,0.1-54.4,0.1c0,3.3,0,6.7,0,10c19.7,0,39.4,0,59.1-0.1c2.6,0,5.1-2.3,5-5
						c-0.2-4.7-0.3-9.3-0.6-14c-0.3-4.7-3.9-6.6-7.5-9.2c-6.2-4.5-12.7-8.6-19.2-12.6c-13.6-8.3-27.3-16.4-41-24.6
						c-27-16.3-53.8-32.8-79.8-50.6c-7.5-5.2-14.9-10.4-22.3-15.8c-3.5-2.6-7-5.2-10.4-7.9c-0.4-0.3-0.8-0.6-1.2-1c-1.3-1,1.3,1,0,0
						c-1.1-0.9-2.2-1.9-3.4-2.7c-0.4-0.3-1-0.7-1.4-1.1c-0.6-0.5,0.9,1.3,0.1,0.1c-0.7-1.2-1.3-2.5-1.9-3.8c-1.8-3.4-6.8-3.1-8.6,0
						c-0.7,1.1-1.4,2.3-2,3.5c-0.3,0.6-1.4,1.6-0.1,0.3c-0.5,0.5-1,0.9-1.6,1.3c-2.3,1.9-4.6,3.9-6.9,5.9c-4,3.5-7.8,7.1-11.5,10.8
						c-7.6,7.7-13.8,15.8-19.7,24.8c-2.8,4.3-5.7,8.4-7.8,13c-2,4.4-2.5,7.8-2.8,12.5c-0.4,7.6-0.8,15.2-1.2,22.8
						c-0.2,3.6-0.8,7.4-0.1,10.9c2.6,12.7,6.1,25.3,9.1,38c0.5,2.2,2.7,3.6,4.8,3.7c10,0.2,20,0.4,30,0.7
						C285.2,887.5,285.2,877.5,278.7,877.4L278.7,877.4z"/>
				</g>
			</g>
		</g>
		<g id="LWPOLYLINE_210_">
			<g>
				<g>
					<path class="st0" d="M239.4,890c-26.3,0-52.7,0-79,0c-6.4,0-6.4,10,0,10c26.3,0,52.7,0,79,0C245.8,900,245.8,890,239.4,890
						L239.4,890z"/>
				</g>
			</g>
		</g>
	</g>
</g>
<g id="Layer_2" class="st1">
	<rect x="900" y="900" class="st2" width="100" height="100"/>
	<rect y="0" class="st2" width="100" height="100"/>
</g>
</svg>
